<svg xmlns="http://www.w3.org/2000/svg" xmlns:xlink="http://www.w3.org/1999/xlink" width="689.393" height="745.577" viewBox="0 0 689.393 745.577">
  <defs>
    <linearGradient id="linear-gradient" x1="1.281" y1="-0.023" x2="-1.22" y2="1.654" gradientUnits="objectBoundingBox">
      <stop offset="0" stop-color="#4042e2"/>
      <stop offset="1" stop-color="#4f52ff"/>
    </linearGradient>
    <linearGradient id="linear-gradient-2" x1="1.336" y1="-0.157" x2="-0.823" y2="1.541" xlink:href="#linear-gradient"/>
    <linearGradient id="linear-gradient-3" x1="0.831" y1="-15.902" x2="-0.763" y2="63.064" xlink:href="#linear-gradient"/>
    <linearGradient id="linear-gradient-4" x1="0.967" y1="-23.5" x2="-0.569" y2="55.468" xlink:href="#linear-gradient"/>
    <linearGradient id="linear-gradient-5" x1="0.891" y1="-23.565" x2="-0.392" y2="55.403" xlink:href="#linear-gradient"/>
    <linearGradient id="linear-gradient-6" x1="1.115" y1="-31.097" x2="-0.422" y2="47.869" xlink:href="#linear-gradient"/>
    <linearGradient id="linear-gradient-7" x1="0.934" y1="-31.177" x2="-0.148" y2="47.789" xlink:href="#linear-gradient"/>
    <linearGradient id="linear-gradient-8" x1="1.082" y1="-39.458" x2="-0.068" y2="39.51" xlink:href="#linear-gradient"/>
    <linearGradient id="linear-gradient-9" x1="0.974" y1="-38.824" x2="0.023" y2="40.144" xlink:href="#linear-gradient"/>
    <linearGradient id="linear-gradient-10" x1="40.738" y1="0.676" x2="40.496" y2="0.191" gradientUnits="objectBoundingBox">
      <stop offset="0" stop-color="#ff928e"/>
      <stop offset="1" stop-color="#feb3b1"/>
    </linearGradient>
    <linearGradient id="linear-gradient-11" x1="39.923" y1="0.5" x2="40.923" y2="0.5" xlink:href="#linear-gradient-10"/>
    <linearGradient id="linear-gradient-12" x1="95.246" y1="-2.631" x2="101.487" y2="2.201" xlink:href="#linear-gradient"/>
    <linearGradient id="linear-gradient-13" x1="65.143" y1="-4.531" x2="69.601" y2="6.37" xlink:href="#linear-gradient"/>
    <linearGradient id="linear-gradient-14" x1="66.118" y1="0.5" x2="67.118" y2="0.5" xlink:href="#linear-gradient-10"/>
    <linearGradient id="linear-gradient-15" x1="33.391" y1="-0.647" x2="33.062" y2="-0.221" xlink:href="#linear-gradient-10"/>
    <linearGradient id="linear-gradient-16" x1="36.499" y1="-0.003" x2="38.518" y2="3.284" xlink:href="#linear-gradient"/>
    <linearGradient id="linear-gradient-17" x1="35.705" y1="-0.039" x2="37.442" y2="1.172" gradientUnits="objectBoundingBox">
      <stop offset="0.041" stop-color="#09005d"/>
      <stop offset="1" stop-color="#1a0f91"/>
    </linearGradient>
    <linearGradient id="linear-gradient-18" x1="108.406" y1="0.5" x2="109.406" y2="0.5" xlink:href="#linear-gradient-10"/>
    <linearGradient id="linear-gradient-19" x1="60.749" y1="-0.857" x2="60.437" y2="-0.223" xlink:href="#linear-gradient-10"/>
    <linearGradient id="linear-gradient-20" x1="31.972" y1="0.299" x2="31.249" y2="1.233" gradientUnits="objectBoundingBox">
      <stop offset="0" stop-color="#09005d"/>
      <stop offset="1" stop-color="#1a0f91"/>
    </linearGradient>
    <linearGradient id="linear-gradient-21" x1="115.843" y1="-0.028" x2="113.005" y2="6.36" xlink:href="#linear-gradient-20"/>
    <linearGradient id="linear-gradient-22" x1="459.176" y1="1.342" x2="460.184" y2="1.342" gradientUnits="objectBoundingBox">
      <stop offset="0" stop-color="#febbba"/>
      <stop offset="1" stop-color="#ff928e"/>
    </linearGradient>
    <linearGradient id="linear-gradient-23" x1="145.679" y1="0.089" x2="142.662" y2="0.944" xlink:href="#linear-gradient-20"/>
    <linearGradient id="linear-gradient-24" x1="287.324" y1="-1.66" x2="280.304" y2="5.905" xlink:href="#linear-gradient-20"/>
    <linearGradient id="linear-gradient-25" x1="535.261" y1="1.169" x2="536.275" y2="1.169" xlink:href="#linear-gradient-22"/>
    <linearGradient id="linear-gradient-26" x1="97.544" y1="0.02" x2="95.526" y2="0.863" xlink:href="#linear-gradient-20"/>
    <linearGradient id="linear-gradient-27" x1="88.605" y1="0.633" x2="89.599" y2="0.633" xlink:href="#linear-gradient-22"/>
    <linearGradient id="linear-gradient-28" x1="204.193" y1="1.845" x2="206.174" y2="4.528" xlink:href="#linear-gradient-22"/>
    <linearGradient id="linear-gradient-29" x1="637.837" y1="1.328" x2="639.838" y2="-0.452" xlink:href="#linear-gradient-22"/>
    <linearGradient id="linear-gradient-30" x1="70.606" y1="0.775" x2="71.608" y2="0.775" xlink:href="#linear-gradient-22"/>
    <linearGradient id="linear-gradient-31" x1="176.615" y1="0.815" x2="177.606" y2="0.815" xlink:href="#linear-gradient-22"/>
    <linearGradient id="linear-gradient-32" x1="-61.686" y1="17.103" x2="-62.009" y2="16.038" xlink:href="#linear-gradient-22"/>
    <linearGradient id="linear-gradient-33" x1="-46.454" y1="12.029" x2="-46.25" y2="13.212" xlink:href="#linear-gradient-20"/>
    <linearGradient id="linear-gradient-34" x1="-201.935" y1="79.881" x2="-202.882" y2="75.269" xlink:href="#linear-gradient-22"/>
    <linearGradient id="linear-gradient-35" x1="62.177" y1="-0.062" x2="62.69" y2="2.428" xlink:href="#linear-gradient-20"/>
    <linearGradient id="linear-gradient-36" x1="212.499" y1="0.5" x2="213.499" y2="0.5" xlink:href="#linear-gradient-22"/>
  </defs>
  <g id="Grupo_86" data-name="Grupo 86" transform="translate(-2259.733 -269.829)">
    <path id="Trazado_144" data-name="Trazado 144" d="M250.1,263.752c-51.036,41.011-78.8,89.695-86.575,102.74-70.791,118.78-85,298.72,6.263,412.933,60.324,75.493,143.762,93.527,186.927,102.857,29.232,6.318,166.772,32.189,283.01-56.565,9.889-7.55,22.4-17.107,35.632-31.926,100.24-112.3,110.852-380.816-38.23-513.733-71.023-63.322-169.1-86.925-253.231-75.222a263.8,263.8,0,0,0-87.834,28.51Z" transform="translate(2195.991 123.182)" fill="none" stroke="#ef4041" stroke-linecap="round" stroke-miterlimit="10" stroke-width="3" stroke-dasharray="17"/>
    <path id="Trazado_145" data-name="Trazado 145" d="M677.008,779.372c-14.077,14.819-27.4,24.376-37.919,31.926-123.7,88.755-270.065,62.882-301.172,56.564C291.982,858.534,203.19,840.5,139,765.007c-97.122-114.213-82-294.153-6.664-412.934,13.78-21.726,86.569-142.317,234.513-161.656,89.534-11.7,193.9,11.9,269.481,75.223C794.974,398.556,783.68,667.072,677.008,779.372Z" transform="translate(2188.78 120.202)" fill="#5379f6"/>
    <g id="Grupo_69" data-name="Grupo 69" transform="translate(2362.325 569.042)">
      <g id="Grupo_65" data-name="Grupo 65" transform="translate(0 12.218)">
        <g id="Grupo_64" data-name="Grupo 64">
          <path id="Trazado_146" data-name="Trazado 146" d="M453.746,732.435l-8.88-33.347a153.233,153.233,0,0,0,26.315-41.118c32.528-5.834,35.223-3.937,35.907-7.595l7.632-40.893a2.837,2.837,0,0,0-1.351-2.989l-29.42-16.925a152.739,152.739,0,0,0-9.723-47.775l20.32-27.951a2.9,2.9,0,0,0,.074-3.3L471.742,476.4a2.734,2.734,0,0,0-3.036-1.116l-32.754,9.4a145.551,145.551,0,0,0-40.019-26.456l-4.848-34.215a2.783,2.783,0,0,0-2.236-2.366l-39.986-7.387a2.8,2.8,0,0,0-2.942,1.411l-16.871,30.2a146.086,146.086,0,0,0-46.9,10.4c-26.966-19.425-27.427-22.614-30.417-20.51-32.619,23.819-35.766,23.151-34.8,26.8l8.88,33.345A153.244,153.244,0,0,0,199.5,537.022c-32.51,5.832-35.223,3.937-35.908,7.6-6.885,40.759-9.445,42.064-6.281,43.882l29.421,16.925a152.672,152.672,0,0,0,9.723,47.775C177.4,680.584,174,681.378,176.067,684.455c23.232,33.384,22.374,36.27,25.912,35.255l32.754-9.394a145.564,145.564,0,0,0,40.019,26.455c5.3,32.568,3.434,35.91,7.086,36.582,39.686,6.6,41.1,9.244,42.926,5.978l16.872-30.2a146.126,146.126,0,0,0,46.9-10.4c26.875,19.359,27.411,22.623,30.418,20.51C451.57,735.419,454.717,736.086,453.746,732.435Z" transform="translate(-155.973 -414.208)" fill="#91b3fa"/>
          <g id="Grupo_63" data-name="Grupo 63" transform="translate(139.678 142.768)">
            <path id="Trazado_147" data-name="Trazado 147" d="M313.746,613.468C291.9,615,273.078,598.111,271.8,575.821s15.448-41.669,37.3-43.2,40.667,15.359,41.953,37.648h0C352.328,592.562,335.589,611.938,313.746,613.468ZM347.5,570.515l.006-.023Zm-68.626,4.81c1.041,18.092,16.239,32.2,34.453,30.919,17.944-1.256,31.691-17.173,30.633-35.48s-16.51-32.177-34.454-30.919C291.537,541.1,277.822,557.051,278.877,575.325Z" transform="translate(-271.727 -532.523)" fill="#bdd0fb"/>
          </g>
          <path id="Trazado_148" data-name="Trazado 148" d="M420.677,605.972h0a106.869,106.869,0,0,1-5.42,17.062,3.568,3.568,0,0,1-4.065,2.156,3.5,3.5,0,0,1-.584-.188,3.623,3.623,0,0,1-1.882-4.728,99.958,99.958,0,0,0,5.85-19.757h0c9.544-51.139-22.314-100.307-71.45-111.508q-1.882-.429-3.8-.783c-51.591-9.529-100.963,25.573-110.75,77.932-9.76,52.285,23.792,102.762,75.246,112.292,30.63,5.654,49.118-5.529,52.29-4.806a3.642,3.642,0,0,1,.419,6.922,99.95,99.95,0,0,1-58.121,4.168C212.352,665.115,191.316,549.4,264.381,497.987A100.036,100.036,0,0,1,340.657,481.1q2.072.382,4.117.847A99.69,99.69,0,0,1,405.755,524.1a104.358,104.358,0,0,1,15.785,77.7Q421.15,603.9,420.677,605.972Z" transform="translate(-142.749 -400.731)" fill="#bdd0fb"/>
        </g>
      </g>
      <g id="Grupo_68" data-name="Grupo 68" transform="translate(343.141 0)">
        <path id="Trazado_149" data-name="Trazado 149" d="M530.962,587.81a84.016,84.016,0,0,0,27.169-1.46l13.534,13.713c1.5,1.523,2.258-.335,22.666-9.674,1.862-.893.442-2.076-1.314-20.75a83.978,83.978,0,0,0,18.164-20.257l19.279.128c2.142.012,1.36-1.834,9.186-22.869a1.582,1.582,0,0,0-.509-1.768l-15.1-11.982a83.987,83.987,0,0,0-1.461-27.17c12.835-13.206,14.937-13.447,14.03-15.345-10.255-20.476-9.533-21.983-11.6-21.744l-19.139,2.2a83.984,83.984,0,0,0-20.256-18.165l.127-19.278c.014-2.138-1.834-1.36-22.868-9.188-1.939-.684-1.728,1.092-13.75,15.612a83.95,83.95,0,0,0-27.169,1.46l-13.533-13.713c-1.5-1.524-2.26.335-22.667,9.674-1.853.887-.451,1.981,1.315,20.75A83.958,83.958,0,0,0,468.9,458.246l-19.278-.128a1.585,1.585,0,0,0-1.5,1.058l-7.683,21.811a1.585,1.585,0,0,0,.509,1.768l15.1,11.982a83.951,83.951,0,0,0,1.46,27.169c-12.835,13.206-14.94,13.448-14.029,15.344,10.251,20.47,9.53,21.983,11.6,21.746l19.139-2.2a84.028,84.028,0,0,0,20.256,18.165c.262,18.414-1.06,20.081.93,20.783l21.812,7.683C519.162,604.109,519,602.257,530.962,587.81Z" transform="translate(-440.342 -404.083)" fill="#91b3fa"/>
        <g id="Grupo_67" data-name="Grupo 67" transform="translate(40.432 39.86)">
          <g id="Grupo_66" data-name="Grupo 66" transform="translate(35.13 35.736)">
            <path id="Trazado_150" data-name="Trazado 150" d="M508.55,506.3a24.129,24.129,0,1,1,33.981,3.114h0A24.158,24.158,0,0,1,508.55,506.3Zm31.681.351.022-.008ZM514.076,501.7a16.962,16.962,0,0,0,23.855,2.188h0c11.527-9.594,5.7-28.514-9.287-29.888C513.723,472.633,504.423,490.1,514.076,501.7Z" transform="translate(-502.963 -466.731)" fill="#bdd0fb"/>
          </g>
          <path id="Trazado_151" data-name="Trazado 151" d="M547.123,554.273a3.6,3.6,0,1,1-1.809-6.962,52.307,52.307,0,0,0,37.164-33.455c15.377-43.665-30-84.453-71.792-64.426a52.284,52.284,0,0,0-26.9,63.816c8.418,24.824,25.939,25.282,21.638,31.778a3.6,3.6,0,0,1-4.982,1.017,59.407,59.407,0,1,1,58.456,4.036h0A59.892,59.892,0,0,1,547.123,554.273Z" transform="translate(-473.85 -437.116)" fill="#bdd0fb"/>
        </g>
      </g>
    </g>
    <g id="Grupo_72" data-name="Grupo 72" transform="translate(2298.512 269.829)">
      <g id="Grupo_71" data-name="Grupo 71" transform="translate(0)">
        <g id="Grupo_70" data-name="Grupo 70">
          <text id="lidera" transform="translate(0 209)" fill="#ef4041" font-size="216" font-family="Montserrat-Black, Montserrat" font-weight="800" letter-spacing="-0.04em"><tspan x="0" y="0">lidera</tspan></text>
        </g>
      </g>
    </g>
    <text id="Si_usted" data-name="Si usted" transform="translate(2578.087 344.774)" fill="#09005d" font-size="42" font-family="Sansation Regular, Sansation" letter-spacing="-0.04em"><tspan x="0" y="0">Si usted</tspan></text>
    <g id="Grupo_76" data-name="Grupo 76" transform="translate(2339.241 492.098)">
      <g id="Grupo_73" data-name="Grupo 73" transform="translate(0 165.468)">
        <path id="Trazado_152" data-name="Trazado 152" d="M254.425,687.224a2.431,2.431,0,0,1-2.456-1.857L213.181,480.043a2.267,2.267,0,0,1,2.044-2.567A2.481,2.481,0,0,1,218.1,479.3l38.787,205.324a2.267,2.267,0,0,1-2.044,2.567A2.886,2.886,0,0,1,254.425,687.224Z" transform="translate(-121.073 -477.445)" fill="url(#linear-gradient)"/>
        <path id="Trazado_153" data-name="Trazado 153" d="M139.34,686.767a2.787,2.787,0,0,1-.5-.045,2.249,2.249,0,0,1-1.951-2.623l45.725-202.653a2.493,2.493,0,0,1,2.937-1.744,2.249,2.249,0,0,1,1.951,2.625L141.782,684.979A2.443,2.443,0,0,1,139.34,686.767Z" transform="translate(-136.843 -476.988)" fill="url(#linear-gradient-2)"/>
        <path id="Trazado_154" data-name="Trazado 154" d="M233.184,522.412H169.305a2.234,2.234,0,1,1,0-4.455h63.879a2.234,2.234,0,1,1,0,4.455Z" transform="translate(-130.63 -469.073)" fill="url(#linear-gradient-3)"/>
        <path id="Trazado_155" data-name="Trazado 155" d="M234.608,553.178H168.324a2.242,2.242,0,1,1,0-4.455h66.284a2.242,2.242,0,1,1,0,4.455Z" transform="translate(-130.852 -462.714)" fill="url(#linear-gradient-4)"/>
        <path id="Trazado_156" data-name="Trazado 156" d="M242.006,553.178h-80.36a2.242,2.242,0,1,1,0-4.455h80.36a2.242,2.242,0,1,1,0,4.455Z" transform="translate(-132.232 -462.714)" fill="url(#linear-gradient-5)"/>
        <path id="Trazado_157" data-name="Trazado 157" d="M234.608,583.945H168.324a2.242,2.242,0,1,1,0-4.455h66.284a2.242,2.242,0,1,1,0,4.455Z" transform="translate(-130.852 -456.355)" fill="url(#linear-gradient-6)"/>
        <path id="Trazado_158" data-name="Trazado 158" d="M251.078,583.945h-96.19a2.242,2.242,0,1,1,0-4.455h96.19a2.242,2.242,0,1,1,0,4.455Z" transform="translate(-133.629 -456.355)" fill="url(#linear-gradient-7)"/>
        <path id="Trazado_159" data-name="Trazado 159" d="M238.709,614.712H148.48a2.242,2.242,0,1,1,0-4.455h90.229a2.242,2.242,0,1,1,0,4.455Z" transform="translate(-134.953 -449.996)" fill="url(#linear-gradient-8)"/>
        <path id="Trazado_160" data-name="Trazado 160" d="M258.612,614.712H148.48a2.242,2.242,0,1,1,0-4.455H258.612a2.242,2.242,0,1,1,0,4.455Z" transform="translate(-134.953 -449.996)" fill="url(#linear-gradient-9)"/>
      </g>
      <g id="Grupo_74" data-name="Grupo 74" transform="translate(73.526 0)">
        <path id="Trazado_161" data-name="Trazado 161" d="M202.486,341.046l115.555-.728a4.6,4.6,0,0,1,4.775,4.488l-.486,59.949a4.618,4.618,0,0,1-4.885,4.419l-114.3-3.227a4.6,4.6,0,0,1-4.6-4.395l-.764-55.995A4.6,4.6,0,0,1,202.486,341.046Z" transform="translate(-197.776 -340.318)" fill="#91b3fa"/>
        <path id="Trazado_162" data-name="Trazado 162" d="M316.917,404.882l-114.33-3.227a.8.8,0,0,1-.792-.777l-.765-56a.756.756,0,0,1,.241-.57.818.818,0,0,1,.568-.229l115.556-.729a.824.824,0,0,1,.574.224.762.762,0,0,1,.245.571l-.486,59.949A.8.8,0,0,1,316.917,404.882Zm.48-61.151,0,.375-115.555.729.7,56.031.062.037,114.32,3.228.537-59.986Z" transform="translate(-197.103 -339.69)" fill="#bdd0fb"/>
        <path id="Trazado_163" data-name="Trazado 163" d="M207.2,351.429h0c0,1.933,1.2,3.5,2.678,3.5h98.284c1.479,0,2.678-1.568,2.678-3.5h0c0-1.933-1.2-3.5-2.678-3.5H209.881C208.4,347.928,207.2,349.5,207.2,351.429Z" transform="translate(-195.827 -338.745)" fill="#bdd0fb"/>
        <path id="Trazado_164" data-name="Trazado 164" d="M209.823,356.793h39.351a2.45,2.45,0,0,1,2.523,2.369v30.517a2.456,2.456,0,0,1-2.593,2.369l-38.546-1a2.45,2.45,0,0,1-2.452-2.308l-.8-29.512A2.445,2.445,0,0,1,209.823,356.793Z" transform="translate(-195.807 -336.913)" fill="#bdd0fb"/>
        <path id="Trazado_165" data-name="Trazado 165" d="M251.561,357.447h46.19a1.975,1.975,0,0,1,1.82,2.1h0a1.975,1.975,0,0,1-1.82,2.1h-46.19a1.975,1.975,0,0,1-1.82-2.1h0A1.975,1.975,0,0,1,251.561,357.447Z" transform="translate(-187.036 -336.778)" fill="#bdd0fb"/>
        <path id="Trazado_166" data-name="Trazado 166" d="M249.741,367.218h0a1.972,1.972,0,0,0,1.816,2.1h46.2a1.972,1.972,0,0,0,1.816-2.1v-1.3a1.963,1.963,0,0,0-1.861-2.095l-46.2,1.3A1.979,1.979,0,0,0,249.741,367.218Z" transform="translate(-187.036 -335.459)" fill="#bdd0fb"/>
      </g>
      <g id="_2p5qq5" data-name="2p5qq5" transform="translate(90.296 25.265)">
        <g id="Grupo_75" data-name="Grupo 75">
          <path id="Trazado_167" data-name="Trazado 167" d="M229.738,361.265a2.141,2.141,0,0,1,1.131.237c2.159.987,4.293,2.025,6.438,3.043,3.254,1.547,6.515,3.082,9.748,4.677q.181.089.358.185c.194.1.364.238.362.479s-.181.346-.368.438c-1.043.514-2.083,1.034-3.131,1.537q-4.507,2.168-9.021,4.321c-1.518.723-3.041,1.436-4.573,2.126a2.442,2.442,0,0,1-2.072-.059c-1.015-.46-2.025-.932-3.034-1.407-1.181-.556-2.366-1.11-3.521-1.722-.052-.027-.1-.051-.153-.081-.286-.169-.294-.305,0-.468.578-.323,1.166-.632,1.753-.94,1.6-.837,3.186-1.705,4.827-2.464a1.364,1.364,0,0,1,.694-.111,2.816,2.816,0,0,0,2.042-.4.887.887,0,0,0-.014-1.564,2.806,2.806,0,0,0-3.014.045,1.006,1.006,0,0,0-.439.829.422.422,0,0,1-.267.408c-.59.323-1.18.646-1.774.962-1.545.819-3.117,1.589-4.642,2.447a1.239,1.239,0,0,0-.583.451c-.076.144-.187.053-.274.015-.754-.339-1.511-.67-2.256-1.027-1.473-.7-2.941-1.421-4.408-2.137-.519-.253-1.032-.516-1.547-.775a.455.455,0,0,1,0-.871c1.443-.7,2.882-1.415,4.328-2.109q4.666-2.239,9.338-4.465c.971-.462,1.952-.906,2.924-1.368A2.207,2.207,0,0,1,229.738,361.265Z" transform="translate(-211.673 -361.255)" fill="#5379f6"/>
          <path id="Trazado_168" data-name="Trazado 168" d="M239.157,373.611c0,.883-.046,1.77.013,2.65a3.009,3.009,0,0,1-.761,2.109,9.762,9.762,0,0,1-3.018,2.46,15.4,15.4,0,0,1-5.11,1.8,15.188,15.188,0,0,1-5.92-.215,18.241,18.241,0,0,1-2.917-.988.377.377,0,0,1-.247-.348q-.391-3.291-.792-6.579a.934.934,0,0,1-.01-.115c0-.1-.056-.235.031-.3.11-.084.214.036.311.082,2.053.965,4.1,1.939,6.155,2.9a2.255,2.255,0,0,0,1.952.013c2.947-1.32,5.846-2.739,8.746-4.159q.6-.291,1.2-.571c.3-.141.325-.127.329.2,0,.356,0,.712,0,1.068Z" transform="translate(-209.874 -358.981)" fill="#5379f6"/>
          <path id="Trazado_169" data-name="Trazado 169" d="M219.56,373.49c.107.036.084.127.093.2.251,1.875.5,3.749.748,5.624.15,1.161.282,2.325.43,3.486.089.7-.021.876-.71,1.02a2.423,2.423,0,0,1-1.308-.045c-.481-.168-.6-.361-.535-.856q.378-2.912.758-5.825c.151-1.142.308-2.283.462-3.423C219.507,373.6,219.5,373.533,219.56,373.49Z" transform="translate(-210.311 -358.727)" fill="#5379f6"/>
          <path id="Trazado_170" data-name="Trazado 170" d="M217.191,374.667c0-.722,0-1.443,0-2.164,0-.335.028-.35.319-.214.331.154.659.317.993.463a.322.322,0,0,1,.208.389q-.279,2.158-.547,4.316c-.03.239-.058.477-.089.716-.008.065-.01.146-.081.174s-.125-.04-.16-.094a2.765,2.765,0,0,1-.65-1.683c.037-.632.008-1.269.008-1.9Z" transform="translate(-210.535 -358.991)" fill="#5379f6"/>
        </g>
      </g>
    </g>
    <g id="Grupo_78" data-name="Grupo 78" transform="translate(2377.76 544.955)">
      <g id="Grupo_77" data-name="Grupo 77" transform="translate(0 0)">
        <path id="Trazado_171" data-name="Trazado 171" d="M222.947,395.424s27.139,34.747-3.824,70.087l-11.642-1.085s22.409-35.981,12.429-64.662l-16.49,1.2-9.119-5.944Z" transform="translate(-163.487 -381.869)" fill="url(#linear-gradient-10)"/>
        <path id="Trazado_172" data-name="Trazado 172" d="M212.763,537.909s-21.988,47.924-33.525,67.774c0,0-2.29,12.49,0,16.417l1.954.869-9.114-.272s-.81-16.8-.177-17.739a2.322,2.322,0,0,1,1.9-.876s3.908-30.96,15.225-37.568l10.967-37.775Z" transform="translate(-168.166 -354.233)" fill="url(#linear-gradient-11)"/>
        <path id="Trazado_173" data-name="Trazado 173" d="M185.682,612.433c.013.219-7.116.119-10.989.048a3.082,3.082,0,0,1-2.954-2.429l-2.925-15.366a2.763,2.763,0,0,1,2.1-3.21l1.633-.374s2.329,3.2,1.6,6.2-1.386,10.8.467,11.707,7.182,1.067,7.182,1.067S185.56,610.454,185.682,612.433Z" transform="translate(-168.764 -341.344)" fill="url(#linear-gradient-12)"/>
        <path id="Trazado_174" data-name="Trazado 174" d="M226.981,610.383a.8.8,0,0,1-.407,1.5c-6.481-.065-21-.27-22.3-.807-1.665-.693.608-6.68,3-8.706l13.211,4.311Z" transform="translate(-161.542 -339.015)" fill="url(#linear-gradient-13)"/>
        <path id="Trazado_175" data-name="Trazado 175" d="M230.47,533.806s-14.209,68.739-18.229,82.149l9.51,5.967s-4.765-.811-8.3-1.067-6.784-4.311-6.784-4.311l1.139-1.817s3.563-68.365,2.7-76.129Z" transform="translate(-160.931 -353.186)" fill="url(#linear-gradient-14)"/>
        <path id="Trazado_176" data-name="Trazado 176" d="M260.865,404.4s1.96,35.757-30.6,54.03l7.839,17.876s29.474-17.827,28.385-66.45a5.651,5.651,0,0,1,1.383-3.808l6.265-7.267a11.244,11.244,0,0,0,2.39-10.072l-.824-3.3a1.708,1.708,0,0,0-2.516-1.063l-.655.38a11.515,11.515,0,0,0-4.723,5.249l-3.076,6.876a6.609,6.609,0,0,1-6.6,3.887l-1.9-.165Z" transform="translate(-156.053 -384.122)" fill="url(#linear-gradient-15)"/>
        <path id="Trazado_177" data-name="Trazado 177" d="M237.274,443.5c-5.446,1.51-23.9,6.364-35.417,6.166l7.072,39.911-.562,6.51,23.06-.1s6.491-15.075,11.613-22.591c1.479-2.171.378-4.76-.461-7.25l1.152-.766a3.137,3.137,0,0,0,1.243-3.585l-5.616-17.181A1.713,1.713,0,0,0,237.274,443.5Z" transform="translate(-161.925 -371.864)" fill="url(#linear-gradient-16)"/>
        <path id="Trazado_178" data-name="Trazado 178" d="M235.135,484.295l-.454,3.943s6.516,19.517-3.258,65.1c0,0-21.171,6-38.57-8.354,0,0,4.909-43.022,6.249-45.026,6.677-9.982,11.126-12.151,11.126-12.151l.2-4.309S229.039,486.861,235.135,484.295Z" transform="translate(-163.786 -363.584)" fill="url(#linear-gradient-17)"/>
        <path id="Trazado_179" data-name="Trazado 179" d="M222.907,448.683c.081-.106-4.813-14.778-4.813-14.778l-7.012.636-2.739,16.645S219.331,453.4,222.907,448.683Z" transform="translate(-160.585 -373.833)" fill="url(#linear-gradient-18)"/>
        <path id="Trazado_180" data-name="Trazado 180" d="M214.457,414.853c.468.291,14.983,6.289,11.864,21.359a2.828,2.828,0,0,1-1.609,2.016,24.6,24.6,0,0,1-12.2,2.019c-7.6-.772-12.587-14.042-12.376-17.9S209.823,411.967,214.457,414.853Z" transform="translate(-162.282 -377.919)" fill="url(#linear-gradient-19)"/>
        <path id="Trazado_181" data-name="Trazado 181" d="M214.7,409.935c.381.049,8.389,2.838,4.418,8.64s-5.46,9.218-3.581,11.765c1.711,2.322,5.5,1,5.171,5.827a2.706,2.706,0,0,0,1.154,2.448c3.572,2.418,12.285,9.86,3.653,20.473a2.7,2.7,0,0,0-.305,3.024c2.529,4.536,7.84,17.823-11.39,25.193-19,7.282-25.861-5.138-27.779-10.1a2.65,2.65,0,0,0-2.621-1.676c-2.089.1-5.048-.249-4.911-3.04a6.972,6.972,0,0,1,2.389-4.431,2.648,2.648,0,0,0-.508-4.169,5.185,5.185,0,0,1-2.562-3.221c-1.152-4.267,1.148-17.026,13.377-19.187a2.888,2.888,0,0,0,2.236-2.162l.007-.046a2.646,2.646,0,0,0-.981-2.6c-1.954-1.432-4.457-4.316-2.423-8.941a10.02,10.02,0,0,1,7.834-5.926,2.664,2.664,0,0,0,2.183-3.184C199.2,414.536,199.951,408,214.7,409.935Z" transform="translate(-166.945 -378.86)" fill="url(#linear-gradient-20)"/>
      </g>
    </g>
    <text id="una_causa_social_nuestro" data-name="una causa social, nuestro" transform="translate(2549.999 515.955)" fill="#fff" font-size="33" font-family="Sansation Regular, Sansation" letter-spacing="-0.04em"><tspan x="0" y="0">una causa social, </tspan><tspan y="0" fill="#09005d">nuestro</tspan></text>
    <text id="propósito_es_acompañarlo" data-name="propósito es acompañarlo" transform="translate(2593.126 545.826)" fill="#09005d" font-size="33" font-family="Sansation Bold, Sansation" letter-spacing="-0.04em"><tspan x="0" y="0">propósito es acompañarlo</tspan></text>
    <g id="Grupo_85" data-name="Grupo 85" transform="translate(2540.773 570.641)">
      <path id="Trazado_184" data-name="Trazado 184" d="M380.644,750.917s-1.625,8.711-2.463,17.341a5.952,5.952,0,0,0,5.632,6.5c11.5.589,36.094,1.755,44.927,1.444a1.935,1.935,0,0,0,1.729-2.635h0a4.33,4.33,0,0,0-2.195-2.357l-40.465-19.068Z" transform="translate(-288.503 -334.001)" fill="url(#linear-gradient-21)"/>
      <path id="Trazado_185" data-name="Trazado 185" d="M379.211,746.917l1.139,10.449s7.088,3.382,11.985-.3L389.5,745.4Z" transform="translate(-288.284 -335.14)" fill="url(#linear-gradient-22)"/>
      <path id="Trazado_186" data-name="Trazado 186" d="M387.086,584.1c-.56,2.721-4.168,135.989,9.51,195.857a2.029,2.029,0,0,1-1.211,2.347,35.287,35.287,0,0,1-11.626,2.247,3.492,3.492,0,0,1-3.44-2.539c-3.941-13.9-22.794-83.52-24.707-149.874-2.138-74.145.024-2.524.024-2.524l2.106-45.8Z" transform="translate(-293.357 -368.537)" fill="url(#linear-gradient-23)"/>
      <path id="Trazado_187" data-name="Trazado 187" d="M342.3,754.32s-2.5,4.381-4.982,16.065a3.631,3.631,0,0,0,3.153,4.378c3.8.41,9.638.946,14.322.959a3.621,3.621,0,0,0,3.622-4.005c-.478-4.278-2.027-11.3-6.969-16.814Z" transform="translate(-296.959 -333.298)" fill="url(#linear-gradient-24)"/>
      <path id="Trazado_188" data-name="Trazado 188" d="M339.756,743.266l2.743,15.812s2.841,2.155,8.516.666l-1.22-17Z" transform="translate(-296.438 -335.689)" fill="url(#linear-gradient-25)"/>
      <path id="Trazado_189" data-name="Trazado 189" d="M335.645,588.162C323.321,658.376,336.513,762,341.1,782.3a3.158,3.158,0,0,0,2.527,2.423,21.214,21.214,0,0,0,9.119-.278,2.894,2.894,0,0,0,2.106-2.646c.8-16.369.6-116.911,11.84-156.538a9.015,9.015,0,0,1,3.528-4.946l21.217-14.781,1.846-24.2Z" transform="translate(-298.347 -369.049)" fill="url(#linear-gradient-26)"/>
      <g id="Grupo_80" data-name="Grupo 80" transform="translate(33.451 33.418)">
        <path id="Trazado_190" data-name="Trazado 190" d="M410.949,478.069c-34.916-.91-73.541,8.468-73.541,8.468-10.988,60.639-3.067,130.777-3.067,130.777,26.967,7.347,57.573-3.785,57.573-3.785,4.736-25.344,26.383-96.591,26.383-96.591,17.082-1.955,31.185-6.744,42.821-13.142-8.732-10.318-12.769-23.381-14.5-31.1C434.231,476.42,421.718,478.351,410.949,478.069Z" transform="translate(-331.58 -424.92)" fill="#ef4041"/>
        <path id="Trazado_191" data-name="Trazado 191" d="M494.888,435.8a6.682,6.682,0,0,0-7.752-2.258c-5.347,21.659-32.46,39-60.224,47.341,1.734,7.715,5.772,20.778,14.5,31.1C487.6,486.588,494.888,435.8,494.888,435.8Z" transform="translate(-311.877 -433.103)" fill="url(#linear-gradient-27)"/>
      </g>
      <g id="Grupo_81" data-name="Grupo 81" transform="translate(208.79)">
        <path id="Trazado_192" data-name="Trazado 192" d="M483.716,442.571c.349,1.144-3.825,2.842-6.228-1.849-.064-2.237-1.333-11.833.021-13.643,7.211-9.637,21.129-21.671,21.129-21.671a3.284,3.284,0,0,1,.367,4.566l-6.762,6.911c1.377,2.545,3.065,4.7,3.836,7.765a9.383,9.383,0,0,1-1,6.9c-1.2,2.107-2.825,4.844-4.361,6.983A9.264,9.264,0,0,1,483.716,442.571Z" transform="translate(-476.887 -405.409)" fill="url(#linear-gradient-28)"/>
        <path id="Trazado_193" data-name="Trazado 193" d="M488.54,418.648l-6.15,5.114-1.965,5.131,5.382,6.086s1.927-10.2,3.307-12.4S489.8,419.307,488.54,418.648Z" transform="translate(-476.155 -402.673)" fill="url(#linear-gradient-29)"/>
      </g>
      <path id="Trazado_194" data-name="Trazado 194" d="M356.07,518.111,343,484.168s-32.83,21.852-38.462,49.9a77.209,77.209,0,0,1,28.283,7.87C335.358,528.694,356.07,518.111,356.07,518.111Z" transform="translate(-303.717 -389.131)" fill="#ef4041"/>
      <path id="Trazado_195" data-name="Trazado 195" d="M384.411,541.653S347.592,562,335.4,544.21a13.887,13.887,0,0,1-2.444-10.818,77.208,77.208,0,0,0-28.283-7.87,38.787,38.787,0,0,0,3.961,26.627c21.268,39.8,80.534-1.42,80.534-1.42Z" transform="translate(-303.858 -380.585)" fill="url(#linear-gradient-30)"/>
      <path id="Trazado_196" data-name="Trazado 196" d="M370.232,453.376,358.815,485.4a1.157,1.157,0,0,0,.514,1.4c3.013,1.7,13.879,6.648,27.109-1.565a5.451,5.451,0,0,0,2.547-3.87l3.864-27.777Z" transform="translate(-292.513 -395.495)" fill="url(#linear-gradient-31)"/>
      <g id="Grupo_82" data-name="Grupo 82" transform="translate(56.744 11.646)">
        <path id="Trazado_197" data-name="Trazado 197" d="M393.428,428.907s11.982,23.085,10.33,32.347-16.768,8.453-29.9.792l-8.991-24.888Z" transform="translate(-347.992 -412.199)" fill="url(#linear-gradient-32)"/>
        <path id="Trazado_198" data-name="Trazado 198" d="M377.447,452.735a.947.947,0,0,0,.427-1.382,24.726,24.726,0,0,1-3.327-7.24s-2.179-1.426,5.613-3.213,19.419-4.565,21.919-11.161c2.437-6.432-3.651-22.719-13.737-9.884a.946.946,0,0,1-1.5,0c-1.612-2.141-5.863-6.593-11.85-3.976-5.6,2.45-6.27,6.531-6.213,8.593a.941.941,0,0,1-1.125.952c-2.814-.565-9.577-1.091-12.8,5.822-2.657,5.693-1,8.946.529,10.544a.944.944,0,0,1-.419,1.564c-1.86.549-4.267,2.1-4.069,6.444.274,6.006,6.99,5.541,8.9,5.285a.952.952,0,0,1,.839.305c1.621,1.829,8.929,9.6,16.912,10.6a.955.955,0,0,0,1.014-1.251L375.2,454.651a.952.952,0,0,1,.526-1.174Z" transform="translate(-350.882 -415.06)" fill="url(#linear-gradient-33)"/>
        <path id="Trazado_199" data-name="Trazado 199" d="M375.64,447.992s-8.631-6.043-9.314-1.03,7.754,7.346,11.962,5.514Z" transform="translate(-347.699 -408.878)" fill="url(#linear-gradient-34)"/>
      </g>
      <g id="Grupo_84" data-name="Grupo 84" transform="translate(72.948 117.362)">
        <g id="Grupo_83" data-name="Grupo 83">
          <path id="Trazado_200" data-name="Trazado 200" d="M364.392,578.534l20.057-70.045a2.043,2.043,0,0,1,1.727-1.47c3.635-.425,14.165-1.615,26.322-2.644,14.644-1.238,31.651-2.242,41.814-1.388a2.049,2.049,0,0,1,1.676,2.949c-5.78,11.691-29.552,59.251-41.455,74.831a2.055,2.055,0,0,1-1.654.812l-46.535-.433A2.049,2.049,0,0,1,364.392,578.534Z" transform="translate(-364.311 -502.669)" fill="url(#linear-gradient-35)"/>
          <path id="Trazado_201" data-name="Trazado 201" d="M368.725,555.605s-2.795-11.489-1.666-15.564,3.31-9.317,10.589-8.152a106.477,106.477,0,0,1,15.864,4.231s-.433,5.309-5.966,3.6l3.431,2.655s-.49,4.251-5.162,1.98l3.19,3.52s-2.007,3.491-5.445,1.251S378.474,556.989,368.725,555.605Z" transform="translate(-363.799 -496.664)" fill="url(#linear-gradient-36)"/>
        </g>
        <path id="Trazado_202" data-name="Trazado 202" d="M403.137,522.421a5.887,5.887,0,1,0,5.887-5.889A5.887,5.887,0,0,0,403.137,522.421Z" transform="translate(-356.287 -499.804)" fill="#91b3fa"/>
        <path id="Trazado_203" data-name="Trazado 203" d="M383.138,528.395l-1.5-.443L385.72,514.1a6.309,6.309,0,0,1,4.752-4.421c12.943-2.7,47.034-3.253,48.478-3.276l.024,1.565c-.352,0-35.386.572-48.184,3.242a4.752,4.752,0,0,0-3.571,3.333Z" transform="translate(-360.731 -501.898)" fill="#91b3fa"/>
      </g>
    </g>
  </g>
</svg>
