<?xml version="1.0" encoding="utf-8"?>
<!-- Generator: Adobe Illustrator 25.2.1, SVG Export Plug-In . SVG Version: 6.00 Build 0)  -->
<svg version="1.1" id="Capa_1" xmlns="http://www.w3.org/2000/svg" xmlns:xlink="http://www.w3.org/1999/xlink" x="0px" y="0px"
	 viewBox="0 0 689.4 745.6" style="enable-background:new 0 0 689.4 745.6;" xml:space="preserve">
<style type="text/css">
	.st0{fill:none;stroke:#FDD2B2;stroke-width:4;stroke-linecap:round;stroke-miterlimit:10;}
	.st1{fill:none;stroke:#FDD2B2;stroke-width:4;stroke-linecap:round;stroke-miterlimit:10;stroke-dasharray:16.9882,16.9882;}
	.st2{fill:#EF4041;}
	.st3{fill:url(#SVGID_1_);}
	.st4{fill:#BDD0FB;}
	.st5{fill:url(#SVGID_2_);}
	.st6{fill:#91B3FA;}
	.st7{fill:#7D97F4;}
	.st8{fill:url(#SVGID_3_);}
	.st9{filter:url(#Adobe_OpacityMaskFilter);}
	.st10{filter:url(#Adobe_OpacityMaskFilter_1_);}
	.st11{mask:url(#SVGID_4_);fill:url(#SVGID_5_);}
	.st12{opacity:0.53;fill:url(#SVGID_6_);}
	.st13{fill:url(#SVGID_7_);}
	.st14{fill:url(#SVGID_8_);}
	.st15{fill:url(#SVGID_9_);}
	.st16{fill:url(#SVGID_10_);}
	.st17{fill:url(#SVGID_11_);}
	.st18{fill:url(#SVGID_12_);}
	.st19{fill:url(#SVGID_13_);}
	.st20{opacity:0.78;fill:#FFFFFF;}
	.st21{fill:url(#SVGID_14_);}
	.st22{fill:url(#SVGID_15_);}
	.st23{fill:url(#SVGID_16_);}
	.st24{fill:#FFFFFF;}
	.st25{fill:url(#SVGID_17_);}
	.st26{fill:url(#SVGID_18_);}
	.st27{fill:url(#SVGID_19_);}
	.st28{fill:url(#SVGID_20_);}
	.st29{fill:url(#SVGID_21_);}
	.st30{fill:url(#SVGID_22_);}
	.st31{fill:url(#SVGID_23_);}
	.st32{fill:url(#SVGID_24_);}
	.st33{fill:url(#SVGID_25_);}
	.st34{fill:url(#SVGID_26_);}
	.st35{fill:url(#SVGID_27_);}
	.st36{fill:url(#SVGID_28_);}
	.st37{fill:url(#SVGID_29_);}
	.st38{fill:url(#SVGID_30_);}
	.st39{fill:url(#SVGID_31_);}
	.st40{fill:url(#SVGID_32_);}
	.st41{fill:url(#SVGID_33_);}
	.st42{fill:url(#SVGID_34_);}
	.st43{fill:url(#SVGID_35_);}
</style>
<g>
	<g>
		<g>
			<path class="st0" d="M209.5,54.5c2.6-1.2,5.1-2.3,7.8-3.4"/>
			<path class="st1" d="M233.1,45c18.9-6.5,39.4-11.2,61.7-13c80.9-6.7,173.2,21,237.6,85.2c135.2,134.7,110.8,390.4,9.2,492.2
				c-13.4,13.4-25.9,21.9-35.7,28.6c-115.6,78.5-245.5,46.5-273,38.9C192.2,665.7,113.6,644,60,568.8C-21,455,2.1,284.1,76,174.5
				c7.4-10.9,32-49,74.5-83.1"/>
			<path class="st0" d="M157.2,86.1c2.2-1.7,4.5-3.4,6.8-5"/>
		</g>
	</g>
	<path class="st2" d="M604.4,609.3c-13.5,14.2-26.2,23.3-36.2,30.5c-118.2,84.8-258.1,60.1-287.8,54.1
		c-43.9-8.9-128.7-26.1-190.1-98.3C-2.5,486.4,12,314.5,84,201c13.2-20.8,82.7-136,224.1-154.5c85.6-11.2,185.3,11.4,257.5,71.9
		C717.2,245.4,706.4,502,604.4,609.3z"/>
	<g>
		<g>
			<linearGradient id="SVGID_1_" gradientUnits="userSpaceOnUse" x1="431.2667" y1="424.8931" x2="548.7253" y2="424.8931">
				<stop  offset="0" style="stop-color:#4F52FF"/>
				<stop  offset="1" style="stop-color:#4042E2"/>
			</linearGradient>
			<path class="st3" d="M464.8,278.6l46-10.7c0,0,30.8-2.8,35,24.6c4.2,27.4,3,189.5,1.7,222.9c-0.4,11-0.4,21.2,0.6,30.1
				c2,18.5-12.5,34.6-31.1,35l-85.7,1.5L464.8,278.6z"/>
			<g>
				<path class="st4" d="M440.4,595.1c0,0,9.2-129,74.6-207.6c0.9-1,2.3-0.8,2.8,0.5C524.9,407.9,565,536,440.4,595.1z"/>
				<linearGradient id="SVGID_2_" gradientUnits="userSpaceOnUse" x1="442.9117" y1="506.782" x2="512.1548" y2="506.782">
					<stop  offset="0" style="stop-color:#DAE3FE"/>
					<stop  offset="1" style="stop-color:#E9EFFD"/>
				</linearGradient>
				<path class="st5" d="M512.2,425c-0.6,7.5-1.6,15-2.9,22.4c-1.3,7.4-2.8,14.8-4.6,22.1c-3.6,14.6-8.1,29-13.6,43
					c-2.8,7-5.8,13.9-9.1,20.7c-1.6,3.4-3.4,6.7-5.1,10.1c-1.8,3.3-3.6,6.6-5.6,9.8c-7.7,13-16.6,25.2-26.9,36.2
					c-0.3,0.3-0.8,0.3-1.1,0c-0.3-0.3-0.3-0.8-0.1-1.1l0,0c9.1-11.8,17.3-24.2,24.4-37.3c1.8-3.2,3.5-6.6,5.2-9.8
					c1.6-3.3,3.3-6.6,4.8-10c0.8-1.7,1.6-3.4,2.3-5.1l2.2-5.1c0.7-1.7,1.4-3.4,2.1-5.1c0.7-1.7,1.4-3.4,2.1-5.2
					c1.4-3.4,2.7-6.9,4-10.4c1.2-3.5,2.5-7,3.6-10.5c2.4-7,4.5-14.2,6.6-21.3c2-7.2,3.9-14.4,5.5-21.6c1.7-7.2,3.2-14.6,4.5-21.9
					l0,0c0.1-0.4,0.5-0.7,0.9-0.7C511.9,424.2,512.2,424.5,512.2,425z"/>
			</g>
			<g>
				<path class="st6" d="M449,582.8c0,0,62.3-104.8,130.1-106.5c1.2,0,2.1,1.1,1.9,2.3C578.2,492.2,558,564,449,582.8z"/>
				<path class="st4" d="M564.8,492.9c-4.1,4.3-8.3,8.5-12.6,12.6c-2.2,2-4.3,4.1-6.5,6.1c-2.2,2-4.4,4-6.6,6
					c-8.9,7.9-18.1,15.4-27.5,22.6c-4.7,3.7-9.5,7.1-14.3,10.6l-7.3,5.1c-1.2,0.8-2.4,1.7-3.7,2.5l-3.7,2.4
					c-9.9,6.6-20.2,12.6-30.5,18.4c-0.4,0.2-0.8,0.1-1-0.3c-0.2-0.4-0.1-0.8,0.3-1l0,0l7.7-4.5l3.8-2.2c1.3-0.8,2.5-1.6,3.8-2.4
					l7.5-4.7c2.5-1.6,4.9-3.3,7.4-4.9l3.7-2.5l3.6-2.5l7.3-5.1c4.7-3.5,9.6-7,14.2-10.6c4.7-3.6,9.3-7.3,13.9-11l6.8-5.7l6.7-5.8
					c2.2-1.9,4.4-3.9,6.7-5.9c2.2-2,4.4-4,6.6-6c4.3-4,8.7-8.1,12.8-12.3l0,0c0.3-0.3,0.8-0.3,1.1,0
					C565.1,492.1,565.1,492.6,564.8,492.9z"/>
			</g>
			<path class="st7" d="M371.2,280.9c0,0,83.8,4.6,139.7-12.9c0,0-37.1-2.5-37.1,83.1c0,65.5,9.7,190.5,1.2,214.2
				c-8.5,23.7-40.2,55.6-85.7,28.2C343.9,566.1,371.2,280.9,371.2,280.9z"/>
			<linearGradient id="SVGID_3_" gradientUnits="userSpaceOnUse" x1="448.1352" y1="272.8965" x2="293.3709" y2="-48.8049">
				<stop  offset="0" style="stop-color:#4042E2"/>
				<stop  offset="1" style="stop-color:#4F52FF"/>
			</linearGradient>
			<path class="st8" d="M357.1,186.7c0,0,85.5,9.3,96.5-5.2c0,0-8.8-26.1-34.8-24.3S357.1,186.7,357.1,186.7z"/>
			<path class="st6" d="M79,216c7.5,83.8,23.1,261,29.9,347.3c1.5,19.2,16.9,34.4,36.2,35.7c68.6,4.4,223.1,13,282.3,5h0
				c-13.6-6.7-22.1-20.6-22-35.7l3.1-387.4c0.1-13.7,13.7-23.5,26.6-18.7c8.1,3,14.2,9.5,18.4,19.3c-5.6-16.3-14.4-28.2-34.8-24.3
				c0,0-199.3,2-296.1,8C96.4,166.8,76.7,189.8,79,216z"/>
			<defs>
				<filter id="Adobe_OpacityMaskFilter" filterUnits="userSpaceOnUse" x="86.6" y="165.9" width="322.2" height="435.5">
					<feFlood  style="flood-color:white;flood-opacity:1" result="back"/>
					<feBlend  in="SourceGraphic" in2="back" mode="normal"/>
				</filter>
			</defs>
			<mask maskUnits="userSpaceOnUse" x="86.6" y="165.9" width="322.2" height="435.5" id="SVGID_4_">
				<g class="st9">
					<defs>
						<filter id="Adobe_OpacityMaskFilter_1_" filterUnits="userSpaceOnUse" x="86.6" y="165.9" width="322.2" height="435.5">
							<feFlood  style="flood-color:white;flood-opacity:1" result="back"/>
							<feBlend  in="SourceGraphic" in2="back" mode="normal"/>
						</filter>
					</defs>
					<mask maskUnits="userSpaceOnUse" x="86.6" y="165.9" width="322.2" height="435.5" id="SVGID_4_">
						<g class="st10">
						</g>
					</mask>
					<linearGradient id="SVGID_5_" gradientUnits="userSpaceOnUse" x1="368.8037" y1="248.0543" x2="-43.6669" y2="775.8901">
						<stop  offset="0" style="stop-color:#FFFFFF"/>
						<stop  offset="1" style="stop-color:#000000"/>
					</linearGradient>
					<path class="st11" d="M128.3,176.2l267.9-10.3c-11,81.8-6.4,248.4-2.2,412.5c0.2,9.7,6,18.5,14.8,22.6l0,0
						c0,0-178.7,2.1-255.4-3.4c-18.1-1.3-32.8-15-35.5-32.9c-10.5-70.3-35.8-252-30.5-348.2C88.5,194.6,106.3,177.1,128.3,176.2z"/>
				</g>
			</mask>
			<linearGradient id="SVGID_6_" gradientUnits="userSpaceOnUse" x1="368.8037" y1="248.0543" x2="-43.6669" y2="775.8901">
				<stop  offset="0" style="stop-color:#FFFFFF"/>
				<stop  offset="1" style="stop-color:#FFFFFF"/>
			</linearGradient>
			<path class="st12" d="M128.3,176.2l267.9-10.3c-11,81.8-6.4,248.4-2.2,412.5c0.2,9.7,6,18.5,14.8,22.6l0,0
				c0,0-178.7,2.1-255.4-3.4c-18.1-1.3-32.8-15-35.5-32.9c-10.5-70.3-35.8-252-30.5-348.2C88.5,194.6,106.3,177.1,128.3,176.2z"/>
			<g>
				<linearGradient id="SVGID_7_" gradientUnits="userSpaceOnUse" x1="124.7096" y1="316.4259" x2="167.5331" y2="316.4259">
					<stop  offset="0" style="stop-color:#DAE3FE"/>
					<stop  offset="1" style="stop-color:#E9EFFD"/>
				</linearGradient>
				<path class="st13" d="M124.8,303.1l3.1,30c0.6,5.5,5.1,9.7,10.6,10l17.5,0.7c6.3,0.2,11.5-4.8,11.5-11.1v-32.4
					c0-6.5-5.5-11.6-12-11.1l-20.6,1.7C128.7,291.4,124.1,296.9,124.8,303.1z"/>
				<linearGradient id="SVGID_8_" gradientUnits="userSpaceOnUse" x1="180.1052" y1="297.8139" x2="361.5626" y2="297.8139">
					<stop  offset="0" style="stop-color:#DAE3FE"/>
					<stop  offset="1" style="stop-color:#E9EFFD"/>
				</linearGradient>
				<path class="st14" d="M186.2,293.8c29.1-0.9,140.7-4.5,168.9-5.4c3.6-0.1,6.5,2.7,6.5,6.3l0,0c0,3.4-2.7,6.2-6.1,6.3l-168.8,6.3
					c-3.3,0.1-6.1-2.3-6.5-5.5l-0.1-0.8C179.7,297.3,182.5,294,186.2,293.8z"/>
				<linearGradient id="SVGID_9_" gradientUnits="userSpaceOnUse" x1="183.4317" y1="326.9439" x2="305.2307" y2="326.9439">
					<stop  offset="0" style="stop-color:#DAE3FE"/>
					<stop  offset="1" style="stop-color:#E9EFFD"/>
				</linearGradient>
				<path class="st15" d="M184.4,333.4L184.4,333.4c0.5,0.8,1.4,1.3,2.4,1.3l115.9-2.5c1.5,0,2.6-1.2,2.6-2.7v-7.6
					c0-1.5-1.3-2.7-2.8-2.7l-112.6,4.2C184.8,323.6,181.8,329.1,184.4,333.4z"/>
			</g>
			<g id="_x38_PFTwF_4_">
				<g>
					<linearGradient id="SVGID_10_" gradientUnits="userSpaceOnUse" x1="133.5621" y1="314.4663" x2="161.8863" y2="314.4663">
						<stop  offset="0" style="stop-color:#4F52FF"/>
						<stop  offset="1" style="stop-color:#4042E2"/>
					</linearGradient>
					<path class="st16" d="M143.6,319.2c-0.4-0.3-0.7-0.6-1-0.9c-1.4-1.5-2.8-3-4.3-4.5c-0.5-0.5-1.1-0.6-1.6-0.2
						c-0.9,0.6-1.7,1.2-2.6,1.8c-0.3,0.2-0.5,0.5-0.5,0.9c0,0.5,0.2,0.8,0.5,1.1c2,2.1,3.9,4.2,5.9,6.3c1,1,2,2.1,2.9,3.1
						c0.4,0.4,0.7,0.4,1.1,0c0.1-0.1,0.1-0.1,0.2-0.2c1-1.3,2.1-2.7,3.1-4c3.3-4.3,6.6-8.6,9.8-12.9c1.5-2,2.8-4.1,4.2-6.1
						c0.2-0.4,0.4-0.8,0.6-1.2c0.1-0.4-0.1-0.7-0.5-0.6c-0.2,0-0.4,0.1-0.6,0.2c-0.3,0.2-0.7,0.4-1,0.7c-1.1,1.1-2.3,2.1-3.4,3.2
						c-3.6,3.8-7.2,7.6-10.9,11.4C144.9,317.9,144.2,318.6,143.6,319.2z"/>
					<linearGradient id="SVGID_11_" gradientUnits="userSpaceOnUse" x1="133.5621" y1="314.4663" x2="161.8863" y2="314.4663">
						<stop  offset="0" style="stop-color:#4F52FF"/>
						<stop  offset="1" style="stop-color:#4042E2"/>
					</linearGradient>
					<path class="st17" d="M143.6,319.2c0.7-0.7,1.4-1.3,2-2c3.6-3.8,7.2-7.6,10.9-11.4c1.1-1.1,2.2-2.2,3.4-3.2
						c0.3-0.3,0.6-0.5,1-0.7c0.2-0.1,0.4-0.2,0.6-0.2c0.4,0,0.6,0.2,0.5,0.6c-0.2,0.4-0.3,0.8-0.6,1.2c-1.4,2.1-2.7,4.1-4.2,6.1
						c-3.2,4.3-6.5,8.6-9.8,12.9c-1,1.3-2.1,2.7-3.1,4c-0.1,0.1-0.1,0.1-0.2,0.2c-0.4,0.4-0.7,0.5-1.1,0c-1-1-2-2.1-2.9-3.1
						c-2-2.1-3.9-4.2-5.9-6.3c-0.3-0.3-0.5-0.7-0.5-1.1c0-0.4,0.2-0.6,0.5-0.9c0.9-0.6,1.7-1.2,2.6-1.8c0.5-0.4,1.2-0.3,1.6,0.2
						c1.4,1.5,2.8,3,4.3,4.5C142.9,318.6,143.2,318.9,143.6,319.2z"/>
				</g>
			</g>
			<g>
				<linearGradient id="SVGID_12_" gradientUnits="userSpaceOnUse" x1="124.7096" y1="399.6984" x2="167.5331" y2="399.6984">
					<stop  offset="0" style="stop-color:#DAE3FE"/>
					<stop  offset="1" style="stop-color:#E9EFFD"/>
				</linearGradient>
				<path class="st18" d="M124.8,386.4l3.1,30c0.6,5.5,5.1,9.7,10.6,10L156,427c6.3,0.2,11.5-4.8,11.5-11.1v-32.4
					c0-6.5-5.5-11.6-12-11.1l-20.6,1.7C128.7,374.6,124.1,380.2,124.8,386.4z"/>
				<linearGradient id="SVGID_13_" gradientUnits="userSpaceOnUse" x1="180.1052" y1="381.0864" x2="361.5626" y2="381.0864">
					<stop  offset="0" style="stop-color:#DAE3FE"/>
					<stop  offset="1" style="stop-color:#E9EFFD"/>
				</linearGradient>
				<path class="st19" d="M186.2,377.1c29.1-0.9,140.7-4.5,168.9-5.4c3.6-0.1,6.5,2.7,6.5,6.3v0c0,3.4-2.7,6.2-6.1,6.3l-168.8,6.3
					c-3.3,0.1-6.1-2.3-6.5-5.5l-0.1-0.8C179.7,380.5,182.5,377.2,186.2,377.1z"/>
				<path class="st20" d="M184.4,416.7L184.4,416.7c0.5,0.8,1.4,1.3,2.4,1.3l115.9-2.5c1.5,0,2.6-1.2,2.6-2.7v-7.6
					c0-1.5-1.3-2.7-2.8-2.7l-112.6,4.2C184.8,406.9,181.8,412.4,184.4,416.7z"/>
			</g>
			<g>
				<linearGradient id="SVGID_14_" gradientUnits="userSpaceOnUse" x1="124.7096" y1="482.9708" x2="167.5331" y2="482.9708">
					<stop  offset="0" style="stop-color:#DAE3FE"/>
					<stop  offset="1" style="stop-color:#E9EFFD"/>
				</linearGradient>
				<path class="st21" d="M124.8,469.6l3.1,30c0.6,5.5,5.1,9.7,10.6,10l17.5,0.7c6.3,0.2,11.5-4.8,11.5-11.1v-32.4
					c0-6.5-5.5-11.6-12-11.1l-20.6,1.7C128.7,457.9,124.1,463.4,124.8,469.6z"/>
				<linearGradient id="SVGID_15_" gradientUnits="userSpaceOnUse" x1="180.1052" y1="464.3589" x2="361.5626" y2="464.3589">
					<stop  offset="0" style="stop-color:#DAE3FE"/>
					<stop  offset="1" style="stop-color:#E9EFFD"/>
				</linearGradient>
				<path class="st22" d="M186.2,460.4c29.1-0.9,140.7-4.5,168.9-5.4c3.6-0.1,6.5,2.7,6.5,6.3l0,0c0,3.4-2.7,6.2-6.1,6.3l-168.8,6.3
					c-3.3,0.1-6.1-2.3-6.5-5.5l-0.1-0.8C179.7,463.8,182.5,460.5,186.2,460.4z"/>
				<linearGradient id="SVGID_16_" gradientUnits="userSpaceOnUse" x1="183.4317" y1="493.4889" x2="305.2307" y2="493.4889">
					<stop  offset="0" style="stop-color:#DAE3FE"/>
					<stop  offset="1" style="stop-color:#E9EFFD"/>
				</linearGradient>
				<path class="st23" d="M184.4,499.9L184.4,499.9c0.5,0.8,1.4,1.3,2.4,1.3l115.9-2.5c1.5,0,2.6-1.2,2.6-2.7v-7.6
					c0-1.5-1.3-2.7-2.8-2.7l-112.6,4.2C184.8,490.1,181.8,495.6,184.4,499.9z"/>
			</g>
			<path class="st24" d="M462.4,478.4c-0.7,0-1.3-0.6-1.3-1.3c0,0-0.1-4.1-0.5-18.2c0-0.7,0.5-1.3,1.3-1.3c0.7,0,1.3,0.5,1.3,1.3
				c0.4,14.1,0.5,18.2,0.5,18.3C463.7,477.8,463.1,478.4,462.4,478.4C462.4,478.4,462.4,478.4,462.4,478.4z"/>
			<path class="st24" d="M461.9,430.9c-0.8,0-1.4-0.6-1.4-1.4c-0.3-9.9-0.8-20.9-1.3-32.5c-0.7-15.7-1.4-31.9-1.7-47.5
				c-1-41.2,5.8-57.1,11.7-63.1c3.2-3.3,5.9-3.4,6.2-3.4c0.8,0,1.4,0.6,1.4,1.4c0,0.8-0.6,1.4-1.4,1.4c-0.3,0-16.5,1.8-15.1,63.5
				c0.4,15.6,1.1,31.8,1.7,47.5c0.5,11.6,1,22.6,1.3,32.5C463.3,430.3,462.7,430.9,461.9,430.9C461.9,430.9,461.9,430.9,461.9,430.9
				z"/>
			<path class="st20" d="M352.3,256.3l-213.4,6.3c-7.7,0.2-14.1-5.7-14.5-13.4l-0.8-16c-0.4-7.9,5.8-14.6,13.7-14.8l214.5-5.7
				c8-0.2,14.6,6.3,14.4,14.3l-0.3,15.3C365.8,250,359.8,256.1,352.3,256.3z"/>
		</g>
	</g>
	<g>
		<g>
			<rect x="360.8" y="558.1" class="st7" width="7.8" height="84.6"/>
			<path class="st7" d="M399,644.3h-68.6l0,0c0-2.8,2.3-5.1,5.1-5.1h58.4C396.7,639.2,399,641.5,399,644.3L399,644.3z"/>
			<path class="st7" d="M409.2,555.1c0,4.6-3.8,8.4-8.4,8.4h-69.4c-4.6,0-8.4-3.8-8.4-8.4v-7.6c0-4.6,3.8-8.4,8.4-8.4h69.4
				c4.6,0,8.4,3.8,8.4,8.4V555.1z"/>
		</g>
		<g>
			<linearGradient id="SVGID_17_" gradientUnits="userSpaceOnUse" x1="220.9202" y1="894.5288" x2="320.1924" y2="497.4388">
				<stop  offset="0" style="stop-color:#FEBBBA"/>
				<stop  offset="1" style="stop-color:#FF928E"/>
			</linearGradient>
			<path class="st25" d="M307,501.6c0,0-11.6,1.8-24.7,10.5c-2.1,1.4-3.2,3.8-2.9,6.2c1.6,12.4,8,52.5,29.2,91.8
				c1.1,2.1,1.4,4.5,0.9,6.8l-3.7,17.2l-6.8,6.4h17.6l11.7-31.7l-5-1.6c-3.9-1.2-6.6-4.8-6.6-8.9l-0.6-34.1
				c0.5-15.2-9.3-25.6-9.3-25.6l28.1-1.4L307,501.6z"/>
			<linearGradient id="SVGID_18_" gradientUnits="userSpaceOnUse" x1="445.5474" y1="408.0505" x2="351.174" y2="566.9321">
				<stop  offset="0" style="stop-color:#09005D"/>
				<stop  offset="1" style="stop-color:#1A0F91"/>
			</linearGradient>
			<path class="st26" d="M292.2,643.6c-1.6,2.1,17.3,4.9,26.8,0.3c0,0,13.2-23,13.2-34.8c0,0-1-2.4-8.8-1.9c0,0-4.4,27.2-9.1,30.3
				c-4.7,3.1-13.1,0.3-13.1,0.3S294.5,640.5,292.2,643.6z"/>
			<linearGradient id="SVGID_19_" gradientUnits="userSpaceOnUse" x1="269.158" y1="643.379" x2="289.0124" y2="347.2162">
				<stop  offset="0" style="stop-color:#FEBBBA"/>
				<stop  offset="1" style="stop-color:#FF928E"/>
			</linearGradient>
			<path class="st27" d="M331.4,539.1c-0.1-0.3-30.3-3.6-30.3-3.6s1,9.2-2.1,21.8c-3.1,12.6-47.3,67.3-47.3,67.3l4.6,14.7
				c-14.3,5-28.5,5.8-42.3,2.5l28.8-17.3c0,0,26.9-91.7,43.4-108.1l30.2-10.5L331.4,539.1z"/>
			<linearGradient id="SVGID_20_" gradientUnits="userSpaceOnUse" x1="286.4514" y1="513.5954" x2="418.0136" y2="513.5954">
				<stop  offset="0" style="stop-color:#09005D"/>
				<stop  offset="1" style="stop-color:#1A0F91"/>
			</linearGradient>
			<path class="st28" d="M399,485.7c0,0,17.4,25.8,18.8,37.6c1.4,11.8-4.8,16.6-23,17.4c-18.2,0.8-66.9,0.8-66.9,0.8L286.5,506
				c0,0,30.3-10.8,38.1-13.8C332.4,489.1,399,485.7,399,485.7z"/>
			<linearGradient id="SVGID_21_" gradientUnits="userSpaceOnUse" x1="391.6422" y1="376.0316" x2="297.2812" y2="534.8923">
				<stop  offset="0" style="stop-color:#09005D"/>
				<stop  offset="1" style="stop-color:#1A0F91"/>
			</linearGradient>
			<path class="st29" d="M254.6,634.3c0,0,5,4.8,1.6,10.2c0,0-39.6,7-50.3,3.8c0,0,2.2-5.1,14.3-10.9l-0.9,0.7
				c-1.1,0.9-0.5,2.7,1,2.6C228.2,640.3,244.7,638.8,254.6,634.3z"/>
		</g>
		<g>
			<linearGradient id="SVGID_22_" gradientUnits="userSpaceOnUse" x1="379.1232" y1="293.8562" x2="359.7509" y2="395.6294">
				<stop  offset="0" style="stop-color:#09005D"/>
				<stop  offset="1" style="stop-color:#1A0F91"/>
			</linearGradient>
			<path class="st30" d="M323.8,321.9c35.5-6,52.2,22.9,51,29c-0.2,0.8,0.6,1.5,1.4,1.3c4.1-1.1,13.1-2.5,18.7,4.5
				c4.9,6.2,1.2,12-1.8,15.2c-0.7,0.8-0.1,2,0.9,1.9c7.5-0.9,23.8-1.2,26.4,14.1c2.5,14.2-7.4,18.2-13.3,19.4c-1,0.2-1.2,1.5-0.4,2
				c2.9,1.9,6.3,5.7,5,13.3c-2.1,11.9-25.4,10.9-28.2,10.8c-0.2,0-0.3-0.1-0.5-0.1l-37.3-21.3c-0.3-0.2-0.5-0.5-0.5-0.8l-7.5-43.5
				c-0.1-0.4,0-0.7,0.3-1l-24.3-34.3C304.9,331,323.4,322,323.8,321.9z"/>
			<linearGradient id="SVGID_23_" gradientUnits="userSpaceOnUse" x1="287.1573" y1="623.3572" x2="361.2223" y2="457.308">
				<stop  offset="0" style="stop-color:#4F52FF"/>
				<stop  offset="1" style="stop-color:#4042E2"/>
			</linearGradient>
			<path class="st31" d="M352.1,482.3c0,0-20.2-19.3-30.2-32c-5.4-6.9-7.1-16-4.6-24.4c4.5-15.3,12.6-31.2,13.4-33.6
				c1.1-3.8,23.8-3.6,23.8-3.6s44.6,29,62.2,78l-19.7,6.1c0,0-11.7-19.5-23.2-32c0,0,19.9,26.3,20.6,37.1L352.1,482.3z"/>
			<linearGradient id="SVGID_24_" gradientUnits="userSpaceOnUse" x1="347.0647" y1="421.1865" x2="339.1374" y2="370.3202">
				<stop  offset="0" style="stop-color:#FEBBBA"/>
				<stop  offset="1" style="stop-color:#FF928E"/>
			</linearGradient>
			<path class="st32" d="M327.9,371.1c0.2,0.8,6.2,20.4,6.6,20.8c0.5,0.4,13,1.1,18.9-2.9l-14.6-28.6L327.9,371.1z"/>
			<g>
				
					<linearGradient id="SVGID_25_" gradientUnits="userSpaceOnUse" x1="-1803.927" y1="4126.6377" x2="-1752.0394" y2="4161.8818" gradientTransform="matrix(0.6042 -0.7968 0.7968 0.6042 -1894.2074 -3563.4172)">
					<stop  offset="0" style="stop-color:#FEBBBA"/>
					<stop  offset="1" style="stop-color:#FF928E"/>
				</linearGradient>
				<path class="st33" d="M304.2,345.9c0,0-2.9,11.2,5.1,26.4c7.9,15.1,16.9,15.1,21.8,10.3c4.9-4.8,10.9-13,9.5-27.7
					C339.1,340.3,308.3,331.6,304.2,345.9z"/>
				
					<linearGradient id="SVGID_26_" gradientUnits="userSpaceOnUse" x1="-1769.3143" y1="4084.4817" x2="-1788.6868" y2="4186.2559" gradientTransform="matrix(0.6042 -0.7968 0.7968 0.6042 -1894.2074 -3563.4172)">
					<stop  offset="0" style="stop-color:#09005D"/>
					<stop  offset="1" style="stop-color:#1A0F91"/>
				</linearGradient>
				<path class="st34" d="M329.6,355.7c0,0-13.1-20.1-25.4-4.3l-0.2,5.7c0,0-14.4-1.7-11.9-14.9c2.5-13.2,15-21.5,31-15.8
					c16,5.7,25.2,11.6,26.3,23.1c1,11.5-8.1,9-8.1,9s-3-8.1-7.2-8.9c-4.2-0.8-3.1,5.5-3.1,5.5L329.6,355.7z"/>
				
					<linearGradient id="SVGID_27_" gradientUnits="userSpaceOnUse" x1="-1800.8167" y1="4122.0586" x2="-1748.9293" y2="4157.3027" gradientTransform="matrix(0.6042 -0.7968 0.7968 0.6042 -1894.2074 -3563.4172)">
					<stop  offset="0" style="stop-color:#FEBBBA"/>
					<stop  offset="1" style="stop-color:#FF928E"/>
				</linearGradient>
				<path class="st35" d="M332.9,355.4c0,0-6.8-10.3,0.2-11.8c7-1.5,5.9,10,5.1,14.3L332.9,355.4z"/>
			</g>
			<linearGradient id="SVGID_28_" gradientUnits="userSpaceOnUse" x1="379.6168" y1="478.9417" x2="489.9338" y2="478.9417">
				<stop  offset="0" style="stop-color:#FEBBBA"/>
				<stop  offset="1" style="stop-color:#FF928E"/>
			</linearGradient>
			<path class="st36" d="M310.9,483.7l14.9-14.3l20.6,8.7c0,0,20.5,3.2,32.2,0c11.7-3.2,11.7-3.2,11.7-3.2l26.5-8.2l4.2,11.7
				c1.1,3,0,6.3-2.6,8.1c-2.3,1.6-5,3.4-6.7,4.2c-3.5,1.5-85.9-1.1-85.9-1.1L310.9,483.7z"/>
		</g>
		<g>
			
				<linearGradient id="SVGID_29_" gradientUnits="userSpaceOnUse" x1="321.7567" y1="615.6198" x2="252.3112" y2="634.653" gradientTransform="matrix(0.9988 -4.940000e-02 4.940000e-02 0.9988 29.9298 -131.4052)">
				<stop  offset="0" style="stop-color:#09005D"/>
				<stop  offset="1" style="stop-color:#1A0F91"/>
			</linearGradient>
			<path class="st37" d="M367.1,490.5c-0.1,0-0.1,0-0.2,0l-86.2-0.1c-2.1,0-3.9-1.7-3.9-3.9c0-2.1,1.7-3.9,3.9-3.9l86.2,0.1
				c2.1,0,3.9,1.7,3.9,3.9C370.8,488.7,369.1,490.4,367.1,490.5z"/>
			<linearGradient id="SVGID_30_" gradientUnits="userSpaceOnUse" x1="287.7209" y1="422.7187" x2="238.4462" y2="474.799">
				<stop  offset="0" style="stop-color:#09005D"/>
				<stop  offset="1" style="stop-color:#1A0F91"/>
			</linearGradient>
			<path class="st38" d="M203.2,412.2H275c5.3,0,10.1,3.1,12.4,7.8l33.2,70.4h-89.2c-3.4,0-6.5-2.1-7.7-5.3l-25.7-65.1
				C196.4,416.3,199.2,412.2,203.2,412.2z"/>
			<path class="st7" d="M253.8,448.3c1.6,4.8,0.4,9.5-2.6,10.5c-3,1-6.6-2.2-8.2-7c-1.6-4.8-0.4-9.5,2.6-10.5
				C248.6,440.3,252.2,443.5,253.8,448.3z"/>
		</g>
	</g>
	<g>
		<linearGradient id="SVGID_31_" gradientUnits="userSpaceOnUse" x1="40.7377" y1="970.4894" x2="172.2868" y2="501.3794">
			<stop  offset="0" style="stop-color:#4F52FF"/>
			<stop  offset="1" style="stop-color:#4042E2"/>
		</linearGradient>
		<path class="st39" d="M126.2,638.7c-0.4,0-0.7-0.1-1.1-0.2c-1.4-0.7-2.1-2.5-1.5-4l58.6-148.6c0.6-1.5,2.3-2.3,3.7-1.6
			c1.4,0.7,2.1,2.5,1.5,4l-58.6,148.6C128.3,638,127.3,638.7,126.2,638.7z"/>
		<linearGradient id="SVGID_32_" gradientUnits="userSpaceOnUse" x1="47.6063" y1="972.4157" x2="179.1555" y2="503.3053">
			<stop  offset="0" style="stop-color:#4F52FF"/>
			<stop  offset="1" style="stop-color:#4042E2"/>
		</linearGradient>
		<path class="st40" d="M192.2,638.7c-1.1,0-2.1-0.7-2.6-1.8L131,488.2c-0.6-1.5,0-3.3,1.5-4c1.4-0.7,3.1,0,3.7,1.6l58.6,148.6
			c0.6,1.5,0,3.3-1.5,4C192.9,638.6,192.5,638.7,192.2,638.7z"/>
		<linearGradient id="SVGID_33_" gradientUnits="userSpaceOnUse" x1="306.6445" y1="1073.8292" x2="438.1936" y2="604.7191">
			<stop  offset="0" style="stop-color:#4F52FF"/>
			<stop  offset="1" style="stop-color:#4042E2"/>
		</linearGradient>
		<path class="st41" d="M421.1,638.7c-0.4,0-0.7-0.1-1.1-0.2c-1.4-0.7-2.1-2.5-1.5-4l58.6-148.6c0.6-1.5,2.3-2.3,3.7-1.6
			c1.4,0.7,2.1,2.5,1.5,4l-58.6,148.6C423.2,638,422.2,638.7,421.1,638.7z"/>
		<linearGradient id="SVGID_34_" gradientUnits="userSpaceOnUse" x1="313.513" y1="1075.7543" x2="445.0622" y2="606.6438">
			<stop  offset="0" style="stop-color:#4F52FF"/>
			<stop  offset="1" style="stop-color:#4042E2"/>
		</linearGradient>
		<path class="st42" d="M487.1,638.7c-1.1,0-2.1-0.7-2.6-1.8l-58.6-148.6c-0.6-1.5,0-3.3,1.5-4c1.4-0.7,3.1,0,3.7,1.6l58.6,148.6
			c0.6,1.5,0,3.3-1.5,4C487.8,638.6,487.4,638.7,487.1,638.7z"/>
	</g>
	<linearGradient id="SVGID_35_" gradientUnits="userSpaceOnUse" x1="180.1154" y1="929.0627" x2="290.1231" y2="536.7703">
		<stop  offset="0" style="stop-color:#4F52FF"/>
		<stop  offset="1" style="stop-color:#4042E2"/>
	</linearGradient>
	<path class="st43" d="M517.9,481.2c0.2-1-0.1-2-0.9-2.8c-0.8-0.8-1.9-1.2-3.2-1.2H98c-1.6,0-3.1,0.7-4,1.8c-0.9,1.1-1,2.5-0.3,3.7
		l4.5,7.9c1,1.8,3.3,3,5.7,3h407c2.3,0,4.3-1.3,4.7-3.1L517.9,481.2z"/>
</g>
</svg>
