<?xml version="1.0" encoding="utf-8"?>
<!-- Generator: Adobe Illustrator 25.2.1, SVG Export Plug-In . SVG Version: 6.00 Build 0)  -->
<svg version="1.1" id="Capa_1" xmlns="http://www.w3.org/2000/svg" xmlns:xlink="http://www.w3.org/1999/xlink" x="0px" y="0px"
	 viewBox="0 0 689.4 745.6" style="enable-background:new 0 0 689.4 745.6;" xml:space="preserve">
<style type="text/css">
	.st0{fill:none;stroke:#EF4041;stroke-width:3;stroke-linecap:round;stroke-miterlimit:10;stroke-dasharray:17;}
	.st1{fill:#5379F6;}
	.st2{fill:#91B3FA;}
	.st3{fill:#BDD0FB;}
	.st4{enable-background:new    ;}
	.st5{fill:#EF4041;}
	.st6{fill:#09005D;}
	.st7{fill:url(#Trazado_152_1_);}
	.st8{fill:url(#Trazado_153_1_);}
	.st9{fill:url(#Trazado_154_1_);}
	.st10{fill:url(#Trazado_155_1_);}
	.st11{fill:url(#Trazado_156_1_);}
	.st12{fill:url(#Trazado_157_1_);}
	.st13{fill:url(#Trazado_158_1_);}
	.st14{fill:url(#Trazado_159_1_);}
	.st15{fill:url(#Trazado_160_1_);}
	.st16{fill:url(#Trazado_171_1_);}
	.st17{fill:url(#Trazado_172_1_);}
	.st18{fill:url(#Trazado_173_1_);}
	.st19{fill:url(#Trazado_174_1_);}
	.st20{fill:url(#Trazado_175_1_);}
	.st21{fill:url(#Trazado_176_1_);}
	.st22{fill:url(#Trazado_177_1_);}
	.st23{fill:url(#Trazado_178_1_);}
	.st24{fill:url(#Trazado_179_1_);}
	.st25{fill:url(#Trazado_180_1_);}
	.st26{fill:url(#Trazado_181_1_);}
	.st27{fill:#FFFFFF;}
	.st28{fill:url(#Trazado_184_1_);}
	.st29{fill:url(#Trazado_185_1_);}
	.st30{fill:url(#Trazado_186_1_);}
	.st31{fill:url(#Trazado_187_1_);}
	.st32{fill:url(#Trazado_188_1_);}
	.st33{fill:url(#Trazado_189_1_);}
	.st34{fill:url(#Trazado_191_1_);}
	.st35{fill:url(#Trazado_192_1_);}
	.st36{fill:url(#Trazado_193_1_);}
	.st37{fill:url(#Trazado_195_1_);}
	.st38{fill:url(#Trazado_196_1_);}
	.st39{fill:url(#Trazado_197_1_);}
	.st40{fill:url(#Trazado_198_1_);}
	.st41{fill:url(#Trazado_199_1_);}
	.st42{fill:url(#Trazado_200_1_);}
	.st43{fill:url(#Trazado_201_1_);}
</style>
<g id="Grupo_86" transform="translate(-2259.733 -269.829)">
	<path id="Trazado_144" class="st0" d="M2446.1,386.9c-51,41-78.8,89.7-86.6,102.7c-70.8,118.8-85,298.7,6.3,412.9
		c60.3,75.5,143.8,93.5,186.9,102.9c29.2,6.3,166.8,32.2,283-56.6c9.9-7.5,22.4-17.1,35.6-31.9c100.2-112.3,110.9-380.8-38.2-513.7
		c-71-63.3-169.1-86.9-253.2-75.2c-30.7,4.3-60.5,13.9-87.8,28.5L2446.1,386.9z"/>
	<path id="Trazado_145" class="st1" d="M2865.8,899.6c-14.1,14.8-27.4,24.4-37.9,31.9c-123.7,88.8-270.1,62.9-301.2,56.6
		c-45.9-9.3-134.7-27.4-198.9-102.9c-97.1-114.2-82-294.2-6.7-412.9c13.8-21.7,86.6-142.3,234.5-161.7
		c89.5-11.7,193.9,11.9,269.5,75.2C2983.8,518.8,2972.5,787.3,2865.8,899.6z"/>
	<g id="Grupo_69" transform="translate(2362.325 569.042)">
		<g id="Grupo_65" transform="translate(0 12.218)">
			<g id="Grupo_64">
				<path id="Trazado_146" class="st2" d="M297.8,318.2l-8.9-33.3c10.9-12.2,19.8-26.1,26.3-41.1c32.5-5.8,35.2-3.9,35.9-7.6
					l7.6-40.9c0.2-1.2-0.3-2.4-1.4-3L328,175.4c-0.7-16.3-3.9-32.5-9.7-47.8l20.3-28c0.7-1,0.7-2.3,0.1-3.3l-22.9-34.1
					c-0.7-1-1.9-1.4-3-1.1L280,70.5c-11.8-11-25.3-19.9-40-26.5l-4.8-34.2c-0.2-1.2-1.1-2.1-2.2-2.4l-40-7.4
					c-1.2-0.2-2.4,0.4-2.9,1.4l-16.9,30.2c-16.1,0.9-31.9,4.4-46.9,10.4c-27-19.4-27.4-22.6-30.4-20.5C63.1,45.4,60,44.7,61,48.4
					l8.9,33.3C58.9,93.9,50,107.8,43.5,122.8c-32.5,5.8-35.2,3.9-35.9,7.6c-6.9,40.8-9.4,42.1-6.3,43.9l29.4,16.9
					c0.7,16.3,3.9,32.5,9.7,47.8c-19.1,27.4-22.5,28.2-20.4,31.3c23.2,33.4,22.4,36.3,25.9,35.3l32.8-9.4c11.8,11,25.3,19.9,40,26.5
					c5.3,32.6,3.4,35.9,7.1,36.6c39.7,6.6,41.1,9.2,42.9,6l16.9-30.2c16.1-0.9,31.9-4.4,46.9-10.4c26.9,19.4,27.4,22.6,30.4,20.5
					C295.6,321.2,298.7,321.9,297.8,318.2z"/>
				<g id="Grupo_63" transform="translate(139.678 142.768)">
					<path id="Trazado_147" class="st3" d="M42,80.9C20.2,82.5,1.4,65.6,0.1,43.3S15.5,1.6,37.4,0.1s40.7,15.4,42,37.6l0,0
						C80.6,60,63.9,79.4,42,80.9z M75.8,38L75.8,38L75.8,38z M7.1,42.8c1,18.1,16.2,32.2,34.5,30.9c17.9-1.3,31.7-17.2,30.6-35.5
						S55.7,6.1,37.8,7.3C19.8,8.6,6.1,24.5,7.1,42.8L7.1,42.8z"/>
				</g>
				<path id="Trazado_148" class="st3" d="M277.9,205.2L277.9,205.2c-1.3,5.8-3.1,11.5-5.4,17.1c-0.6,1.6-2.4,2.5-4.1,2.2
					c-0.2,0-0.4-0.1-0.6-0.2c-1.8-0.8-2.7-2.9-1.9-4.7c2.6-6.4,4.6-13,5.9-19.8l0,0c9.5-51.1-22.3-100.3-71.5-111.5
					c-1.3-0.3-2.5-0.5-3.8-0.8C145,78,95.6,113.1,85.8,165.4c-9.8,52.3,23.8,102.8,75.2,112.3c30.6,5.7,49.1-5.5,52.3-4.8
					c1.9,0.5,3.1,2.5,2.6,4.4c-0.3,1.1-1.1,2.1-2.2,2.5c-18.5,7.1-38.8,8.6-58.1,4.2c-86.1-19.6-107.1-135.3-34-186.7
					c22.1-15.7,49.6-21.8,76.3-16.9c1.4,0.3,2.8,0.5,4.1,0.8c25,5.7,46.8,20.8,61,42.2c15.3,22.8,21,50.7,15.8,77.7
					C278.5,202.5,278.2,203.9,277.9,205.2z"/>
			</g>
		</g>
		<g id="Grupo_68" transform="translate(343.141 0)">
			<path id="Trazado_149" class="st2" d="M90.6,183.7c9.1,1,18.3,0.5,27.2-1.5l13.5,13.7c1.5,1.5,2.3-0.3,22.7-9.7
				c1.9-0.9,0.4-2.1-1.3-20.8c7.1-5.7,13.3-12.6,18.2-20.3l19.3,0.1c2.1,0,1.4-1.8,9.2-22.9c0.2-0.6,0-1.3-0.5-1.8l-15.1-12
				c1-9.1,0.5-18.3-1.5-27.2c12.8-13.2,14.9-13.4,14-15.3c-10.3-20.5-9.5-22-11.6-21.7l-19.1,2.2c-5.7-7.1-12.6-13.3-20.3-18.2
				l0.1-19.3c0-2.1-1.8-1.4-22.9-9.2c-1.9-0.7-1.7,1.1-13.8,15.6c-9.1-1-18.3-0.5-27.2,1.5L68.1,3.5c-1.5-1.5-2.3,0.3-22.7,9.7
				c-1.9,0.9-0.5,2,1.3,20.8c-7.1,5.7-13.3,12.6-18.2,20.3L9.3,54c-0.7,0-1.3,0.4-1.5,1.1L0.1,76.9c-0.2,0.6,0,1.3,0.5,1.8l15.1,12
				c-1,9.1-0.5,18.3,1.5,27.2C4.3,131,2.2,131.3,3.1,133.2c10.3,20.5,9.5,22,11.6,21.7l19.1-2.2c5.7,7.1,12.6,13.3,20.3,18.2
				c0.3,18.4-1.1,20.1,0.9,20.8l21.8,7.7C78.8,200,78.7,198.2,90.6,183.7z"/>
			<g id="Grupo_67" transform="translate(40.432 39.86)">
				<g id="Grupo_66" transform="translate(35.13 35.736)">
					<path id="Trazado_150" class="st3" d="M5.6,39.6c-8.5-10.2-7.1-25.5,3.1-34c10.2-8.5,25.5-7.1,34,3.1c8.5,10.2,7.1,25.5-3.1,34
						c0,0,0,0,0,0l0,0C29.3,51.2,14.1,49.8,5.6,39.6z M37.3,39.9L37.3,39.9L37.3,39.9z M11.1,35c6,7.2,16.7,8.2,23.9,2.2l0,0
						c11.5-9.6,5.7-28.5-9.3-29.9C10.8,5.9,1.5,23.4,11.1,35z"/>
				</g>
				<path id="Trazado_151" class="st3" d="M73.3,117.2c-1.9,0.6-3.9-0.5-4.5-2.4c-0.6-1.9,0.5-3.9,2.4-4.5c0.1,0,0.2-0.1,0.3-0.1
					c17.3-4.1,31.3-16.7,37.2-33.5c15.4-43.7-30-84.5-71.8-64.4C13,23.7,1.5,51.1,9.9,76.1c8.4,24.8,25.9,25.3,21.6,31.8
					c-1.1,1.7-3.3,2.1-5,1C-0.8,90.8-8.3,54,9.8,26.6C27.9-0.8,64.8-8.3,92.2,9.8c27.4,18.1,34.9,55,16.8,82.3
					c-5.9,9-14.2,16.1-23.9,20.8l0,0C81.3,114.8,77.3,116.2,73.3,117.2z"/>
			</g>
		</g>
	</g>
	<g id="Grupo_72" transform="translate(2298.512 269.829)">
		<g id="Grupo_71" transform="translate(0)">
			<g id="Grupo_70">
				<g class="st4">
					<path class="st5" d="M13.2,48.7h41V209h-41V48.7z"/>
					<path class="st5" d="M67.8,57.1c0-12.3,9.9-21.8,25.1-21.8s25.1,8.9,25.1,21.2c0,13-9.9,22.5-25.1,22.5S67.8,69.5,67.8,57.1z
						 M72.4,91.9h41V209h-41V91.9z"/>
					<path class="st5" d="M256,48.7V209h-39.1v-11.7c-7.8,9.3-19.2,13.6-34.3,13.6c-32,0-57.7-23.3-57.7-60.7
						c0-37.2,25.7-60.3,57.7-60.3c13.6,0,24.6,3.9,32.4,12.1V48.7H256z M215.6,150.2c0-17.7-10.6-27.6-24.4-27.6
						c-14,0-24.6,9.9-24.6,27.6c0,17.9,10.6,28.1,24.6,28.1C205,178.3,215.6,168.2,215.6,150.2z"/>
					<path class="st5" d="M392.9,160.8h-85.1c3.5,11.9,13.6,18.8,28.7,18.8c11.4,0,19-3.2,27-10.2l21.6,22.5
						c-11.2,12.5-27.6,19-49.9,19c-41.7,0-68.7-25.7-68.7-60.7C266.5,115,294,90,330.9,90c34.6,0,62.6,22,62.6,60.7
						C393.5,153.7,393.1,157.6,392.9,160.8z M307.1,139.2h48c-2.2-12.3-11.2-20.1-24-20.1S309.5,126.9,307.1,139.2z"/>
					<path class="st5" d="M482.5,90v36.9c-3.7-0.4-6.3-0.6-9.3-0.6c-16.6,0-28.1,8.4-28.1,28.9V209h-41V91.9h39.1v14
						C451.7,95.4,465.3,90,482.5,90z"/>
					<path class="st5" d="M599.8,144v65h-38.2v-15.1c-5.8,11.2-17.5,17.1-34.6,17.1c-28.1,0-43.6-15.8-43.6-36.1
						c0-21.6,15.8-35,52.1-35h23.3c-0.6-11.9-8.6-18.6-24.8-18.6c-11.2,0-23.8,3.9-31.8,10.2l-13.8-27.9C501.8,94.7,521.6,90,540,90
						C578,90,599.8,106.8,599.8,144z M558.8,171.4v-10.2h-17.7c-13.2,0-17.9,4.8-17.9,11.9c0,6.9,5.6,11.9,15.3,11.9
						C547.6,185,555.5,180.7,558.8,171.4z"/>
				</g>
			</g>
		</g>
	</g>
	<g class="st4">
		<path class="st6" d="M2581.2,343.7v-3.5c3.1,1.1,6.4,1.6,10,1.6c5,0,7.6-1.8,7.6-5.5c0-3.1-1.9-4.7-5.6-4.7h-3.8
			c-6.1,0-9.2-2.7-9.2-8c0-5.6,3.9-8.4,11.8-8.4c3.4,0,6.6,0.4,9.5,1.2v3.5c-2.9-1.1-6.1-1.6-9.5-1.6c-5.3,0-8,1.8-8,5.3
			c0,3.1,1.8,4.7,5.4,4.7h3.8c6.2,0,9.4,2.7,9.4,8c0,5.7-3.8,8.6-11.4,8.6C2587.6,345,2584.2,344.6,2581.2,343.7z"/>
		<path class="st6" d="M2610.1,315.4v3.6h-3.8v-3.6H2610.1z M2610.1,323.2v21.5h-3.8v-21.5H2610.1z"/>
		<path class="st6" d="M2642.2,323.2v21.5h-2.6l-0.7-2.7c-2.6,1.8-5.2,2.7-7.9,2.7c-4.9,0-7.4-2.7-7.4-8v-13.5h3.8v13.6
			c0,3.2,1.6,4.8,4.8,4.8c2.2,0,4.2-0.9,6.2-2.7v-15.6H2642.2z"/>
		<path class="st6" d="M2646.4,343.7v-3.3c2.5,0.8,5.1,1.2,7.7,1.2c3.4,0,5.1-1,5.1-3.1c0-1.9-1.2-2.9-3.6-2.9h-3.1
			c-4.6,0-7-2.1-7-6.4c0-4.1,3-6.2,9-6.2c2.6,0,5.1,0.3,7.6,1v3.3c-2.5-0.8-5.1-1.2-7.6-1.2c-3.6,0-5.4,1-5.4,3.1
			c0,1.9,1.1,2.9,3.4,2.9h3.1c4.9,0,7.4,2.1,7.4,6.4c0,4.1-3,6.2-8.9,6.2C2651.5,344.8,2649,344.4,2646.4,343.7z"/>
		<path class="st6" d="M2666.5,319.8h2.4l0.8,3.5h5.8v3.1h-5.2v12.4c0,2,0.9,3,2.6,3h2.6v3.1h-3.6c-3.6,0-5.4-1.9-5.4-5.8V319.8z"/>
		<path class="st6" d="M2687.5,323.2c6.1,0,9.2,3,9.2,9.1c0,0.9-0.1,1.8-0.2,2.8h-15.1c0,4.4,2.6,6.6,7.7,6.6c2.4,0,4.6-0.3,6.5-0.8
			v3.1c-1.9,0.5-4.2,0.8-6.9,0.8c-7.4,0-11.1-3.7-11.1-11C2677.6,326.7,2680.9,323.2,2687.5,323.2z M2681.4,331.9h11.6
			c-0.1-3.8-1.9-5.7-5.5-5.7C2683.7,326.3,2681.7,328.2,2681.4,331.9z"/>
		<path class="st6" d="M2718.4,343.5c-2.6,0.9-5.8,1.3-9.7,1.3c-6.4,0-9.6-3.7-9.6-11.2c0-6.9,3.4-10.3,10.2-10.3
			c1.9,0,3.6,0.3,5.3,1v-8.8h3.8V343.5z M2714.6,327.6c-1.5-0.7-3.3-1.1-5.2-1.1c-4.3,0-6.5,2.3-6.5,6.9c0,5.5,2.2,8.2,6.5,8.2
			c2,0,3.7-0.3,5.2-0.8V327.6z"/>
	</g>
	<g id="Grupo_76" transform="translate(2339.241 492.098)">
		<g id="Grupo_73" transform="translate(0 165.468)">
			
				<linearGradient id="Trazado_152_1_" gradientUnits="userSpaceOnUse" x1="-407.5243" y1="370.2388" x2="-410.0253" y2="368.5618" gradientTransform="matrix(43.7489 0 0 -209.7952 17976.8379 77669.3906)">
				<stop  offset="0" style="stop-color:#4042E2"/>
				<stop  offset="1" style="stop-color:#4F52FF"/>
			</linearGradient>
			<path id="Trazado_152" class="st7" d="M133.4,209.8c-1.2,0-2.2-0.7-2.5-1.9L92.1,2.6C91.9,1.4,92.8,0.2,94,0c0,0,0.1,0,0.1,0
				c1.3-0.2,2.6,0.6,2.9,1.8l38.8,205.3c0.2,1.2-0.7,2.4-1.9,2.6c0,0-0.1,0-0.1,0C133.6,209.8,133.5,209.8,133.4,209.8z"/>
			
				<linearGradient id="Trazado_153_1_" gradientUnits="userSpaceOnUse" x1="-408.5229" y1="370.372" x2="-410.6819" y2="368.674" gradientTransform="matrix(50.6818 0 0 -207.1265 20772.375 76683.9219)">
				<stop  offset="0" style="stop-color:#4042E2"/>
				<stop  offset="1" style="stop-color:#4F52FF"/>
			</linearGradient>
			<path id="Trazado_153" class="st8" d="M2.5,209.8c-0.2,0-0.3,0-0.5,0c-1.2-0.1-2.1-1.3-2-2.5c0,0,0-0.1,0-0.1L45.8,4.5
				c0.4-1.3,1.7-2,2.9-1.7c1.2,0.1,2.1,1.3,2,2.5c0,0,0,0.1,0,0.1L4.9,208C4.6,209.1,3.6,209.8,2.5,209.8z"/>
			
				<linearGradient id="Trazado_154_1_" gradientUnits="userSpaceOnUse" x1="-410.7707" y1="383.927" x2="-412.3647" y2="304.961" gradientTransform="matrix(68.6876 0 0 -4.4683 28308.1992 1693.3093)">
				<stop  offset="0" style="stop-color:#4042E2"/>
				<stop  offset="1" style="stop-color:#4F52FF"/>
			</linearGradient>
			<path id="Trazado_154" class="st9" d="M102.6,53.3H38.7c-1.2,0.1-2.3-0.8-2.4-2.1s0.8-2.3,2.1-2.4c0.1,0,0.2,0,0.3,0h63.9
				c1.2-0.1,2.3,0.8,2.4,2.1s-0.8,2.3-2.1,2.4C102.8,53.3,102.7,53.3,102.6,53.3L102.6,53.3z"/>
			
				<linearGradient id="Trazado_155_1_" gradientUnits="userSpaceOnUse" x1="-410.8132" y1="391.5331" x2="-412.3492" y2="312.5651" gradientTransform="matrix(71.2774 0 0 -4.4844 29385.5957 1736.3925)">
				<stop  offset="0" style="stop-color:#4042E2"/>
				<stop  offset="1" style="stop-color:#4F52FF"/>
			</linearGradient>
			<path id="Trazado_155" class="st10" d="M103.8,90.5H37.5c-1.2,0.1-2.3-0.7-2.5-2c-0.1-1.2,0.7-2.3,2-2.5c0.2,0,0.3,0,0.5,0h66.3
				c1.2-0.1,2.3,0.7,2.5,2c0.1,1.2-0.7,2.3-2,2.5C104.1,90.5,103.9,90.5,103.8,90.5z"/>
			
				<linearGradient id="Trazado_156_1_" gradientUnits="userSpaceOnUse" x1="-411.6688" y1="391.5981" x2="-412.9518" y2="312.63" gradientTransform="matrix(85.3534 0 0 -4.4844 35240.3047 1736.3925)">
				<stop  offset="0" style="stop-color:#4042E2"/>
				<stop  offset="1" style="stop-color:#4F52FF"/>
			</linearGradient>
			<path id="Trazado_156" class="st11" d="M109.8,90.5H29.4c-1.2,0.1-2.3-0.7-2.5-2c-0.1-1.2,0.7-2.3,2-2.5c0.2,0,0.3,0,0.5,0h80.4
				c1.2-0.1,2.3,0.7,2.5,2c0.1,1.2-0.7,2.3-2,2.5C110.1,90.5,109.9,90.5,109.8,90.5z"/>
			
				<linearGradient id="Trazado_157_1_" gradientUnits="userSpaceOnUse" x1="-410.665" y1="399.1301" x2="-412.2021" y2="320.164" gradientTransform="matrix(71.2774 0 0 -4.4844 29385.5957 1773.5184)">
				<stop  offset="0" style="stop-color:#4042E2"/>
				<stop  offset="1" style="stop-color:#4F52FF"/>
			</linearGradient>
			<path id="Trazado_157" class="st12" d="M103.8,127.6H37.5c-1.2,0.1-2.3-0.7-2.5-2c-0.1-1.2,0.7-2.3,2-2.5c0.2,0,0.3,0,0.5,0h66.3
				c1.2-0.1,2.3,0.7,2.5,2c0.1,1.2-0.7,2.3-2,2.5C104.1,127.6,103.9,127.6,103.8,127.6z"/>
			
				<linearGradient id="Trazado_158_1_" gradientUnits="userSpaceOnUse" x1="-412.2434" y1="399.2101" x2="-413.3254" y2="320.244" gradientTransform="matrix(101.1834 0 0 -4.4844 41825.4727 1773.5184)">
				<stop  offset="0" style="stop-color:#4042E2"/>
				<stop  offset="1" style="stop-color:#4F52FF"/>
			</linearGradient>
			<path id="Trazado_158" class="st13" d="M117.4,127.6H21.3c-1.2,0.1-2.3-0.7-2.5-2c-0.1-1.2,0.7-2.3,2-2.5c0.2,0,0.3,0,0.5,0h96.2
				c1.2-0.1,2.3,0.7,2.5,2c0.1,1.2-0.7,2.3-2,2.5C117.8,127.6,117.6,127.6,117.4,127.6z"/>
			
				<linearGradient id="Trazado_159_1_" gradientUnits="userSpaceOnUse" x1="-411.8871" y1="407.4911" x2="-413.0371" y2="328.523" gradientTransform="matrix(95.2224 0 0 -4.4844 39334.9336 1810.6444)">
				<stop  offset="0" style="stop-color:#4042E2"/>
				<stop  offset="1" style="stop-color:#4F52FF"/>
			</linearGradient>
			<path id="Trazado_159" class="st14" d="M103.8,164.7H13.5c-1.2,0.1-2.3-0.7-2.5-2c-0.1-1.2,0.7-2.3,2-2.5c0.2,0,0.3,0,0.5,0h90.2
				c1.2-0.1,2.3,0.7,2.5,2c0.1,1.2-0.7,2.3-2,2.5C104.1,164.7,103.9,164.7,103.8,164.7L103.8,164.7z"/>
			
				<linearGradient id="Trazado_160_1_" gradientUnits="userSpaceOnUse" x1="-412.6072" y1="406.8571" x2="-413.5582" y2="327.8891" gradientTransform="matrix(115.1254 0 0 -4.4844 47624.6875 1810.6444)">
				<stop  offset="0" style="stop-color:#4042E2"/>
				<stop  offset="1" style="stop-color:#4F52FF"/>
			</linearGradient>
			<path id="Trazado_160" class="st15" d="M123.7,164.7H13.5c-1.2,0.1-2.3-0.7-2.5-2c-0.1-1.2,0.7-2.3,2-2.5c0.2,0,0.3,0,0.5,0
				h110.1c1.2-0.1,2.3,0.7,2.5,2c0.1,1.2-0.7,2.3-2,2.5C124,164.7,123.8,164.7,123.7,164.7z"/>
		</g>
		<g id="Grupo_74" transform="translate(73.526 0)">
			<path id="Trazado_161" class="st2" d="M4.7,0.7L120.3,0c2.5-0.1,4.7,1.9,4.8,4.4c0,0,0,0,0,0.1l-0.5,59.9
				c-0.1,2.5-2.3,4.5-4.8,4.4c0,0-0.1,0-0.1,0L5.4,65.6c-2.5,0-4.5-1.9-4.6-4.4L0,5.2C0.1,2.7,2.2,0.7,4.7,0.7
				C4.7,0.7,4.7,0.7,4.7,0.7z"/>
			<path id="Trazado_162" class="st3" d="M119.8,65.2L5.5,62c-0.4,0-0.8-0.3-0.8-0.8l-0.8-56C3.9,5,4,4.8,4.2,4.6
				c0.2-0.1,0.4-0.2,0.6-0.2l115.6-0.7c0.2,0,0.4,0.1,0.6,0.2c0.2,0.1,0.2,0.4,0.2,0.6l-0.5,59.9C120.6,64.8,120.3,65.2,119.8,65.2z
				 M120.3,4v0.4L4.7,5.1l0.7,56l0.1,0l114.3,3.2l0.5-60L120.3,4z"/>
			<path id="Trazado_163" class="st3" d="M11.4,12.7L11.4,12.7c0,1.9,1.2,3.5,2.7,3.5h98.3c1.5,0,2.7-1.6,2.7-3.5l0,0
				c0-1.9-1.2-3.5-2.7-3.5H14.1C12.6,9.2,11.4,10.8,11.4,12.7z"/>
			<path id="Trazado_164" class="st3" d="M14,19.9h39.4c1.4,0,2.5,1,2.5,2.4v30.5c0,1.4-1.2,2.4-2.5,2.4c0,0,0,0-0.1,0l-38.5-1
				c-1.3,0-2.4-1-2.5-2.3l-0.8-29.5C11.5,21,12.6,19.9,14,19.9C14,19.9,14,19.9,14,19.9z"/>
			<path id="Trazado_165" class="st3" d="M64.5,20.7h46.2c1.1,0.1,1.9,1,1.8,2.1l0,0c0.1,1.1-0.7,2-1.8,2.1H64.5
				c-1.1-0.1-1.9-1-1.8-2.1l0,0C62.6,21.7,63.4,20.8,64.5,20.7z"/>
			<path id="Trazado_166" class="st3" d="M62.7,31.8L62.7,31.8c-0.1,1.1,0.7,2,1.8,2.1h46.2c1.1-0.1,1.9-1,1.8-2.1v-1.3
				c0.1-1.1-0.7-2-1.8-2.1c0,0,0,0,0,0l-46.2,1.3C63.4,29.8,62.6,30.7,62.7,31.8z"/>
		</g>
		<g id="_2p5qq5" transform="translate(90.296 25.265)">
			<g id="Grupo_75">
				<path id="Trazado_167" class="st1" d="M18.1,0c0.4,0,0.8,0.1,1.1,0.2c2.2,1,4.3,2,6.4,3c3.3,1.5,6.5,3.1,9.7,4.7
					c0.1,0.1,0.2,0.1,0.4,0.2c0.2,0.1,0.4,0.2,0.4,0.5S35.9,9,35.7,9.1c-1,0.5-2.1,1-3.1,1.5c-3,1.4-6,2.9-9,4.3
					c-1.5,0.7-3,1.4-4.6,2.1c-0.7,0.3-1.4,0.3-2.1-0.1c-1-0.5-2-0.9-3-1.4c-1.2-0.6-2.4-1.1-3.5-1.7c-0.1,0-0.1-0.1-0.2-0.1
					c-0.3-0.2-0.3-0.3,0-0.5c0.6-0.3,1.2-0.6,1.8-0.9c1.6-0.8,3.2-1.7,4.8-2.5c0.2-0.1,0.5-0.1,0.7-0.1c0.7,0.1,1.4,0,2-0.4
					c0.4-0.2,0.6-0.8,0.4-1.2c-0.1-0.2-0.2-0.3-0.4-0.4c-0.9-0.6-2.1-0.6-3,0c-0.3,0.2-0.4,0.5-0.4,0.8c0,0.2-0.1,0.3-0.3,0.4
					c-0.6,0.3-1.2,0.6-1.8,1c-1.5,0.8-3.1,1.6-4.6,2.4C9.2,12.6,9,12.8,8.8,13c-0.1,0.1-0.2,0.1-0.3,0c-0.8-0.3-1.5-0.7-2.3-1
					c-1.5-0.7-2.9-1.4-4.4-2.1c-0.5-0.3-1-0.5-1.5-0.8C0.1,9,0,8.7,0,8.5c0-0.1,0.2-0.3,0.3-0.3c1.4-0.7,2.9-1.4,4.3-2.1
					c3.1-1.5,6.2-3,9.3-4.5c1-0.5,2-0.9,2.9-1.4C17.3,0.1,17.7,0,18.1,0z"/>
				<path id="Trazado_168" class="st1" d="M29.3,14.6c0,0.9,0,1.8,0,2.6c0,0.8-0.2,1.5-0.8,2.1c-0.8,1-1.9,1.9-3,2.5
					c-1.6,0.9-3.3,1.5-5.1,1.8c-2,0.3-4,0.2-5.9-0.2c-1-0.2-2-0.6-2.9-1c-0.1-0.1-0.2-0.2-0.2-0.3c-0.3-2.2-0.5-4.4-0.8-6.6
					c0,0,0-0.1,0-0.1c0-0.1-0.1-0.2,0-0.3c0.1-0.1,0.2,0,0.3,0.1c2.1,1,4.1,1.9,6.2,2.9c0.6,0.3,1.3,0.3,2,0
					c2.9-1.3,5.8-2.7,8.7-4.2c0.4-0.2,0.8-0.4,1.2-0.6c0.3-0.1,0.3-0.1,0.3,0.2C29.2,13.9,29.2,14.3,29.3,14.6L29.3,14.6z"/>
				<path id="Trazado_169" class="st1" d="M9.2,14.8c0.1,0,0.1,0.1,0.1,0.2c0.3,1.9,0.5,3.7,0.7,5.6c0.1,1.2,0.3,2.3,0.4,3.5
					c0.1,0.7,0,0.9-0.7,1c-0.4,0.1-0.9,0.1-1.3,0C8,24.9,7.9,24.7,8,24.2c0.3-1.9,0.5-3.9,0.8-5.8c0.2-1.1,0.3-2.3,0.5-3.4
					C9.2,14.9,9.2,14.8,9.2,14.8z"/>
				<path id="Trazado_170" class="st1" d="M6.7,15.7c0-0.7,0-1.4,0-2.2c0-0.3,0-0.4,0.3-0.2c0.3,0.2,0.7,0.3,1,0.5
					c0.2,0.1,0.3,0.2,0.2,0.4C8,15.6,7.8,17,7.6,18.5c0,0.2-0.1,0.5-0.1,0.7c0,0.1,0,0.1-0.1,0.2s-0.1,0-0.2-0.1
					c-0.4-0.5-0.6-1.1-0.6-1.7C6.7,16.9,6.7,16.3,6.7,15.7L6.7,15.7z"/>
			</g>
		</g>
	</g>
	<g id="Grupo_78" transform="translate(2377.76 544.955)">
		<g id="Grupo_77" transform="translate(0 0)">
			
				<linearGradient id="Trazado_171_1_" gradientUnits="userSpaceOnUse" x1="-437.8753" y1="466.0464" x2="-438.1173" y2="466.5314" gradientTransform="matrix(39.6498 0 0 -70.491 17735.5664 34041.4062)">
				<stop  offset="0" style="stop-color:#FF928E"/>
				<stop  offset="1" style="stop-color:#FEB3B1"/>
			</linearGradient>
			<path id="Trazado_171" class="st16" d="M59.5,13.6c0,0,27.1,34.7-3.8,70.1L44,82.6c0,0,22.4-36,12.4-64.7l-16.5,1.2l-9.1-5.9
				L59.5,13.6z"/>
			
				<linearGradient id="Trazado_172_1_" gradientUnits="userSpaceOnUse" x1="-406.9053" y1="482.2679" x2="-405.9053" y2="482.2679" gradientTransform="matrix(41.1038 0 0 -94.23 18369.832 45665.7148)">
				<stop  offset="0" style="stop-color:#FF928E"/>
				<stop  offset="1" style="stop-color:#FEB3B1"/>
			</linearGradient>
			<path id="Trazado_172" class="st17" d="M44.6,183.7c0,0-22,47.9-33.5,67.8c0,0-2.3,12.5,0,16.4l2,0.9l-9.1-0.3
				c0,0-0.8-16.8-0.2-17.7c0.5-0.6,1.2-0.9,1.9-0.9c0,0,3.9-31,15.2-37.6l11-37.8L44.6,183.7z"/>
			
				<linearGradient id="Trazado_173_1_" gradientUnits="userSpaceOnUse" x1="-376.9773" y1="437.0991" x2="-370.7363" y2="432.2671" gradientTransform="matrix(16.9171 0 0 -21.4647 7360.7466 10604.4844)">
				<stop  offset="0" style="stop-color:#4042E2"/>
				<stop  offset="1" style="stop-color:#4F52FF"/>
			</linearGradient>
			<path id="Trazado_173" class="st18" d="M16.9,271.1c0,0.2-7.1,0.1-11,0c-1.4,0-2.7-1-3-2.4l-2.9-15.4c-0.3-1.5,0.7-2.9,2.1-3.2
				l1.6-0.4c0,0,2.3,3.2,1.6,6.2S4,266.8,5.9,267.7s7.2,1.1,7.2,1.1S16.8,269.1,16.9,271.1z"/>
			
				<linearGradient id="Trazado_174_1_" gradientUnits="userSpaceOnUse" x1="-432.9336" y1="462.9314" x2="-428.4756" y2="452.0304" gradientTransform="matrix(23.6914 0 0 -9.5132 10485.3994 4847.0532)">
				<stop  offset="0" style="stop-color:#4042E2"/>
				<stop  offset="1" style="stop-color:#4F52FF"/>
			</linearGradient>
			<path id="Trazado_174" class="st19" d="M65.4,271.4c0.4,0.2,0.5,0.7,0.3,1.1c-0.1,0.3-0.4,0.4-0.7,0.4c-6.5-0.1-21-0.3-22.3-0.8
				c-1.7-0.7,0.6-6.7,3-8.7l13.2,4.3L65.4,271.4z"/>
			
				<linearGradient id="Trazado_175_1_" gradientUnits="userSpaceOnUse" x1="-374.7512" y1="482.2605" x2="-373.7512" y2="482.2605" gradientTransform="matrix(23.803 0 0 -88.116 10539.75 42719.5273)">
				<stop  offset="0" style="stop-color:#FF928E"/>
				<stop  offset="1" style="stop-color:#FEB3B1"/>
			</linearGradient>
			<path id="Trazado_175" class="st20" d="M69.5,180.6c0,0-14.2,68.7-18.2,82.1l9.5,6c0,0-4.8-0.8-8.3-1.1s-6.8-4.3-6.8-4.3l1.1-1.8
				c0,0,3.6-68.4,2.7-76.1L69.5,180.6z"/>
			
				<linearGradient id="Trazado_176_1_" gradientUnits="userSpaceOnUse" x1="-434.4451" y1="498.8901" x2="-434.7741" y2="498.4641" gradientTransform="matrix(46.5989 0 0 -92.192 20940.9922 44507.1055)">
				<stop  offset="0" style="stop-color:#FF928E"/>
				<stop  offset="1" style="stop-color:#FEB3B1"/>
			</linearGradient>
			<path id="Trazado_176" class="st21" d="M104.8,20.3c0,0,2,35.8-30.6,54l7.8,17.9c0,0,29.5-17.8,28.4-66.4c0-1.4,0.5-2.8,1.4-3.8
				l6.3-7.3c2.4-2.8,3.3-6.5,2.4-10.1l-0.8-3.3c-0.2-0.9-1.2-1.5-2.1-1.2c-0.2,0-0.3,0.1-0.4,0.2l-0.7,0.4c-2.1,1.2-3.7,3-4.7,5.2
				l-3.1,6.9c-1.1,2.6-3.8,4.1-6.6,3.9l-1.9-0.2L104.8,20.3z"/>
			
				<linearGradient id="Trazado_177_1_" gradientUnits="userSpaceOnUse" x1="-437.1007" y1="466.4954" x2="-435.0817" y2="463.2084" gradientTransform="matrix(43.2723 0 0 -52.6495 19393.0117 25484.666)">
				<stop  offset="0" style="stop-color:#4042E2"/>
				<stop  offset="1" style="stop-color:#4F52FF"/>
			</linearGradient>
			<path id="Trazado_177" class="st22" d="M75.3,71.6c-5.4,1.5-23.9,6.4-35.4,6.2l7.1,39.9l-0.6,6.5l23.1-0.1
				c0,0,6.5-15.1,11.6-22.6c1.5-2.2,0.4-4.8-0.5-7.2l1.2-0.8c1.2-0.8,1.7-2.2,1.2-3.6l-5.6-17.2C77.1,71.9,76.2,71.4,75.3,71.6z"/>
			
				<linearGradient id="Trazado_178_1_" gradientUnits="userSpaceOnUse" x1="-423.4002" y1="465.926" x2="-421.6632" y2="464.715" gradientTransform="matrix(43.9557 0 0 -71.084 19693.0898 34434.5078)">
				<stop  offset="4.100000e-02" style="stop-color:#09005D"/>
				<stop  offset="1" style="stop-color:#1A0F91"/>
			</linearGradient>
			<path id="Trazado_178" class="st23" d="M71.3,120.7l-0.5,3.9c0,0,6.5,19.5-3.3,65.1c0,0-21.2,6-38.6-8.4c0,0,4.9-43,6.2-45
				c6.7-10,11.1-12.2,11.1-12.2l0.2-4.3C46.6,119.9,65.3,123.3,71.3,120.7z"/>
			
				<linearGradient id="Trazado_179_1_" gradientUnits="userSpaceOnUse" x1="-323.4834" y1="481.8122" x2="-322.4834" y2="481.8122" gradientTransform="matrix(14.565 0 0 -17.8 6338.2217 8645.2529)">
				<stop  offset="0" style="stop-color:#FF928E"/>
				<stop  offset="1" style="stop-color:#FEB3B1"/>
			</linearGradient>
			<path id="Trazado_179" class="st24" d="M62.3,74.9c0.1-0.1-4.8-14.8-4.8-14.8l-7,0.6l-2.7,16.6C47.8,77.4,58.7,79.6,62.3,74.9z"
				/>
			
				<linearGradient id="Trazado_180_1_" gradientUnits="userSpaceOnUse" x1="-429.567" y1="506.9432" x2="-429.879" y2="506.3092" gradientTransform="matrix(26.6302 0 0 -26.2093 11818.3252 12682.0176)">
				<stop  offset="0" style="stop-color:#FF928E"/>
				<stop  offset="1" style="stop-color:#FEB3B1"/>
			</linearGradient>
			<path id="Trazado_180" class="st25" d="M52.2,36.9c0.5,0.3,15,6.3,11.9,21.4c-0.2,0.9-0.8,1.6-1.6,2c-3.8,1.7-8,2.4-12.2,2
				c-7.6-0.8-12.6-14-12.4-17.9S47.5,34,52.2,36.9z"/>
			
				<linearGradient id="Trazado_181_1_" gradientUnits="userSpaceOnUse" x1="-436.0354" y1="497.5487" x2="-436.7584" y2="496.6147" gradientTransform="matrix(51.6479 0 0 -79.9548 23174.8008 38628.8047)">
				<stop  offset="0" style="stop-color:#09005D"/>
				<stop  offset="1" style="stop-color:#1A0F91"/>
			</linearGradient>
			<path id="Trazado_181" class="st26" d="M47.8,31.1c0.4,0,8.4,2.8,4.4,8.6s-5.5,9.2-3.6,11.8c1.7,2.3,5.5,1,5.2,5.8
				c-0.1,1,0.4,1.9,1.2,2.4c3.6,2.4,12.3,9.9,3.7,20.5c-0.7,0.8-0.8,2-0.3,3c2.5,4.5,7.8,17.8-11.4,25.2c-19,7.3-25.9-5.1-27.8-10.1
				c-0.4-1.1-1.5-1.7-2.6-1.7c-2.1,0.1-5-0.2-4.9-3c0.2-1.7,1.1-3.3,2.4-4.4c1-1,1.1-2.7,0-3.7c-0.2-0.2-0.3-0.3-0.5-0.4
				c-1.3-0.7-2.2-1.8-2.6-3.2c-1.2-4.3,1.1-17,13.4-19.2c1.1-0.2,2-1.1,2.2-2.2l0,0c0.2-1-0.2-2-1-2.6c-2-1.4-4.5-4.3-2.4-8.9
				c1.4-3.2,4.4-5.5,7.8-5.9c1.5-0.2,2.4-1.6,2.2-3.1c0,0,0-0.1,0-0.1C32.3,35.7,33,29.1,47.8,31.1z"/>
		</g>
	</g>
	<g class="st4">
		<path class="st27" d="M2567,499V516h-2l-0.5-2.2c-2.1,1.4-4.1,2.2-6.2,2.2c-3.9,0-5.8-2.1-5.8-6.3V499h3v10.7
			c0,2.5,1.2,3.8,3.7,3.8c1.7,0,3.3-0.7,4.9-2.1V499H2567z"/>
		<path class="st27" d="M2570.5,516V499h2l0.5,2.2c1.7-1.4,3.6-2.2,5.7-2.2c4.2,0,6.3,2.1,6.3,6.3V516h-3v-10.7
			c0-2.5-1.3-3.8-3.8-3.8c-1.7,0-3.3,0.7-4.9,2.1V516H2570.5z"/>
		<path class="st27" d="M2587.9,510.8c0-3.5,2.3-5.2,6.9-5.2c1.5,0,2.9,0.1,4.4,0.3v-1.6c0-1.9-1.5-2.9-4.6-2.9
			c-1.7,0-3.5,0.3-5.3,0.8v-2.4c1.8-0.5,3.6-0.8,5.3-0.8c5,0,7.5,1.8,7.5,5.3V516h-1.7l-1-1.7c-1.7,1.1-3.5,1.7-5.5,1.7
			C2589.9,516,2587.9,514.3,2587.9,510.8z M2594.7,508.1c-2.6,0-3.9,0.9-3.9,2.7c0,1.8,1,2.7,3.1,2.7c2.1,0,3.8-0.5,5.2-1.6v-3.5
			C2597.7,508.2,2596.2,508.1,2594.7,508.1z"/>
		<path class="st27" d="M2625.2,515.5c-1.4,0.3-2.9,0.5-4.5,0.5c-6,0-9-2.9-9-8.8c0-5.4,3-8.1,9-8.1c1.6,0,3.1,0.2,4.5,0.5v2.4
			c-1.4-0.3-3-0.5-4.7-0.5c-3.9,0-5.9,1.9-5.9,5.7c0,4.2,2,6.4,5.9,6.4c1.7,0,3.3-0.2,4.7-0.5V515.5z"/>
		<path class="st27" d="M2626.9,510.8c0-3.5,2.3-5.2,6.9-5.2c1.5,0,2.9,0.1,4.4,0.3v-1.6c0-1.9-1.5-2.9-4.6-2.9
			c-1.7,0-3.5,0.3-5.3,0.8v-2.4c1.8-0.5,3.6-0.8,5.3-0.8c5,0,7.5,1.8,7.5,5.3V516h-1.7l-1-1.7c-1.7,1.1-3.5,1.7-5.5,1.7
			C2628.9,516,2626.9,514.3,2626.9,510.8z M2633.7,508.1c-2.6,0-3.9,0.9-3.9,2.7c0,1.8,1,2.7,3.1,2.7c2.1,0,3.8-0.5,5.2-1.6v-3.5
			C2636.7,508.2,2635.2,508.1,2633.7,508.1z"/>
		<path class="st27" d="M2659.3,499V516h-2l-0.5-2.2c-2.1,1.4-4.1,2.2-6.2,2.2c-3.9,0-5.8-2.1-5.8-6.3V499h3v10.7
			c0,2.5,1.2,3.8,3.7,3.8c1.7,0,3.3-0.7,4.9-2.1V499H2659.3z"/>
		<path class="st27" d="M2662.6,515.1v-2.6c2,0.6,4,1,6,1c2.7,0,4-0.8,4-2.4c0-1.5-0.9-2.3-2.8-2.3h-2.4c-3.7,0-5.5-1.7-5.5-5
			c0-3.2,2.3-4.8,7-4.8c2,0,4,0.3,6,0.8v2.6c-2-0.6-4-1-6-1c-2.8,0-4.2,0.8-4.2,2.4c0,1.5,0.9,2.3,2.7,2.3h2.4c3.9,0,5.8,1.7,5.8,5
			c0,3.2-2.3,4.8-7,4.8C2666.6,516,2664.6,515.7,2662.6,515.1z"/>
		<path class="st27" d="M2677.6,510.8c0-3.5,2.3-5.2,6.9-5.2c1.5,0,2.9,0.1,4.4,0.3v-1.6c0-1.9-1.5-2.9-4.6-2.9
			c-1.7,0-3.5,0.3-5.3,0.8v-2.4c1.8-0.5,3.6-0.8,5.3-0.8c5,0,7.5,1.8,7.5,5.3V516h-1.7l-1-1.7c-1.7,1.1-3.5,1.7-5.5,1.7
			C2679.6,516,2677.6,514.3,2677.6,510.8z M2684.5,508.1c-2.6,0-3.9,0.9-3.9,2.7c0,1.8,1,2.7,3.1,2.7c2.1,0,3.8-0.5,5.2-1.6v-3.5
			C2687.4,508.2,2686,508.1,2684.5,508.1z"/>
		<path class="st27" d="M2702,515.1v-2.6c2,0.6,4,1,6,1c2.7,0,4-0.8,4-2.4c0-1.5-0.9-2.3-2.8-2.3h-2.4c-3.7,0-5.5-1.7-5.5-5
			c0-3.2,2.3-4.8,7-4.8c2,0,4,0.3,6,0.8v2.6c-2-0.6-4-1-6-1c-2.8,0-4.2,0.8-4.2,2.4c0,1.5,0.9,2.3,2.7,2.3h2.4c3.9,0,5.8,1.7,5.8,5
			c0,3.2-2.3,4.8-7,4.8C2706,516,2704,515.7,2702,515.1z"/>
		<path class="st27" d="M2717,507.5c0-5.6,2.7-8.5,8.1-8.5s8.1,2.8,8.1,8.5c0,5.6-2.7,8.4-8.1,8.4
			C2719.7,515.9,2717.1,513.1,2717,507.5z M2725.1,513.5c3.4,0,5.1-2,5.1-6.1c0-4-1.7-6-5.1-6s-5.1,2-5.1,6
			C2720,511.5,2721.7,513.5,2725.1,513.5z"/>
		<path class="st27" d="M2748.6,515.5c-1.4,0.3-2.9,0.5-4.5,0.5c-6,0-9-2.9-9-8.8c0-5.4,3-8.1,9-8.1c1.6,0,3.1,0.2,4.5,0.5v2.4
			c-1.4-0.3-3-0.5-4.7-0.5c-3.9,0-5.9,1.9-5.9,5.7c0,4.2,2,6.4,5.9,6.4c1.7,0,3.3-0.2,4.7-0.5V515.5z"/>
		<path class="st27" d="M2754.4,492.9v2.8h-3v-2.8H2754.4z M2754.4,499V516h-3V499H2754.4z"/>
		<path class="st27" d="M2757.5,510.8c0-3.5,2.3-5.2,6.9-5.2c1.5,0,2.9,0.1,4.4,0.3v-1.6c0-1.9-1.5-2.9-4.6-2.9
			c-1.7,0-3.5,0.3-5.3,0.8v-2.4c1.8-0.5,3.6-0.8,5.3-0.8c5,0,7.5,1.8,7.5,5.3V516h-1.7l-1-1.7c-1.7,1.1-3.5,1.7-5.5,1.7
			C2759.5,516,2757.5,514.3,2757.5,510.8z M2764.4,508.1c-2.6,0-3.9,0.9-3.9,2.7c0,1.8,1,2.7,3.1,2.7c2.1,0,3.8-0.5,5.2-1.6v-3.5
			C2767.3,508.2,2765.8,508.1,2764.4,508.1z"/>
		<path class="st27" d="M2778.4,492.9v23h-3v-23H2778.4z"/>
		<path class="st27" d="M2785.5,513l-2.4,7h-3l2.4-7H2785.5z"/>
	</g>
	<g class="st4">
		<path class="st6" d="M2793.2,516V499h2l0.5,2.2c1.7-1.4,3.6-2.2,5.7-2.2c4.2,0,6.3,2.1,6.3,6.3V516h-3v-10.7
			c0-2.5-1.3-3.8-3.8-3.8c-1.7,0-3.3,0.7-4.9,2.1V516H2793.2z"/>
		<path class="st6" d="M2825.9,499V516h-2l-0.5-2.2c-2.1,1.4-4.1,2.2-6.2,2.2c-3.9,0-5.8-2.1-5.8-6.3V499h3v10.7
			c0,2.5,1.2,3.8,3.7,3.8c1.7,0,3.3-0.7,4.9-2.1V499H2825.9z"/>
		<path class="st6" d="M2836.5,499c4.8,0,7.2,2.4,7.2,7.1c0,0.7,0,1.4-0.1,2.2h-11.9c0,3.5,2,5.2,6.1,5.2c1.9,0,3.6-0.2,5.1-0.6v2.4
			c-1.5,0.4-3.3,0.6-5.4,0.6c-5.8,0-8.7-2.9-8.7-8.7C2828.7,501.8,2831.3,499,2836.5,499z M2831.7,505.9h9.2c-0.1-3-1.5-4.4-4.4-4.4
			C2833.5,501.4,2831.9,502.9,2831.7,505.9z"/>
		<path class="st6" d="M2846.3,515.1v-2.6c2,0.6,4,1,6,1c2.7,0,4-0.8,4-2.4c0-1.5-0.9-2.3-2.8-2.3h-2.4c-3.7,0-5.5-1.7-5.5-5
			c0-3.2,2.3-4.8,7-4.8c2,0,4,0.3,6,0.8v2.6c-2-0.6-4-1-6-1c-2.8,0-4.2,0.8-4.2,2.4c0,1.5,0.9,2.3,2.7,2.3h2.4c3.9,0,5.8,1.7,5.8,5
			c0,3.2-2.3,4.8-7,4.8C2850.3,516,2848.2,515.7,2846.3,515.1z"/>
		<path class="st6" d="M2862,496.3h1.9l0.6,2.7h4.6v2.4h-4.1v9.7c0,1.6,0.7,2.4,2,2.4h2.1v2.4h-2.8c-2.8,0-4.3-1.5-4.3-4.6V496.3z"
			/>
		<path class="st6" d="M2871.6,516V499h2l0.5,2.2c1.5-1.4,3.3-2.2,5.3-2.2v2.5c-2,0-3.7,0.7-4.9,2.1V516H2871.6z"/>
		<path class="st6" d="M2880.4,507.5c0-5.6,2.7-8.5,8.1-8.5s8.1,2.8,8.1,8.5c0,5.6-2.7,8.4-8.1,8.4
			C2883.1,515.9,2880.4,513.1,2880.4,507.5z M2888.5,513.5c3.4,0,5.1-2,5.1-6.1c0-4-1.7-6-5.1-6s-5.1,2-5.1,6
			C2883.4,511.5,2885.1,513.5,2888.5,513.5z"/>
	</g>
	<g class="st4">
		<path class="st6" d="M2595.1,529.6c2.2-0.5,4.6-0.7,7.1-0.7c5.7,0,8.6,2.7,8.6,8c0,5.9-2.7,8.9-8,8.9c-1.1,0-2.3-0.3-3.4-0.8v6.9
			h-4.3V529.6z M2599.4,541.4c1.1,0.6,2.2,0.9,3.4,0.9c2.5,0,3.8-1.8,3.8-5.4c0-3-1.4-4.6-4.2-4.6c-1.2,0-2.2,0.1-3,0.2V541.4z"/>
		<path class="st6" d="M2612.8,545.8v-16.9h3.3l0.5,2.2c1.5-1.4,3.1-2.2,4.7-2.2v3.4c-1.6,0-3,0.7-4.3,2v11.5H2612.8z"/>
		<path class="st6" d="M2621.7,537.4c0-5.7,2.8-8.5,8.4-8.5s8.4,2.8,8.4,8.5c0,5.7-2.8,8.5-8.4,8.5
			C2624.5,545.9,2621.7,543,2621.7,537.4z M2630.1,542.6c2.7,0,4.1-1.8,4.1-5.3c0-3.4-1.4-5.2-4.1-5.2c-2.7,0-4.1,1.7-4.1,5.2
			C2626,540.8,2627.3,542.6,2630.1,542.6z"/>
		<path class="st6" d="M2640.4,529.6c2.2-0.5,4.6-0.7,7.1-0.7c5.7,0,8.6,2.7,8.6,8c0,5.9-2.7,8.9-8,8.9c-1.1,0-2.3-0.3-3.4-0.8v6.9
			h-4.3V529.6z M2644.6,541.4c1.1,0.6,2.2,0.9,3.4,0.9c2.5,0,3.8-1.8,3.8-5.4c0-3-1.4-4.6-4.2-4.6c-1.2,0-2.2,0.1-3,0.2V541.4z"/>
		<path class="st6" d="M2657.2,537.4c0-5.7,2.8-8.5,8.4-8.5s8.4,2.8,8.4,8.5c0,5.7-2.8,8.5-8.4,8.5
			C2660.1,545.9,2657.3,543,2657.2,537.4z M2665.6,542.6c2.7,0,4.1-1.8,4.1-5.3c0-3.4-1.4-5.2-4.1-5.2c-2.7,0-4.1,1.7-4.1,5.2
			C2661.5,540.8,2662.9,542.6,2665.6,542.6z M2665.5,522.8h5.1l-3.9,4.2h-3.6L2665.5,522.8z"/>
		<path class="st6" d="M2675.9,545v-3.5c1.9,0.8,4.1,1.1,6.5,1.1c1.8,0,2.8-0.6,2.8-1.8c0-1.1-0.6-1.7-1.9-1.7h-3.1
			c-3.4,0-5.2-1.7-5.2-5.1c0-3.5,2.5-5.3,7.5-5.3c2.1,0,4.1,0.3,6,1v3.5c-1.9-0.8-3.9-1.1-6.1-1.1c-2.3,0-3.5,0.6-3.5,1.8
			c0,1.1,0.7,1.7,2,1.7h2.7c3.8,0,5.6,1.7,5.6,5.1c0,3.5-2.4,5.3-7.2,5.3C2679.9,546,2677.8,545.7,2675.9,545z"/>
		<path class="st6" d="M2695.4,522.8v3.4h-4.3v-3.4H2695.4z M2695.4,528.9v16.9h-4.3v-16.9H2695.4z"/>
		<path class="st6" d="M2697.9,526.2h3.2l0.6,2.7h4.3v3.4h-3.8v7.8c0,1.6,0.7,2.4,2,2.4h1.7v3.4h-3.8c-2.8,0-4.3-1.5-4.3-4.6V526.2z
			"/>
		<path class="st6" d="M2706.8,537.4c0-5.7,2.8-8.5,8.4-8.5s8.4,2.8,8.4,8.5c0,5.7-2.8,8.5-8.4,8.5
			C2709.6,545.9,2706.8,543,2706.8,537.4z M2715.2,542.6c2.7,0,4.1-1.8,4.1-5.3c0-3.4-1.4-5.2-4.1-5.2c-2.7,0-4.1,1.7-4.1,5.2
			C2711.1,540.8,2712.4,542.6,2715.2,542.6z"/>
		<path class="st6" d="M2738.6,528.9c5.1,0,7.7,2.6,7.7,7.9c0,0.7,0,1.4-0.1,2.1h-11.2c0,2.4,1.8,3.6,5.3,3.6c1.7,0,3.4-0.2,5.1-0.5
			v3.4c-1.5,0.3-3.3,0.5-5.4,0.5c-6.1,0-9.2-2.9-9.2-8.7C2730.7,531.7,2733.3,528.9,2738.6,528.9z M2734.9,535.9h7.2v-0.1
			c0-2.3-1.2-3.5-3.5-3.5C2736.3,532.3,2735.1,533.5,2734.9,535.9z"/>
		<path class="st6" d="M2748.2,545v-3.5c1.9,0.8,4,1.1,6.5,1.1c1.8,0,2.8-0.6,2.8-1.8c0-1.1-0.6-1.7-1.9-1.7h-3.1
			c-3.4,0-5.2-1.7-5.2-5.1c0-3.5,2.5-5.3,7.5-5.3c2.1,0,4.1,0.3,6,1v3.5c-1.9-0.8-3.9-1.1-6.1-1.1c-2.3,0-3.5,0.6-3.5,1.8
			c0,1.1,0.7,1.7,2,1.7h2.7c3.8,0,5.6,1.7,5.6,5.1c0,3.5-2.4,5.3-7.2,5.3C2752.2,546,2750.1,545.7,2748.2,545z"/>
		<path class="st6" d="M2768.6,540.6c0-3.4,2.4-5,7.3-5c1.2,0,2.3,0.1,3.4,0.3v-1.3c0-1.5-1.1-2.3-3.3-2.3c-1.8,0-3.9,0.3-6.2,0.8
			v-3.4c2.3-0.5,4.3-0.8,6.2-0.8c5,0,7.5,1.9,7.5,5.6v11.3h-2.5l-1.5-1.5c-1.5,1-3.1,1.5-4.9,1.5
			C2770.7,545.8,2768.6,544.1,2768.6,540.6z M2776,538.4c-2.1,0-3.1,0.7-3.1,2.1c0,1.5,0.9,2.3,2.6,2.3c1.4,0,2.7-0.4,3.9-1.3v-2.7
			C2778.3,538.5,2777.2,538.4,2776,538.4z"/>
		<path class="st6" d="M2798.9,545.3c-1.4,0.3-2.8,0.5-4.3,0.5c-6,0-9-2.9-9-8.8c0-5.4,3-8.1,9-8.1c1.5,0,3,0.2,4.3,0.5v3.4
			c-1.4-0.3-2.7-0.5-4-0.5c-3.4,0-5.1,1.6-5.1,4.8c0,3.6,1.7,5.4,5.1,5.4c1.3,0,2.6-0.2,4-0.5V545.3z"/>
		<path class="st6" d="M2799.6,537.4c0-5.7,2.8-8.5,8.4-8.5s8.4,2.8,8.4,8.5c0,5.7-2.8,8.5-8.4,8.5
			C2802.4,545.9,2799.7,543,2799.6,537.4z M2808,542.6c2.7,0,4.1-1.8,4.1-5.3c0-3.4-1.4-5.2-4.1-5.2s-4.1,1.7-4.1,5.2
			C2803.9,540.8,2805.3,542.6,2808,542.6z"/>
		<path class="st6" d="M2818.3,545.8v-16.9h3.3l0.5,2.4c1.5-1.6,3.3-2.4,5.5-2.4s3.6,0.8,4.4,2.3c1.7-1.5,3.5-2.3,5.4-2.3
			c3.9,0,5.8,2.1,5.8,6.4v10.5h-4.3v-10.7c0-1.9-0.8-2.8-2.5-2.8c-1.3,0-2.5,0.6-3.7,1.7v11.8h-4.3v-10.6c0-1.9-0.8-2.9-2.4-2.9
			c-1.2,0-2.4,0.6-3.5,1.7v11.8H2818.3z"/>
		<path class="st6" d="M2846,529.6c2.2-0.5,4.6-0.7,7.1-0.7c5.7,0,8.6,2.7,8.6,8c0,5.9-2.7,8.9-8,8.9c-1.1,0-2.3-0.3-3.4-0.8v6.9
			h-4.3V529.6z M2850.2,541.4c1.1,0.6,2.2,0.9,3.4,0.9c2.5,0,3.8-1.8,3.8-5.4c0-3-1.4-4.6-4.2-4.6c-1.2,0-2.2,0.1-3,0.2V541.4z"/>
		<path class="st6" d="M2862.8,540.6c0-3.4,2.4-5,7.3-5c1.2,0,2.3,0.1,3.4,0.3v-1.3c0-1.5-1.1-2.3-3.3-2.3c-1.8,0-3.9,0.3-6.2,0.8
			v-3.4c2.3-0.5,4.3-0.8,6.2-0.8c5,0,7.5,1.9,7.5,5.6v11.3h-2.5l-1.5-1.5c-1.5,1-3.1,1.5-4.9,1.5
			C2864.9,545.8,2862.8,544.1,2862.8,540.6z M2870.2,538.4c-2.1,0-3.1,0.7-3.1,2.1c0,1.5,0.9,2.3,2.6,2.3c1.4,0,2.7-0.4,3.9-1.3
			v-2.7C2872.6,538.5,2871.4,538.4,2870.2,538.4z"/>
		<path class="st6" d="M2880.6,545.8v-16.9h3.3l0.5,2.5c1.6-1.7,3.5-2.5,5.5-2.5c4,0,6,2.1,6,6.3v10.7h-4.3v-10.7
			c0-1.9-0.9-2.8-2.8-2.8c-1.4,0-2.7,0.6-4.1,1.7v11.8H2880.6z M2884.6,523.5c0.6-0.5,1.3-0.7,2.1-0.7c0.6,0,1.1,0.1,1.8,0.4
			s1.2,0.4,1.8,0.4c0.8,0,1.6-0.2,2.4-0.7v3.4c-0.6,0.5-1.3,0.7-2.1,0.7c-0.6,0-1.1-0.1-1.8-0.4s-1.2-0.4-1.8-0.4
			c-0.8,0-1.6,0.2-2.4,0.7V523.5z"/>
		<path class="st6" d="M2898,540.6c0-3.4,2.4-5,7.3-5c1.2,0,2.3,0.1,3.4,0.3v-1.3c0-1.5-1.1-2.3-3.3-2.3c-1.8,0-3.9,0.3-6.2,0.8
			v-3.4c2.3-0.5,4.3-0.8,6.2-0.8c5,0,7.5,1.9,7.5,5.6v11.3h-2.5l-1.5-1.5c-1.5,1-3.1,1.5-4.9,1.5C2900,545.8,2898,544.1,2898,540.6z
			 M2905.3,538.4c-2.1,0-3.1,0.7-3.1,2.1c0,1.5,0.9,2.3,2.6,2.3c1.4,0,2.7-0.4,3.9-1.3v-2.7C2907.7,538.5,2906.5,538.4,2905.3,538.4
			z"/>
		<path class="st6" d="M2915.8,545.8v-16.9h3.3l0.5,2.2c1.5-1.4,3.1-2.2,4.7-2.2v3.4c-1.6,0-3,0.7-4.3,2v11.5H2915.8z"/>
		<path class="st6" d="M2929.7,522.8v23h-4.3v-23H2929.7z"/>
		<path class="st6" d="M2931.6,537.4c0-5.7,2.8-8.5,8.4-8.5s8.4,2.8,8.4,8.5c0,5.7-2.8,8.5-8.4,8.5
			C2934.5,545.9,2931.7,543,2931.6,537.4z M2940,542.6c2.7,0,4.1-1.8,4.1-5.3c0-3.4-1.4-5.2-4.1-5.2s-4.1,1.7-4.1,5.2
			C2935.9,540.8,2937.3,542.6,2940,542.6z"/>
	</g>
	<g id="Grupo_85" transform="translate(2540.773 570.641)">
		
			<linearGradient id="Trazado_184_1_" gradientUnits="userSpaceOnUse" x1="-591.8944" y1="499.526" x2="-594.7324" y2="493.138" gradientTransform="matrix(52.446 0 0 -25.3368 32166.3691 11990.5938)">
			<stop  offset="0" style="stop-color:#09005D"/>
			<stop  offset="1" style="stop-color:#1A0F91"/>
		</linearGradient>
		<path id="Trazado_184" class="st28" d="M92.1,416.9c0,0-1.6,8.7-2.5,17.3c-0.3,3.3,2.1,6.2,5.4,6.5c0.1,0,0.2,0,0.3,0
			c11.5,0.6,36.1,1.8,44.9,1.4c1.1,0,1.9-0.9,1.9-2c0-0.2-0.1-0.4-0.1-0.6l0,0c-0.4-1-1.2-1.9-2.2-2.4l-40.5-19.1L92.1,416.9z"/>
		
			<linearGradient id="Trazado_185_1_" gradientUnits="userSpaceOnUse" x1="-133.1859" y1="455.9409" x2="-132.1779" y2="455.9409" gradientTransform="matrix(13.124 0 0 -13.3839 7865.0801 6519.2236)">
			<stop  offset="0" style="stop-color:#FEBBBA"/>
			<stop  offset="1" style="stop-color:#FF928E"/>
		</linearGradient>
		<path id="Trazado_185" class="st29" d="M90.9,411.8l1.1,10.4c0,0,7.1,3.4,12-0.3l-2.8-11.7L90.9,411.8z"/>
		
			<linearGradient id="Trazado_186_1_" gradientUnits="userSpaceOnUse" x1="-475.0185" y1="494.7514" x2="-478.0355" y2="493.8964" gradientTransform="matrix(41.9828 0 0 -200.7379 25671.373 91980.25)">
			<stop  offset="0" style="stop-color:#09005D"/>
			<stop  offset="1" style="stop-color:#1A0F91"/>
		</linearGradient>
		<path id="Trazado_186" class="st30" d="M93.7,215.6c-0.6,2.7-4.2,136,9.5,195.9c0.2,1-0.3,2-1.2,2.3c-3.7,1.4-7.7,2.2-11.6,2.2
			c-1.6,0-3-1-3.4-2.5C83,399.6,64.2,330,62.3,263.6c-2.1-74.1,0-2.5,0-2.5l2.1-45.8L93.7,215.6z"/>
		
			<linearGradient id="Trazado_187_1_" gradientUnits="userSpaceOnUse" x1="-467.8192" y1="600.3578" x2="-474.8392" y2="592.7928" gradientTransform="matrix(21.2005 0 0 -21.402 12806.0342 10195.7773)">
			<stop  offset="0" style="stop-color:#09005D"/>
			<stop  offset="1" style="stop-color:#1A0F91"/>
		</linearGradient>
		<path id="Trazado_187" class="st31" d="M45.3,421c0,0-2.5,4.4-5,16.1c-0.4,2,0.8,3.9,2.8,4.3c0.1,0,0.2,0,0.4,0.1
			c3.8,0.4,9.6,0.9,14.3,1c2,0,3.6-1.6,3.6-3.6c0-0.1,0-0.3,0-0.4c-0.5-4.3-2-11.3-7-16.8L45.3,421z"/>
		
			<linearGradient id="Trazado_188_1_" gradientUnits="userSpaceOnUse" x1="-52.8475" y1="456.1174" x2="-51.8334" y2="456.1174" gradientTransform="matrix(11.259 0 0 -17.5244 6664.8325 8408.9795)">
			<stop  offset="0" style="stop-color:#FEBBBA"/>
			<stop  offset="1" style="stop-color:#FF928E"/>
		</linearGradient>
		<path id="Trazado_188" class="st32" d="M43.3,407.6l2.7,15.8c0,0,2.8,2.2,8.5,0.7l-1.2-17L43.3,407.6z"/>
		
			<linearGradient id="Trazado_189_1_" gradientUnits="userSpaceOnUse" x1="-529.4102" y1="491.3115" x2="-531.4282" y2="490.4685" gradientTransform="matrix(62.7619 0 0 -203.7558 38484.5625 93356.9922)">
			<stop  offset="0" style="stop-color:#09005D"/>
			<stop  offset="1" style="stop-color:#1A0F91"/>
		</linearGradient>
		<path id="Trazado_189" class="st33" d="M37.3,219.1C25,289.3,38.2,393,42.8,413.3c0.3,1.2,1.3,2.2,2.5,2.4c3,0.6,6.1,0.5,9.1-0.3
			c1.2-0.3,2-1.4,2.1-2.6c0.8-16.4,0.6-116.9,11.8-156.5c0.6-2,1.8-3.8,3.5-4.9l21.2-14.8l1.8-24.2L37.3,219.1z"/>
		<g id="Grupo_80" transform="translate(33.451 33.418)">
			<path id="Trazado_190" class="st5" d="M79.4,53.1c-34.9-0.9-73.5,8.5-73.5,8.5c-11,60.6-3.1,130.8-3.1,130.8
				c27,7.3,57.6-3.8,57.6-3.8C65.1,163.3,86.7,92,86.7,92c17.1-2,31.2-6.7,42.8-13.1c-8.7-10.3-12.8-23.4-14.5-31.1
				C102.7,51.5,90.1,53.4,79.4,53.1z"/>
			
				<linearGradient id="Trazado_191_1_" gradientUnits="userSpaceOnUse" x1="-557.9284" y1="423.1432" x2="-556.9344" y2="423.1432" gradientTransform="matrix(67.976 0 0 -78.8824 44063.7969 33418)">
				<stop  offset="0" style="stop-color:#FEBBBA"/>
				<stop  offset="1" style="stop-color:#FF928E"/>
			</linearGradient>
			<path id="Trazado_191" class="st34" d="M183,2.7c-1.8-2.4-5-3.3-7.8-2.3c-5.3,21.7-32.5,39-60.2,47.3c1.7,7.7,5.8,20.8,14.5,31.1
				C175.7,53.5,183,2.7,183,2.7z"/>
		</g>
		<g id="Grupo_81" transform="translate(208.79)">
			
				<linearGradient id="Trazado_192_1_" gradientUnits="userSpaceOnUse" x1="-739.0694" y1="358.2351" x2="-737.0884" y2="355.5521" gradientTransform="matrix(22.8726 0 0 -38.427 18574.7441 17558.3496)">
				<stop  offset="0" style="stop-color:#FEBBBA"/>
				<stop  offset="1" style="stop-color:#FF928E"/>
			</linearGradient>
			<path id="Trazado_192" class="st35" d="M6.8,37.2C7.2,38.3,3,40,0.6,35.3c-0.1-2.2-1.3-11.8,0-13.6C7.8,12,21.8,0,21.8,0
				c1.3,1.2,1.5,3.2,0.4,4.6l-6.8,6.9c1.4,2.5,3.1,4.7,3.8,7.8c0.6,2.3,0.2,4.8-1,6.9c-1.2,2.1-2.8,4.8-4.4,7
				C12.2,35.5,9.7,37,6.8,37.2z"/>
			
				<linearGradient id="Trazado_193_1_" gradientUnits="userSpaceOnUse" x1="-435.2386" y1="772.1755" x2="-433.2376" y2="773.9555" gradientTransform="matrix(9.4467 0 0 -16.331 7478.0737 7472.3237)">
				<stop  offset="0" style="stop-color:#FEBBBA"/>
				<stop  offset="1" style="stop-color:#FF928E"/>
			</linearGradient>
			<path id="Trazado_193" class="st36" d="M12.4,16l-6.1,5.1l-2,5.1l5.4,6.1c0,0,1.9-10.2,3.3-12.4S13.6,16.6,12.4,16z"/>
		</g>
		<path id="Trazado_194" class="st5" d="M52.4,129L39.3,95c0,0-32.8,21.9-38.5,49.9c9.8,0.8,19.4,3.5,28.3,7.9
			C31.6,139.6,52.4,129,52.4,129z"/>
		
			<linearGradient id="Trazado_195_1_" gradientUnits="userSpaceOnUse" x1="-543.4843" y1="456.4605" x2="-542.4822" y2="456.4605" gradientTransform="matrix(85.3209 0 0 -43.9551 52394.7148 20230.6719)">
			<stop  offset="0" style="stop-color:#FEBBBA"/>
			<stop  offset="1" style="stop-color:#FF928E"/>
		</linearGradient>
		<path id="Trazado_195" class="st37" d="M80.6,161.1c0,0-36.8,20.3-49,2.6c-2.3-3.1-3.2-7-2.4-10.8c-8.8-4.4-18.4-7.1-28.3-7.9
			c-1.9,9.1-0.5,18.5,4,26.6c21.3,39.8,80.5-1.4,80.5-1.4L80.6,161.1z"/>
		
			<linearGradient id="Trazado_196_1_" gradientUnits="userSpaceOnUse" x1="-431.5434" y1="456.4137" x2="-430.5524" y2="456.4137" gradientTransform="matrix(34.1038 0 0 -36.4586 20806.7207 16716.3105)">
			<stop  offset="0" style="stop-color:#FEBBBA"/>
			<stop  offset="1" style="stop-color:#FF928E"/>
		</linearGradient>
		<path id="Trazado_196" class="st38" d="M77.7,57.9l-11.4,32c-0.2,0.5,0,1.1,0.5,1.4c3,1.7,13.9,6.6,27.1-1.6
			c1.4-0.8,2.3-2.3,2.5-3.9l3.9-27.8L77.7,57.9z"/>
		<g id="Grupo_82" transform="translate(56.744 11.646)">
			
				<linearGradient id="Trazado_197_1_" gradientUnits="userSpaceOnUse" x1="-666.2658" y1="446.8575" x2="-666.5888" y2="447.9225" gradientTransform="matrix(39.0474 0 0 -39.0891 26028.4121 17422.5625)">
				<stop  offset="0" style="stop-color:#FEBBBA"/>
				<stop  offset="1" style="stop-color:#FF928E"/>
			</linearGradient>
			<path id="Trazado_197" class="st39" d="M45.4,16.7c0,0,12,23.1,10.3,32.3S39,57.5,25.9,49.8l-9-24.9L45.4,16.7z"/>
			
				<linearGradient id="Trazado_198_1_" gradientUnits="userSpaceOnUse" x1="-667.1852" y1="441.5143" x2="-666.9811" y2="440.3313" gradientTransform="matrix(51.732 0 0 -50.9338 34570.9258 22683.166)">
				<stop  offset="0" style="stop-color:#09005D"/>
				<stop  offset="1" style="stop-color:#1A0F91"/>
			</linearGradient>
			<path id="Trazado_198" class="st40" d="M26.6,37.7c0.5-0.2,0.7-0.8,0.5-1.2c0,0,0-0.1-0.1-0.1c-1.5-2.2-2.6-4.7-3.3-7.2
				c0,0-2.2-1.4,5.6-3.2s19.4-4.6,21.9-11.2C53.6,8.2,47.5-8,37.5,4.8c-0.3,0.4-0.9,0.5-1.3,0.2C36.1,4.9,36,4.9,36,4.8
				c-1.6-2.1-5.9-6.6-11.9-4c-5.6,2.5-6.3,6.5-6.2,8.6c0,0.5-0.4,1-0.9,1c-0.1,0-0.1,0-0.2,0C14,9.8,7.2,9.3,4,16.2
				c-2.7,5.7-1,8.9,0.5,10.5c0.4,0.4,0.4,1,0,1.3c-0.1,0.1-0.2,0.2-0.4,0.2c-1.9,0.5-4.3,2.1-4.1,6.4c0.3,6,7,5.5,8.9,5.3
				c0.3,0,0.6,0.1,0.8,0.3c1.6,1.8,8.9,9.6,16.9,10.6c0.5,0.1,1-0.3,1.1-0.8c0-0.1,0-0.3,0-0.4l-3.4-10.1c-0.2-0.5,0.1-1,0.5-1.2
				L26.6,37.7z"/>
			
				<linearGradient id="Trazado_199_1_" gradientUnits="userSpaceOnUse" x1="-638.7833" y1="407.5208" x2="-639.7303" y2="412.1328" gradientTransform="matrix(12.0011 0 0 -8.1243 7779.7378 3645.7976)">
				<stop  offset="0" style="stop-color:#FEBBBA"/>
				<stop  offset="1" style="stop-color:#FF928E"/>
			</linearGradient>
			<path id="Trazado_199" class="st41" d="M27.9,39.1c0,0-8.6-6-9.3-1s7.8,7.3,12,5.5L27.9,39.1z"/>
		</g>
		<g id="Grupo_84" transform="translate(72.948 117.362)">
			<g id="Grupo_83">
				
					<linearGradient id="Trazado_200_1_" gradientUnits="userSpaceOnUse" x1="-684.42" y1="327.5489" x2="-683.907" y2="325.0589" gradientTransform="matrix(91.8864 0 0 -78.91 63155.3711 26805.6621)">
					<stop  offset="0" style="stop-color:#09005D"/>
					<stop  offset="1" style="stop-color:#1A0F91"/>
				</linearGradient>
				<path id="Trazado_200" class="st42" d="M0.1,75.9l20.1-70C20.4,5,21,4.4,21.9,4.4C25.5,3.9,36,2.7,48.2,1.7
					C62.8,0.5,79.8-0.5,90,0.3c1.1,0.1,2,1.1,1.9,2.2c0,0.3-0.1,0.5-0.2,0.7C85.9,15,62.1,62.5,50.2,78.1c-0.4,0.5-1,0.8-1.7,0.8
					L2,78.5c-1.1,0-2-0.9-2-2.1C0,76.2,0,76,0.1,75.9z"/>
				
					<linearGradient id="Trazado_201_1_" gradientUnits="userSpaceOnUse" x1="-465.8775" y1="338.9095" x2="-464.8775" y2="338.9095" gradientTransform="matrix(26.7216 0 0 -24.0119 18130.332 8184.9287)">
					<stop  offset="0" style="stop-color:#FEBBBA"/>
					<stop  offset="1" style="stop-color:#FF928E"/>
				</linearGradient>
				<path id="Trazado_201" class="st43" d="M4.9,58.9c0,0-2.8-11.5-1.7-15.6s3.3-9.3,10.6-8.2c5.4,1,10.7,2.4,15.9,4.2
					c0,0-0.4,5.3-6,3.6l3.4,2.7c0,0-0.5,4.3-5.2,2l3.2,3.5c0,0-2,3.5-5.4,1.3S14.7,60.3,4.9,58.9z"/>
			</g>
			<path id="Trazado_202" class="st2" d="M46.9,22.6c0,3.3,2.6,5.9,5.9,5.9s5.9-2.6,5.9-5.9c0-3.3-2.6-5.9-5.9-5.9
				C49.5,16.7,46.9,19.4,46.9,22.6C46.9,22.6,46.9,22.6,46.9,22.6z"/>
			<path id="Trazado_203" class="st2" d="M22.4,26.5l-1.5-0.4L25,12.2c0.6-2.2,2.5-3.9,4.8-4.4c12.9-2.7,47-3.3,48.5-3.3l0,1.6
				c-0.4,0-35.4,0.6-48.2,3.2c-1.7,0.4-3.1,1.6-3.6,3.3L22.4,26.5z"/>
		</g>
	</g>
</g>
</svg>
