<?xml version="1.0" encoding="utf-8"?>
<!-- Generator: Adobe Illustrator 24.3.0, SVG Export Plug-In . SVG Version: 6.00 Build 0)  -->
<svg version="1.1" id="Capa_1" xmlns="http://www.w3.org/2000/svg" xmlns:xlink="http://www.w3.org/1999/xlink" x="0px" y="0px"
	 viewBox="0 0 1080 1080" style="enable-background:new 0 0 1080 1080;" xml:space="preserve">
<style type="text/css">
	.st0{fill:#FFFFFF;}
</style>
<g id="myxUz6_2_">
	<g>
		<path class="st0" d="M534.06,943.21c-13.63-6.28-18.53-17.06-17.48-31.74c0.77-10.68,0.15-21.46,0.15-32.47
			c-13.91,2.32-27.18,5.21-40.61,6.64c-42.09,4.49-82.89,0.82-119.83-22.33c-31.31-19.62-52.93-47.95-67.28-81.23
			c-9.69-22.48-16.45-46.32-23.22-69.93c-4.75-16.56,1.47-26.66,17.74-32.37c43.71-15.32,88.39-22.47,134.57-14.36
			c37.77,6.63,68.35,25.62,92.54,55.18c1.58,1.93,3.21,3.82,6.04,7.17c0-8.77,0-15.74,0-22.71c0.01-19.95,0.19-39.9-0.15-59.84
			c-0.04-2.65-2.08-6.78-4.23-7.65c-60.62-24.51-112.48-61.57-157.37-108.77c-0.36-0.37-0.84-0.62-1.26-0.93
			c-36.79,37.32-74.39,42.9-106.31,15.89c-25.24-21.35-37.76-63.79-7.14-102.13c-16.12-20.25-21.35-43.12-13.53-68.28
			c5.91-19,18.27-32.68,35.93-41.74c32.18-16.51,80.71-6.3,99.21,41.62c21.49-2.82,41.57,1.13,58.79,15.4
			c11.67,9.67,19.42,21.99,23.28,36.58c8.79,33.31-5.06,61.45-41.48,84.15c33.3,32.6,70.69,58.88,113.88,78.23
			c0-77.32,0-153.75,0-230.22c-49.11,5.87-79.64-10.01-90.91-47.07c-11.04-36.27,5.01-67.93,43.66-87.84
			c0.92-11.29,0.31-22.26,2.94-32.39c7.14-27.48,25.5-44.41,52.94-51.56c2.01-0.52,3.99-1.14,5.98-1.72c6.3,0,12.6,0,18.9,0
			c7.88,2.74,16.2,4.61,23.55,8.37c27.52,14.09,40.61,41.7,36.75,76.8c21.89,8.53,37.73,23.56,45.15,46.52
			c5.03,15.56,4.21,31.04-1.52,46.27c-12.94,34.44-42.4,48.55-89.36,42.64c0,76.35,0,152.65,0,230.22
			c43.15-19.12,80.44-45.7,114.04-78.2c-37.35-23.45-50.94-52-41.17-85.68c10.03-34.59,36.85-51.41,81.84-50.86
			c9.12-24.04,25.89-40.57,51.53-46.75c19.58-4.72,38.08-1.17,54.99,9.75c32.13,20.77,44.95,67.54,15.19,105.56
			c25.67,42.89,22.15,79.85-9.94,104.25c-32.74,24.9-68.24,18.82-104-18.03c-24.82,26.18-51.38,50.57-82.21,69.32
			c-23.88,14.52-49.26,26.61-74.2,39.32c-4.55,2.32-6.73,4.22-6.57,9.71c0.46,15.64,0.16,31.31,0.16,46.32
			c11.87-7.79,22.9-16.8,35.36-22.86c32.9-16.02,67.63-14.57,102.41-7.43c10.23,2.1,20.3,5.26,30.18,8.69
			c14.41,5,19.96,15.38,16.93,30.15c-5.91,28.81-16.26,55.79-33.01,80.14c-26.73,38.85-64.47,55.44-110.7,54.15
			c-13.54-0.38-27.03-2.36-41.21-3.67c0,16.3,0,32.79,0,49.28c0,10.24-0.6,20.52,0.14,30.7c1.07,14.66-3.83,25.45-17.47,31.74
			C542.46,943.21,538.26,943.21,534.06,943.21z M315.77,718.8c6.81,25.06,16,47.75,29.83,68.42c9.27,13.86,20.15,26.32,34.51,35.1
			c42.41,25.94,86.84,19.13,132.48,8.35c-9.24-32.77-21.92-62.58-44.84-87.21c-13.39-14.38-29.41-24.45-48.47-29.27
			C384.7,705.46,350.68,709.68,315.77,718.8z M569.06,782.34c64.13,17.31,109.01-1.98,128-72.43
			C630.4,692.44,589.73,714.05,569.06,782.34z M811.21,489.71c0.07-12.93-10.26-23.48-23.2-23.69
			c-12.86-0.21-23.62,10.12-23.91,22.98c-0.3,13.15,10.44,24.13,23.6,24.13C800.54,513.13,811.15,502.55,811.21,489.71z
			 M316.56,489.43c-0.06-12.96-10.71-23.5-23.65-23.42c-12.99,0.09-23.45,10.65-23.41,23.64c0.04,12.89,10.76,23.5,23.65,23.43
			C306.14,513.01,316.63,502.41,316.56,489.43z M563.95,207.38c-0.15-12.75-10.93-23.36-23.68-23.32
			c-12.74,0.04-23.46,10.74-23.52,23.48c-0.06,13.06,11.03,23.99,24.06,23.72C553.57,231,564.11,220.11,563.95,207.38z
			 M611.2,289.87c0.22-12.75-10.26-23.63-23.03-23.92c-12.8-0.29-23.74,10.03-24.16,22.79c-0.43,13.01,10.4,24.28,23.42,24.38
			C600.13,313.22,610.99,302.6,611.2,289.87z M516.66,289.38c-0.07-12.82-10.86-23.49-23.68-23.43
			c-12.84,0.06-23.53,10.83-23.47,23.65c0.06,12.75,10.96,23.55,23.7,23.48C506.06,313.01,516.73,302.22,516.66,289.38z
			 M294.12,371.56c-13.13-0.02-23.37,10.21-23.44,23.42c-0.08,13.13,10.21,23.6,23.23,23.64c12.93,0.04,23.43-10.4,23.58-23.46
			C317.63,382.23,307.09,371.58,294.12,371.56z M810.09,395.4c0.16-13.2-9.93-23.67-23.01-23.88c-12.93-0.2-23.66,10.22-23.86,23.17
			c-0.2,12.95,10.23,23.74,23.13,23.93C799.37,418.82,809.93,408.5,810.09,395.4z M398.75,443.36c0.1-13.21-10.02-23.52-23.18-23.61
			c-13.07-0.09-23.62,10.19-23.79,23.18c-0.17,12.95,10.25,23.47,23.36,23.57C388.37,466.6,398.65,456.52,398.75,443.36z
			 M681.95,443.47c0.14,13.15,10.52,23.21,23.77,23.03c13.09-0.17,23.54-10.84,23.25-23.73c-0.29-13.04-10.88-23.25-23.95-23.11
			C691.93,419.81,681.81,430.26,681.95,443.47z"/>
	</g>
</g>
</svg>
