<?xml version="1.0" encoding="utf-8"?>
<!-- Generator: Adobe Illustrator 24.3.0, SVG Export Plug-In . SVG Version: 6.00 Build 0)  -->
<svg version="1.1" id="Capa_1" xmlns="http://www.w3.org/2000/svg" xmlns:xlink="http://www.w3.org/1999/xlink" x="0px" y="0px"
	 viewBox="0 0 1080 1080" style="enable-background:new 0 0 1080 1080;" xml:space="preserve">
<style type="text/css">
	.st0{fill:#FFFFFF;}
	.st1{fill:#5379F6;}
	.st2{fill:#EF4041;}
</style>
<g>
	<path class="st1" d="M567.8,1014.82c-0.06,0-0.13,0-0.2,0c-31.17-0.44-62.83-3.97-91.56-10.18c-7.13-1.54-15.19-3.29-23.96-5.38
		c-7.64-1.82-12.36-9.49-10.53-17.13c1.82-7.63,9.52-12.35,17.12-10.53c8.57,2.04,16.43,3.74,23.39,5.24
		c26.91,5.82,56.63,9.12,85.95,9.54c7.85,0.11,14.12,6.57,14.01,14.42C581.91,1008.59,575.56,1014.82,567.8,1014.82z M680.42,1002
		c-6.35,0-12.13-4.29-13.77-10.72c-1.93-7.61,2.67-15.34,10.27-17.28c36.01-9.16,69.75-23.42,100.3-42.38
		c6.65-4.13,15.43-2.1,19.57,4.58c4.14,6.67,2.09,15.43-4.58,19.57c-33.01,20.49-69.44,35.9-108.27,45.77
		C682.76,1001.86,681.57,1002,680.42,1002z M349.19,960.02c-2.34,0-4.71-0.58-6.9-1.8c-35.34-19.67-66.02-44.97-91.19-75.23
		c-5.02-6.03-4.19-15,1.84-20.02c6.04-5.03,15-4.2,20.02,1.84c22.91,27.54,50.88,50.61,83.16,68.56c6.86,3.82,9.33,12.48,5.51,19.33
		C359.02,957.38,354.18,960.02,349.19,960.02z M869.47,883.21c-2.95,0-5.93-0.92-8.48-2.81c-6.3-4.69-7.61-13.59-2.92-19.89
		c19.92-26.77,36.19-59.45,48.35-97.16c2.41-7.47,10.45-11.57,17.89-9.17c7.48,2.41,11.58,10.42,9.17,17.89
		c-13.12,40.68-30.82,76.14-52.6,105.41C878.09,881.23,873.81,883.21,869.47,883.21z M206.3,789.72c-5.82,0-11.28-3.6-13.37-9.39
		c-12.85-35.59-20.72-74.26-23.41-114.91c-0.52-7.83,5.41-14.6,13.25-15.12c7.53-0.58,14.6,5.4,15.12,13.24
		c2.51,38,9.84,74.04,21.79,107.13c2.67,7.39-1.17,15.53-8.55,18.2C209.53,789.45,207.91,789.72,206.3,789.72z M941.8,670.62
		c-0.4,0-0.8-0.01-1.19-0.05c-7.83-0.65-13.64-7.52-12.99-15.34c1.21-14.47,1.82-29.28,1.83-44c0-22.27-1.41-44.64-4.19-66.47
		c-0.99-7.79,4.52-14.91,12.31-15.9c7.79-0.95,14.91,4.52,15.9,12.3c2.92,23.02,4.41,46.59,4.41,70.07
		c-0.01,15.51-0.66,31.1-1.93,46.35C955.33,665.01,949.11,670.62,941.8,670.62z M189.69,565.43c-0.79,0-1.57-0.06-2.38-0.2
		c-7.74-1.3-12.96-8.63-11.66-16.37c6.52-38.75,17.24-76.49,31.87-112.16c2.98-7.26,11.26-10.73,18.55-7.76
		c7.27,2.98,10.74,11.28,7.76,18.55c-13.83,33.72-23.97,69.42-30.13,106.08C202.53,560.52,196.5,565.43,189.69,565.43z
		 M912.56,446.97c-5.77,0-11.19-3.53-13.32-9.25c-13.25-35.52-30.62-67.94-51.64-96.36c-4.66-6.32-3.33-15.22,2.98-19.88
		c6.3-4.67,15.22-3.34,19.88,2.98c22.59,30.56,41.24,65.32,55.42,103.33c2.75,7.36-0.99,15.54-8.35,18.29
		C915.89,446.68,914.21,446.97,912.56,446.97z M275.66,357.09c-2.86,0-5.75-0.86-8.26-2.65c-6.39-4.56-7.87-13.44-3.3-19.83
		c23.66-33.09,50.6-61.89,80.1-85.59l1.09-0.8c6.57-4.31,15.64-2.65,19.94,3.91c4.3,6.53,2.76,15.15-3.74,19.47
		c-27.27,22-52.25,48.76-74.25,79.54C284.46,355.02,280.09,357.09,275.66,357.09z M778.01,268.12c-2.8,0-5.64-0.82-8.11-2.55
		c-29.45-20.49-62.42-36.46-97.98-47.46c-7.5-2.32-11.7-10.28-9.38-17.78c2.32-7.49,10.28-11.69,17.78-9.38
		c38.37,11.87,73.97,29.13,105.81,51.3c6.45,4.48,8.03,13.34,3.55,19.79C786.92,265.99,782.5,268.12,778.01,268.12z M452.43,218.77
		c-5.9,0-11.4-3.7-13.44-9.58c-2.56-7.42,1.38-15.52,8.8-18.08c19.82-6.84,40.48-11.79,61.41-14.7c16.93-2.36,34.42-3.55,51.98-3.55
		l3.14,0.01c7.85,0.07,14.16,6.5,14.09,14.35c-0.07,7.81-6.42,14.09-14.22,14.09c-0.05,0-0.08,0-0.13,0l-2.88-0.01
		c-16.26,0-32.43,1.1-48.07,3.28c-19.1,2.65-37.95,7.16-56.05,13.41C455.53,218.52,453.97,218.77,452.43,218.77z"/>
</g>
<g>
	<path class="st2" d="M835.83,821.11c-16.58,17.45-32.26,28.71-44.65,37.6c-145.67,104.52-318.04,74.05-354.67,66.61
		c-54.09-10.99-158.66-32.22-234.26-121.13c-114.37-134.5-96.56-346.4-7.85-486.28c16.23-25.59,101.95-167.6,276.17-190.37
		c105.44-13.78,228.34,14.02,317.35,88.58C974.75,372.65,961.45,688.86,835.83,821.11z"/>
</g>
<g>
	<g>
		<path class="st0" d="M285.79,468.46V304.16h30.45l86.74,119.72V304.16h29.3v164.29h-30.45l-86.75-122.24v122.24H285.79z"/>
	</g>
	<g>
		<path class="st0" d="M484.91,304.16v24.12h-30.45v-24.12H484.91z M484.91,347.82v120.64h-30.45V347.82H484.91z"/>
	</g>
	<g>
		<path class="st0" d="M489.86,347.82h32.17l29.3,84.33l30.45-84.33h32.17l-49.06,120.64h-28.96L489.86,347.82z"/>
	</g>
	<g>
		<path class="st0" d="M669.79,347.82c36.61,0,54.92,18.69,54.92,56.07c0,4.98-0.34,9.95-1.04,14.93H643.6
			c0,17.01,12.48,25.51,37.45,25.51c12.17,0,24.35-1.15,36.53-3.45v24.13c-10.64,2.3-23.59,3.45-38.83,3.45
			c-43.73,0-65.6-20.56-65.6-61.7C613.15,367.47,632.03,347.82,669.79,347.82z M643.6,397.68h51.47v-0.92
			c0-16.7-8.42-25.04-25.28-25.04C653.71,371.72,644.98,380.37,643.6,397.68z"/>
	</g>
	<g>
		<path class="st0" d="M768.6,304.16v164.29h-30.44V304.16H768.6z"/>
	</g>
</g>
<g>
	<g>
		<path class="st0" d="M507.44,793.69V560.01h-28.95v-21.03l80.08-27.02v281.72H507.44z"/>
	</g>
</g>
</svg>
