<?xml version="1.0" encoding="utf-8"?>
<!-- Generator: Adobe Illustrator 24.3.0, SVG Export Plug-In . SVG Version: 6.00 Build 0)  -->
<svg version="1.1" id="Capa_1" xmlns="http://www.w3.org/2000/svg" xmlns:xlink="http://www.w3.org/1999/xlink" x="0px" y="0px"
	 viewBox="0 0 1080 1080" style="enable-background:new 0 0 1080 1080;" xml:space="preserve">
<style type="text/css">
	.st0{fill:#FFFFFF;}
</style>
<g>
	<path class="st0" d="M387.39,468.96c72.14,72.2,143.52,143.63,214.85,215.02c18.83-20.69,18.88-39.37-0.85-59.73
		c-1.27-1.31-3.46-2.45-3.71-3.92c-1.36-8.05-5.9-18.49-2.53-23.79c6.46-10.18,16.67-6.14,25.15,0.91
		c6.77,5.63,14.81,15.74,21.03,14.87c16.94-2.36,37.76-4.74,49-15.5c72.2-69.16,142.24-140.57,213.01-211.22
		c8.83-8.82,7.52-16.91-0.94-25.18c-13.51-13.22-26.72-26.74-40.15-40.05c-8.36-8.28-15.8-17.59-4.74-27.93
		c9.58-8.96,18.92-3.65,26.99,4.61c13.63,13.96,27.83,27.37,41.3,41.48c22.16,23.21,22.75,46.74,0.45,69.2
		c-70.88,71.41-141.64,142.95-213.99,212.85c-11.67,11.27-30.69,16.19-47.23,20.76c-11.03,3.05-17.48,5.8-17.78,18.24
		c-0.52,22.07-11.97,39.13-27.01,54.21c-15.72,15.76-22.27,15.96-37.81,0.54c-22.51-22.33-44.88-44.81-67.3-67.22
		C462.52,594.5,409.86,541.96,357.3,489.31c-16.45-16.48-16.07-20.74-0.16-37.58c14.87-15.74,32.3-25.68,54.21-26.88
		c11.9-0.65,16.24-5.62,19.37-18.53c4.38-18.1,11.86-38.11,24.42-51.13c68.58-71.07,138.99-140.39,209.07-210
		c20.67-20.53,47.24-20.16,68.27,0.12c14.49,13.96,28.5,28.42,42.75,42.62c8.03,8,13.96,17.09,3.59,26.59
		c-9.79,8.96-18.94,3.72-26.99-4.48c-12.82-13.05-26.09-25.66-38.72-38.89c-9.98-10.46-18.83-11.12-29.43-0.47
		C614.88,239.82,546,308.92,476.61,377.5c-15.25,15.07-15.94,34.27-15.84,52.4c0.04,7.64,14.27,14.34,19.13,23.09
		c3.41,6.14,1.89,15.02,2.57,22.68c-8.17-0.12-16.37,0.06-24.5-0.59c-1.87-0.15-3.5-3.19-5.25-4.88
		C432.38,450.53,408.85,450.38,387.39,468.96z"/>
	<path class="st0" d="M430.2,949.51c-87.17,0-174.33,0-261.5-0.01c-4.87,0-10.84,1.61-14.38-0.6c-6.43-4.01-11.42-10.32-17.02-15.68
		c5.72-5.28,12.27-15.74,17.04-14.99c30.58,4.84,48.13-14.49,67.51-32.06c29.79-27.01,60.16-53.39,90.53-79.75
		c25.3-21.97,48.49-19.96,70.93,5.59c25.36,28.89,67.46,29.29,93.38,0.9c25.42-27.84,46.3-28.86,74.96-3.66
		c35.23,30.99,70.84,61.56,105.45,93.23c11.54,10.56,23.07,16.7,38.89,14.82c5.86-0.69,12.97-0.68,17.76,2.06
		c5,2.86,10.96,9.47,10.85,14.31c-0.11,4.93-6.23,11.34-11.34,14.07c-4.88,2.61-11.84,1.69-17.89,1.7
		C606.98,949.53,518.59,949.51,430.2,949.51z M236.54,915.63c131.32,0,257.59,0,387.59,0c-34.77-30.59-66.68-58.71-98.67-86.74
		c-7.77-6.81-14.46-6.07-22,1.74c-46.64,48.3-98.87,48.03-146.7,0.68c-3.94-3.9-16-5.86-19.5-2.95
		C304.11,855.84,272,884.58,236.54,915.63z"/>
	<path class="st0" d="M611.38,452.42c-19.5,0-37.83,1.16-55.95-0.28c-25.37-2.02-37.9-22.79-26.94-45.8
		c27.6-57.96,72.47-95.12,136.01-108.73c6.25-1.34,12.55-4.08,17.95-7.53c27.16-17.34,54.67-19.96,82.41-2.16
		c28.42,18.24,38.26,44.82,31.65,77.35c-14.92,73.41-54.99,129.24-119.66,166.93c-29.14,16.98-55.03,3.81-60.01-29.75
		C614.44,486.28,613.25,469.95,611.38,452.42z M650.48,506.8c4.13-0.53,6.16-0.26,7.58-1.06c59.58-33.3,95.22-84.02,107.58-150.69
		c1.77-9.54-3.03-20.3-4.79-30.49c-1.83-0.1-3.66-0.19-5.48-0.29c-9.89,21.35-19.79,42.7-29.68,64.05
		c-4.98,10.77-10.23,23.04-25.11,16.52c-14.75-6.46-10.14-17.79-4.6-29.17c10.42-21.43,19.93-43.3,29.82-64.99
		c-1.49-1.5-2.98-3.01-4.47-4.51c-9.6,6.31-21.63,10.7-28.41,19.25C650.74,378.58,636.91,438.89,650.48,506.8z M642.03,338.29
		c-39.66,16.55-66.03,43.45-86,84.15c22.2-1.29,40.58-2.37,57.46-3.35C623.23,391.52,632.24,365.99,642.03,338.29z"/>
	<path class="st0" d="M513.05,491.23c5.52,3.26,10.8,5.22,14.53,8.79c14.94,14.31,29.45,29.07,44,43.78
		c7.3,7.38,10.79,17.41,1.52,23.4c-5.52,3.56-18.41,2.82-23.52-1.39c-16.35-13.5-31.22-28.99-45.3-44.91
		c-3.89-4.4-4.72-13.29-3.68-19.58C501.21,497.58,508.23,494.9,513.05,491.23z"/>
	<path class="st0" d="M404.2,649.23c0-4.85-1.82-10.89,0.41-14.27c3.82-5.8,9.75-12.99,15.6-13.8c4.5-0.62,13.58,6.92,14.73,12.13
		c2.42,10.99,2.94,23.3,0.37,34.15c-1.44,6.07-10.63,10.3-16.34,15.36c-4.97-5.73-11.12-10.86-14.48-17.42
		c-2.22-4.32-0.42-10.69-0.42-16.15C404.11,649.23,404.16,649.23,404.2,649.23z"/>
	<path class="st0" d="M483.08,727.76c0.18,10.46-29.39,39.37-39.86,38.97c-11.39-0.44-19.81-12.85-13.01-21.95
		c8.54-11.42,19.21-21.93,30.85-30.15C470.3,708.11,482.9,716.79,483.08,727.76z"/>
	<path class="st0" d="M819.58,276.4c-7.81-10.5-15.56-16.41-15.54-22.29c0.01-5.07,9.65-14.75,13.66-14.09
		c6.18,1.02,14.1,8.37,15.72,14.5C834.58,258.95,826.7,265.76,819.58,276.4z"/>
</g>
</svg>
