<?xml version="1.0" encoding="utf-8"?>
<!-- Generator: Adobe Illustrator 24.3.0, SVG Export Plug-In . SVG Version: 6.00 Build 0)  -->
<svg version="1.1" id="Capa_1" xmlns="http://www.w3.org/2000/svg" xmlns:xlink="http://www.w3.org/1999/xlink" x="0px" y="0px"
	 viewBox="0 0 1080 1080" style="enable-background:new 0 0 1080 1080;" xml:space="preserve">
<style type="text/css">
	.st0{fill:#FFFFFF;}
</style>
<g>
	<path class="st0" d="M650.21,380.67c30.98-29.05,61.91-58.52,93.48-87.29c6.59-6.01,15.78-13.58,23.28-13.09
		c10.24,0.67,24.01,5.93,28.86,13.79c4.86,7.87,1.75,21.56-0.17,32.29c-0.88,4.9-7.12,8.97-11.2,13.15
		c-39.37,40.21-78.78,80.38-118.21,120.54c-51.33,52.28-82.6,114.43-92.2,187.22c-0.29,2.18-0.04,4.43-0.04,8.73
		c14.67-12.1,27.45-23.93,41.55-33.89c12.34-8.71,25.72-16.3,39.46-22.61c17.26-7.92,34.59-1.38,41.72,13.95
		c7.28,15.66,1.4,32.65-15.9,41c-40.86,19.73-70.59,51.58-97.32,86.92c-1.65,2.18-2.76,4.77-4.85,8.43c7.81,0,13.94,0.14,20.07-0.02
		c39.04-1.06,69.55,15.47,90.8,47.25c7.01,10.5,14.57,14.47,26,16.86c39.4,8.23,71,46.98,70.9,85.47
		c-0.05,19.18-11.14,32.54-28.29,34.08c-17.06,1.54-29.83-9.63-33.23-29.06c-4.44-25.37-14.01-32.71-39.69-30.48
		c-25.83,2.25-34.59-3.9-41.35-29.15c-4.86-18.14-16.18-29.43-34.9-32.79c-17.4-3.12-31.66,3.03-41.35,17.09
		c-9.26,13.45-20.26,21.17-36.8,17.28c-16.07-3.77-20.97-15.86-23.92-30.94c-4.84-24.79-26.75-38.17-51.3-33.34
		c-22.8,4.49-36.44,25.72-32.26,50.22c5.73,33.57-8.47,48.01-41.3,42.02c-25.52-4.66-38.26,4.73-42.23,31.12
		c-2.66,17.7-15.85,29.16-32.31,28.08c-16.81-1.1-28.12-13.62-28.7-31.75c-1.23-38.95,28.89-77.1,68.14-87.92
		c5.86-1.61,13.33-7.43,14.95-12.83c19.23-64.16,73.03-94.18,138.02-76.08c2.19,0.61,4.5,0.83,8.78,1.59
		c-0.6-28.41,5.91-56.35-10.07-82.3c-19-30.87-37.22-62.21-56.61-92.83c-2.5-3.94-11.16-7.99-14.91-6.56
		c-115.64,43.92-198.05-27.01-240.51-113.22c-29.23-59.34-40.34-123.18-40.46-189.01c-0.04-22.08,11.42-34.46,33.24-34.35
		c79.23,0.42,155.31,14.41,222.8,58.64c48.13,31.54,84.28,72.77,93.4,132.12c4.49,29.22-2.7,56.86-14.1,83.77
		c-2.08,4.91-2.57,12.95,0.09,17c14.77,22.46,30.73,44.14,46.79,66.8c8.36-18.71,15.15-37.99,25.19-55.4
		c13.11-22.75,29.21-43.77,43.06-66.12c3.33-5.38,6-14.54,3.7-19.54c-37.59-81.55-10.88-148.38,55.48-204.14
		c53.75-45.16,119.06-63.86,187.74-71.65c18.61-2.11,37.42-3.27,56.15-3.37c20.61-0.12,34.36,11.4,34.17,29.94
		c-1,94.6-17.91,184.81-84.27,257.49c-18.1,19.83-42.16,34.99-65.42,49.1c-19.54,11.85-38.66,5.1-46.6-11.79
		c-7.73-16.43-1.17-33.04,18.97-42.62c49.71-23.65,77.31-65.55,93.51-115.33c10.6-32.57,16.37-66.71,25.51-105.24
		c-24.15,3.41-43.05,5.08-61.52,8.89c-53.12,10.95-102.36,30.09-139.69,71.79C646.04,320.22,639.09,349.56,650.21,380.67z
		 M389.69,490.97c-20.41-21.33-39.67-42.41-60.02-62.38c-12.91-12.68-27.8-23.32-41.11-35.63c-9.82-9.08-14.79-22.12-7.23-33.23
		c5.83-8.57,17.07-16.42,27.08-18.27c7.9-1.46,19.12,4.87,26.2,10.88c32.44,27.53,63.95,56.16,95.97,84.56
		c0.75-1.09,2.14-2.35,2.55-3.88c0.76-2.79,1.07-5.73,1.36-8.63c2.62-26.85-7.58-49.39-24.55-69.09
		c-52.46-60.89-123.72-76.94-200.91-84.76c3.08,45.73,11.84,87.66,29.83,127.4c16.25,35.9,38.89,66.56,73.87,86.65
		C337.65,498.91,363.41,498.67,389.69,490.97z"/>
</g>
</svg>
