<?xml version="1.0" encoding="utf-8"?>
<!-- Generator: Adobe Illustrator 24.3.0, SVG Export Plug-In . SVG Version: 6.00 Build 0)  -->
<svg version="1.1" id="Capa_1" xmlns="http://www.w3.org/2000/svg" xmlns:xlink="http://www.w3.org/1999/xlink" x="0px" y="0px"
	 viewBox="0 0 1080 1080" style="enable-background:new 0 0 1080 1080;" xml:space="preserve">
<style type="text/css">
	.st0{fill:#FFFFFF;}
</style>
<g id="E6DJjF_2_">
	<g>
		<g>
			<path class="st0" d="M441.8,550.78c-7.58-4.82-15.04-9.84-22.76-14.42c-30.57-18.12-62.01-34.9-91.64-54.44
				c-31.8-20.98-57.02-48.57-69.11-85.82c-6.85-21.12-10.09-42.83-4.01-64.86c10.18-36.83,46.26-59.76,84.62-53.96
				c37.18,5.63,64.65,39.7,63.03,78.18c-1.59,37.69-31.79,68.57-69.78,71.16c-5.67,0.39-11.4,0.05-17.57,0.05
				c0-7.94,0-15.66,0-24.15c5.58-0.33,11.22-0.49,16.83-1.01c26.87-2.46,46.76-25.56,45.43-52.65c-1.31-26.63-24.2-47.84-51.05-47.3
				c-27.05,0.54-48.96,22.08-49.28,49.04c-0.46,38.8,16.53,69.67,44.99,94.6c11.37,9.96,23.47,19.42,36.39,27.2
				c30.81,18.54,62.3,35.95,94.41,54.32c0-3.46,0-6.23,0-9c0-68.32-0.12-136.65,0.03-204.97c0.18-77.81,52.5-142.27,128.51-158.72
				c89.92-19.46,178.65,42.46,191.8,133.82c1.12,7.76,2.6,15.49,3.33,23.29c0.48,5.06,2.98,6.82,7.61,8.07
				c80.45,21.77,128.07,74.07,144.03,155.59c0.9,4.61,1.56,9.35,1.57,14.03c0.12,41.86,0.07,83.73,0.07,125.97
				c-1.13,0.26-2.34,0.79-3.55,0.78c-32.97-0.2-65.99,0.66-98.9-0.92c-73.69-3.53-138.7-66.28-147.03-139.84
				c-4.22-37.23,2.96-71.75,21.67-104.05c5.51-9.5,11.18-18.93,16.19-28.68c1.25-2.42,1.36-6.62,0.09-8.95
				c-9.4-17.21-18.94-34.36-29.09-51.13c-21.43-35.41-69.07-41.5-98.62-12.45c-23.6,23.21-36.63,51.81-36.96,84.88
				c-0.69,69.37-0.28,138.74-0.1,208.11c0.01,2.58,1.59,6.33,3.63,7.56c37.94,23.03,57.56,58.32,66.58,100.28
				c4.9,22.79,7.91,46.02,2.47,69.27c-8.09,34.59-29.09,61.08-54.73,84.19c-49.46,44.59-108.25,71.6-171.78,89.04
				c-43.1,11.83-87.07,18.28-131.85,16.32c-62.27-2.73-99.87-36.22-111.82-97.57c-17.93-92.05,15.81-163.69,87.48-219.49
				c51.16-39.82,109.82-59.62,174.93-59.33c7.74,0.03,15.49,0,23.23,0C441.34,552.15,441.57,551.46,441.8,550.78z M451.96,577.97
				c-13.05,0-25.27-0.07-37.48,0.01c-60.5,0.41-114.92,18.79-161.45,57.54c-60.52,50.4-89.3,113.38-72.42,193.22
				c10.34,48.91,38.88,73.67,88.91,75.46c36.79,1.31,73.15-3.03,108.92-11.59c64.2-15.37,123.41-41.19,173.47-85.29
				c21.24-18.71,41.64-39.61,47.31-67.85c10.47-52.15-2.21-98.99-41.07-137.16c-1.21-1.19-2.77-2.03-4.44-3.22
				c-1.18,9.69-1.62,18.8-3.48,27.62c-9.09,43.14-33.63,76.72-66.67,104.48c-30.67,25.76-65.38,44.26-105.92,46.54
				c-27.75,1.56-49.58,13.03-69.32,30.69c-9.9,8.86-17.74,19.22-19.76,32.86c-8.26,0-16.21,0-26.3,0c3.1-9.17,4.36-18.11,8.77-25.06
				c22.61-35.68,54.25-57.99,97.11-62.66c9.34-1.02,18.61-2.62,27.93-3.77c18.76-2.32,28.85-13.22,34.69-30.97
				C445.66,673.52,449.25,626.72,451.96,577.97z M458.73,719.64c7.59-6.92,15.86-13.65,23.19-21.3
				c30.11-31.43,47.19-67.47,46.21-112.65c-1.63-75.35-0.52-150.76-0.41-226.14c0.05-39.34,13.1-73.91,39.81-102.85
				c43.52-47.15,113.1-39.13,145.15,16.47c12.79,22.2,25.43,44.49,38.17,66.72c1.1,1.91,2.42,3.69,3.64,5.53
				c-1.54-19.03-4.18-37.6-7.06-56.13C736,215.8,664.51,164.71,591.29,177.67c-66.93,11.85-113.64,67.06-113.78,134.92
				c-0.16,79.31,0.5,158.63-0.35,237.93c-0.35,32.38-2.68,64.84-6.04,97.06C468.62,671.62,463.03,695.34,458.73,719.64z
				 M734.68,363.32c-5.77,10.28-11.25,19.4-16.13,28.83c-41.92,81.1,7.89,181.97,98.08,195.57c28.19,4.25,57.38,1.83,86.11,2.43
				c0.43,0.01,0.88-0.5,1.82-1.07c0-28.99,0.88-58.32-0.18-87.58c-2.49-69.17-35.83-118.61-97.96-148.64
				c-7.59-3.67-15.91-5.86-25.4-9.27c3.46,22.93,5.59,44.3,10.38,65.06c1.86,8.05,5.18,18.64,16.74,20.39
				c11.89,1.79,23.81,3.41,35.7,5.17c12.3,1.82,24.59,3.72,37.41,5.66c-1.31,8.55-2.47,16.2-3.76,24.6
				c-19.45-2.79-38.29-5.5-58.56-8.41c15.63,25.75,30.38,50.04,45.5,74.96c-7.28,4.42-14.11,8.56-21.45,13.02
				c-11.34-18.59-22.29-36.55-34.19-56.06c-6.18,23.54-11.91,45.39-17.79,67.79c-8.24-2.12-15.74-4.06-23.85-6.15
				c0.62-2.98,1.05-5.48,1.68-7.94c6.72-26.06,13.55-52.09,20.1-78.2c0.69-2.76,0.79-6.51-0.54-8.81
				C770.97,424.62,753.22,394.73,734.68,363.32z"/>
			<path class="st0" d="M283.46,930.07c-5.42,0-10.82-0.12-16.2-0.35c-31.01-1.36-56.27-10.42-75.09-26.92
				c-18.7-16.4-31.21-40.3-37.2-71.05c-8.73-44.85-5.31-86.44,10.17-123.63c14.73-35.37,40.8-67.78,77.5-96.35
				c50.66-39.44,109.14-59.44,173.82-59.44c0.47,0,0.95,0,1.42,0c5.29,0.02,10.59,0.02,15.88,0.01l6.99-0.01l0.45-1.34
				c-2.28-1.45-4.55-2.92-6.82-4.39c-5.08-3.28-10.32-6.68-15.6-9.81c-9.93-5.88-20.12-11.72-29.97-17.37
				c-20.49-11.74-41.67-23.88-61.68-37.08c-34.94-23.05-58.25-52.01-69.31-86.09c-8.11-25-9.38-45.71-4.01-65.15
				c4.95-17.92,16.3-33.28,31.96-43.26c15.64-9.96,34.54-13.89,53.22-11.06c18.11,2.74,34.58,12.31,46.38,26.95
				c11.8,14.63,17.86,33.01,17.08,51.74c-0.77,18.36-8.37,35.79-21.38,49.07c-13.02,13.29-30.38,21.31-48.86,22.57
				c-3.87,0.26-7.71,0.2-11.78,0.12c-1.9-0.03-3.84-0.07-5.82-0.07h-0.5v-25.12l0.47-0.03c1.76-0.1,3.53-0.19,5.29-0.28
				c3.78-0.19,7.68-0.38,11.51-0.73c26.54-2.43,46.29-25.33,44.97-52.12c-1.28-26.02-23.42-46.84-49.57-46.84
				c-0.32,0-0.65,0-0.98,0.01c-27.04,0.53-48.47,21.86-48.79,48.54c-0.43,36.1,14.65,67.79,44.82,94.21
				c13,11.38,24.88,20.26,36.32,27.15c21.89,13.17,43.65,25.5,66.68,38.56c8.82,5,17.92,10.16,26.97,15.33v-8.14
				c0-21.04-0.01-42.07-0.02-63.11c-0.03-46.5-0.05-94.58,0.06-141.87c0.09-38.28,12.51-73.78,35.93-102.69
				c23.4-28.88,55.55-48.43,92.97-56.52c42.88-9.28,88.38-0.07,124.83,25.26c36.63,25.46,61.26,65.18,67.57,108.98
				c0.37,2.54,0.77,5.07,1.17,7.61c0.82,5.13,1.67,10.44,2.16,15.71c0.46,4.9,2.9,6.47,7.24,7.64c40,10.82,72.44,29.51,96.44,55.53
				c23.83,25.85,39.97,59.65,47.96,100.44c1.05,5.36,1.57,9.98,1.58,14.13c0.09,32.36,0.08,65.35,0.08,97.26l0,29.11l-0.39,0.09
				c-0.34,0.08-0.7,0.19-1.05,0.29c-0.84,0.25-1.73,0.48-2.61,0.51c-9.96-0.06-20.09-0.02-29.89,0.01
				c-22.64,0.08-46.06,0.17-69.03-0.93c-35.65-1.71-70.57-17.26-98.35-43.8c-27.64-26.41-45.1-60.68-49.16-96.48
				c-4.2-37.1,3.11-72.21,21.73-104.35c1.09-1.89,2.19-3.77,3.29-5.65c4.36-7.47,8.88-15.2,12.89-23.01
				c1.2-2.33,1.25-6.38,0.09-8.48c-8.93-16.35-18.64-33.86-29.08-51.11c-10.16-16.78-26.92-27.78-45.98-30.17
				c-19.02-2.38-37.92,4.11-51.86,17.82c-24.1,23.69-36.48,52.13-36.81,84.53c-0.57,57.25-0.39,115.47-0.21,171.77
				c0.04,12.11,0.08,24.23,0.11,36.34c0,2.35,1.49,5.98,3.39,7.14c34.97,21.23,56.82,54.14,66.8,100.61
				c4.43,20.63,8.19,45.02,2.47,69.49c-7.08,30.24-24.51,57.08-54.88,84.45c-45.01,40.57-101.27,69.73-171.99,89.15
				C358.5,924.57,320.44,930.07,283.46,930.07z M416.46,553.33c-64.46,0-122.72,19.92-173.21,59.22
				c-36.56,28.46-62.53,60.74-77.19,95.95c-15.41,37-18.81,78.4-10.11,123.05c5.94,30.52,18.35,54.24,36.88,70.49
				c18.65,16.35,43.7,25.33,74.47,26.68c41.97,1.84,85.05-3.49,131.69-16.3c70.57-19.38,126.69-48.46,171.58-88.93
				c30.21-27.23,47.55-53.9,54.58-83.93c5.68-24.27,1.94-48.53-2.47-69.05c-9.92-46.18-31.62-78.88-66.35-99.96
				c-2.27-1.38-3.86-5.32-3.87-7.99c-0.03-12.11-0.07-24.23-0.11-36.34c-0.18-56.3-0.36-114.52,0.21-171.78
				c0.33-32.67,12.81-61.34,37.11-85.23c14.16-13.92,33.36-20.52,52.69-18.1c19.37,2.43,36.39,13.6,46.71,30.65
				c10.45,17.27,20.17,34.79,29.1,51.15c1.31,2.39,1.27,6.79-0.08,9.42c-4.03,7.83-8.55,15.58-12.92,23.06
				c-1.1,1.88-2.2,3.76-3.29,5.65c-18.77,32.4-25.84,66.33-21.61,103.74c4.03,35.57,21.38,69.62,48.85,95.87
				c27.6,26.37,62.3,41.83,97.7,43.52c22.95,1.1,46.35,1.01,68.98,0.93c9.8-0.04,19.93-0.07,29.9-0.01c0.78,0,1.55-0.23,2.32-0.46
				c0.25-0.07,0.49-0.15,0.73-0.21l0-28.33c0.01-31.9,0.02-64.89-0.08-97.25c-0.01-4.08-0.52-8.64-1.56-13.94
				c-7.96-40.61-24.01-74.25-47.71-99.96c-23.86-25.89-56.15-44.47-95.96-55.25c-4.66-1.26-7.46-3.06-7.98-8.51
				c-0.5-5.23-1.34-10.52-2.15-15.64c-0.41-2.54-0.81-5.08-1.18-7.62c-6.26-43.52-30.74-83-67.15-108.3
				c-36.22-25.17-81.43-34.32-124.05-25.1c-37.2,8.05-69.15,27.47-92.41,56.18c-23.27,28.72-35.62,64.01-35.71,102.06
				c-0.11,47.29-0.08,95.37-0.06,141.87c0.01,21.04,0.02,42.07,0.02,63.11v9.86l-0.75-0.43c-9.29-5.32-18.66-10.62-27.71-15.76
				c-23.04-13.06-44.81-25.39-66.71-38.57c-11.49-6.92-23.42-15.83-36.46-27.25c-30.4-26.62-45.59-58.57-45.16-94.98
				c0.32-27.23,22.18-48.99,49.77-49.53c27.08-0.51,50.24,20.9,51.56,47.78c1.34,27.33-18.81,50.69-45.88,53.17
				c-3.85,0.35-7.77,0.55-11.56,0.73c-1.61,0.08-3.21,0.16-4.81,0.25v23.17c1.81,0,3.59,0.04,5.34,0.07
				c4.05,0.07,7.87,0.14,11.7-0.12c18.24-1.25,35.37-9.15,48.22-22.27c12.84-13.1,20.33-30.3,21.09-48.41
				c0.78-18.49-5.21-36.62-16.86-51.07c-11.64-14.44-27.89-23.89-45.75-26.59c-18.44-2.79-37.1,1.08-52.54,10.91
				c-15.45,9.84-26.64,25-31.53,42.68c-5.32,19.25-4.04,39.76,4,64.57c10.98,33.85,34.16,62.64,68.91,85.56
				c19.99,13.19,41.16,25.32,61.63,37.05c9.86,5.65,20.05,11.49,29.99,17.38c5.3,3.14,10.55,6.54,15.64,9.83
				c2.38,1.54,4.75,3.08,7.14,4.59l0.33,0.21l-0.93,2.77l-7.71,0.01c-5.29,0.01-10.59,0.01-15.89-0.01
				C417.41,553.33,416.93,553.33,416.46,553.33z M282.31,904.92c-4.3,0-8.57-0.08-12.82-0.23c-49.73-1.78-78.96-26.59-89.38-75.85
				c-8.2-38.76-5.77-75.08,7.21-107.93c12.23-30.97,34.23-59.83,65.38-85.77c45.44-37.84,99.86-57.24,161.77-57.66
				c8.3-0.06,16.5-0.04,25.17-0.03c4.04,0.01,8.13,0.01,12.31,0.01h0.53l-0.03,0.53c-2.69,48.46-6.34,95.71-21.24,140.97
				c-6.31,19.18-17.47,29.13-35.11,31.31c-4.05,0.5-8.16,1.1-12.14,1.67c-5.17,0.75-10.52,1.52-15.8,2.1
				c-40.75,4.44-73.3,25.45-96.74,62.43c-2.93,4.63-4.47,10.21-6.1,16.12c-0.73,2.66-1.49,5.4-2.4,8.17h25.17
				c1.87-11.88,8.19-22.3,19.86-32.73c21.91-19.59,44.03-29.39,69.63-30.82c36.32-2.04,70.87-17.22,105.62-46.42
				c36.43-30.6,58.18-64.69,66.5-104.2c1.26-5.96,1.86-12.01,2.49-18.42c0.3-2.97,0.6-6.05,0.98-9.16l0.1-0.84l0.69,0.49
				c0.54,0.39,1.08,0.74,1.59,1.08c1.06,0.7,2.06,1.36,2.91,2.19c38.15,37.48,52.01,83.78,41.21,137.62
				c-5.92,29.5-27.61,50.63-47.47,68.13c-45.97,40.49-102.78,68.43-173.68,85.4C345.7,900.96,313.4,904.92,282.31,904.92z
				 M427.98,578.44c-4.53,0-8.99,0.01-13.49,0.04c-61.67,0.42-115.88,19.74-161.13,57.42c-31.02,25.83-52.92,54.55-65.09,85.37
				c-12.91,32.67-15.32,68.79-7.16,107.36c5.21,24.66,14.83,42.69,29.41,55.12c14.67,12.52,33.98,19.04,59.03,19.94
				c34.88,1.25,71.48-2.65,108.78-11.57c70.73-16.93,127.41-44.79,173.25-85.17c19.74-17.39,41.29-38.38,47.15-67.57
				c10.74-53.49-3.03-99.48-40.93-136.71c-0.78-0.76-1.74-1.4-2.76-2.07c-0.31-0.2-0.62-0.41-0.93-0.62
				c-0.33,2.82-0.61,5.61-0.88,8.31c-0.64,6.43-1.24,12.51-2.51,18.52c-8.37,39.74-30.24,74-66.84,104.76
				c-34.93,29.34-69.67,44.6-106.21,46.65c-25.36,1.42-47.29,11.13-69.02,30.57c-11.62,10.4-17.85,20.75-19.6,32.56l-0.06,0.43
				h-27.43l0.22-0.66c1-2.96,1.81-5.92,2.6-8.77c1.65-5.99,3.2-11.64,6.22-16.39c23.61-37.26,56.41-58.42,97.48-62.89
				c5.27-0.57,10.6-1.35,15.76-2.09c3.98-0.58,8.1-1.17,12.16-1.67c17.45-2.15,28.02-11.6,34.28-30.63
				c14.8-44.97,18.47-91.97,21.16-140.18c-4,0-7.92-0.01-11.79-0.01C435.67,578.45,431.8,578.44,427.98,578.44z M457.99,721
				l0.26-1.45c1.33-7.53,2.8-15.1,4.23-22.43c3.16-16.23,6.43-33.02,8.16-49.6c3.75-35.99,5.72-67.72,6.03-97.01
				c0.55-51.32,0.46-103.51,0.38-153.99c-0.04-27.51-0.09-55.96-0.03-83.94c0.14-67.85,47.09-123.54,114.19-135.42
				c35.55-6.29,71.65,2.05,101.63,23.48c29.98,21.44,49.54,52.89,55.09,88.57c2.73,17.55,5.47,36.51,7.07,56.17l0.16,1.94
				l-1.07-1.62c-0.39-0.58-0.78-1.16-1.18-1.74c-0.85-1.23-1.72-2.5-2.48-3.82c-5.03-8.77-10.04-17.55-15.05-26.33
				c-7.56-13.25-15.38-26.95-23.13-40.39c-15.24-26.45-40.05-43.41-68.08-46.54c-27.89-3.12-55.7,7.87-76.27,30.16
				c-26.27,28.46-39.62,62.95-39.68,102.51c-0.03,20.26-0.13,40.87-0.23,60.79c-0.27,54.2-0.55,110.25,0.64,165.34
				c0.92,42.52-14.24,79.48-46.35,113c-5.05,5.27-10.59,10.14-15.95,14.86c-2.41,2.12-4.89,4.3-7.26,6.47L457.99,721z
				 M614.41,176.14c-7.66,0-15.35,0.67-23.03,2.03c-66.61,11.79-113.23,67.07-113.36,134.43c-0.06,27.98-0.01,56.42,0.03,83.93
				c0.08,50.48,0.17,102.67-0.38,154c-0.31,29.32-2.29,61.08-6.04,97.11c-1.73,16.62-5,33.43-8.17,49.68
				c-1.33,6.86-2.71,13.93-3.97,20.97c2.04-1.84,4.15-3.69,6.19-5.49c5.34-4.7,10.87-9.56,15.89-14.8
				c31.92-33.32,46.98-70.05,46.07-112.29c-1.19-55.1-0.91-111.15-0.64-165.36c0.1-19.93,0.2-40.53,0.23-60.79
				c0.05-39.82,13.49-74.53,39.94-103.19c20.79-22.52,48.89-33.63,77.11-30.47c28.34,3.17,53.43,20.31,68.83,47.04
				c7.75,13.44,15.57,27.14,23.13,40.39c5.01,8.78,10.02,17.56,15.05,26.33c0.74,1.29,1.6,2.54,2.43,3.75
				c0.04,0.06,0.08,0.11,0.12,0.17c-1.61-18.95-4.26-37.22-6.9-54.19c-5.5-35.41-24.92-66.63-54.68-87.91
				C668.96,184.83,641.96,176.14,614.41,176.14z M859.69,590.81c-14.42,0-28.99-0.46-43.13-2.59
				c-42.57-6.42-78.43-32.52-98.38-71.61c-9.64-18.88-14.88-39.95-15.17-60.95c-0.3-22.34,4.78-43.79,15.09-63.74
				c3.3-6.39,6.86-12.6,10.63-19.17c1.8-3.14,3.64-6.35,5.51-9.68l0.43-0.76l0.44,0.75c3.75,6.36,7.48,12.66,11.17,18.91
				c14.73,24.93,28.65,48.48,42.56,72.45c1.49,2.57,1.25,6.56,0.59,9.19c-4.69,18.68-9.6,37.63-14.35,55.96
				c-1.92,7.41-3.84,14.82-5.75,22.24c-0.42,1.63-0.76,3.32-1.11,5.11c-0.15,0.75-0.3,1.53-0.47,2.34l22.91,5.9l17.96-68.45
				l34.54,56.64l20.59-12.5l-45.79-75.44l59.12,8.49l3.61-23.61l-11.19-1.7c-8.69-1.33-17.2-2.62-25.72-3.89
				c-5.33-0.79-10.66-1.55-16-2.31c-6.46-0.92-13.14-1.87-19.71-2.86c-11.28-1.7-15-11.45-17.15-20.77
				c-3.41-14.76-5.45-29.7-7.62-45.51c-0.87-6.36-1.77-12.94-2.78-19.59l-0.13-0.83l0.79,0.28c3.11,1.12,6.09,2.11,8.98,3.06
				c5.83,1.93,11.34,3.75,16.47,6.23c62.72,30.31,95.77,80.46,98.24,149.07c0.73,20.15,0.53,40.61,0.35,60.4
				c-0.08,8.93-0.17,18.16-0.17,27.2v0.28l-0.24,0.15c-0.33,0.2-0.6,0.39-0.82,0.56c-0.46,0.33-0.84,0.58-1.26,0.58
				c-8.93-0.19-18.07-0.08-26.9,0.03C870.49,590.75,865.1,590.81,859.69,590.81z M734.69,364.32c-1.72,3.06-3.42,6.03-5.09,8.93
				c-3.76,6.57-7.32,12.77-10.61,19.13c-10.24,19.81-15.28,41.1-14.98,63.27c0.28,20.84,5.49,41.76,15.06,60.51
				c19.8,38.79,55.39,64.7,97.63,71.07c19.38,2.92,39.58,2.68,59.12,2.45c8.84-0.11,17.98-0.21,26.93-0.03h0
				c0.11,0,0.4-0.21,0.66-0.4c0.19-0.14,0.4-0.29,0.65-0.45c0-8.95,0.09-18.09,0.17-26.93c0.19-19.78,0.38-40.23-0.35-60.35
				c-2.45-68.2-35.32-118.07-97.68-148.2c-5.07-2.45-10.55-4.26-16.35-6.18c-2.65-0.88-5.37-1.78-8.21-2.79
				c0.96,6.38,1.82,12.67,2.65,18.77c2.16,15.79,4.2,30.71,7.6,45.42c2.08,8.99,5.64,18.39,16.33,20.01
				c6.56,0.99,13.24,1.94,19.7,2.86c5.33,0.76,10.67,1.52,16,2.31c8.52,1.26,17.04,2.56,25.73,3.89l12.17,1.85l-3.91,25.58l-58-8.33
				l45.21,74.48l-22.3,13.54l-33.83-55.48l-17.62,67.13l-24.8-6.39l0.1-0.47c0.21-0.98,0.39-1.91,0.57-2.8
				c0.36-1.8,0.69-3.5,1.12-5.17c1.91-7.41,3.83-14.83,5.75-22.24c4.75-18.33,9.66-37.28,14.34-55.95c0.66-2.64,0.77-6.28-0.49-8.44
				c-13.91-23.98-27.82-47.52-42.55-72.45C741.87,376.48,738.29,370.43,734.69,364.32z"/>
		</g>
		<g>
			<path class="st0" d="M236.99,733.82c-7.61-3.52-14.65-6.77-21.61-9.99c13.94-55.88,118.03-123.13,185.98-119.67
				c0.39,7.73,0.78,15.61,1.2,24.16c-35.38,2.61-67.73,12.57-97.22,31.25C276.05,678.13,252.82,702.38,236.99,733.82z"/>
			<path class="st0" d="M237.22,734.47l-22.42-10.36l0.1-0.4c14.01-56.19,118.58-123.52,186.49-120.05l0.45,0.02l1.25,25.1
				l-0.49,0.04c-36.38,2.69-68.11,12.88-96.99,31.17c-30.52,19.33-52.82,43.55-68.18,74.05L237.22,734.47z M215.97,723.55
				l20.79,9.61c15.44-30.46,37.79-54.68,68.32-74.01c28.89-18.3,60.61-28.53,96.96-31.29l-1.16-23.22
				C333.45,601.52,230.25,667.92,215.97,723.55z"/>
		</g>
		<g>
			<path class="st0" d="M204.08,750.79c8.71,2.08,16.22,3.88,24.36,5.83c-0.9,7.4-1.77,14.54-2.72,22.33c-7.74,0-15.65,0-25.08,0
				C201.76,769.78,202.87,760.71,204.08,750.79z"/>
			<path class="st0" d="M226.17,779.45h-26.09l3.58-29.27l25.34,6.06L226.17,779.45z M201.21,778.45h24.08L227.9,757l-23.38-5.59
				L201.21,778.45z"/>
		</g>
	</g>
</g>
</svg>
